<svg xmlns="http://www.w3.org/2000/svg" viewBox="0 0 58.92 34.37"><path fill="#fff" d="M0 11.46h58.92v11.46H0z"/><path fill="#80a7d8" d="M0 0h58.92v11.46H0zM0 22.91h58.92v11.46H0z"/><path d="M29.23 17.18l.18 4.69s0 .09.06.09.06-.09.06-.09l.18-4.69h-.48z" fill="#f1bd51"/><path d="M29.46 21.97c-.06 0-.07-.07-.07-.1l-.18-4.69h.03l.18 4.69s0 .07.05.07c.04 0 .04-.07.04-.07l.18-4.69-.15 4.69c-.01.04-.02.1-.08.1" fill="#7a361d"/><path fill="#7a361d" d="M29.35 17.18l.11 3.22.12-3.22z"/><path d="M29.02 18.7c-.27.59-.04 1.07-.31 1.59-.27.51-.1.94-.12 1.17-.02.24-.21.3-.16.36.05.05.25-.05.33-.37.08-.31-.11-.49.21-1.13.32-.63.07-.92.39-1.48l-.34-.14z" fill="#f1bd51"/><path d="M28.48 21.84l-.06-.02c-.03-.03 0-.07.03-.11.04-.05.11-.13.12-.26.01-.06 0-.14-.01-.23-.03-.24-.06-.57.14-.95.13-.26.14-.5.15-.76.01-.26.02-.53.16-.83l.03.01c-.13.29-.14.56-.15.82-.01.26-.02.51-.15.77-.2.37-.16.7-.13.94.01.09.02.17.01.23-.01.14-.08.23-.13.28-.03.04-.05.06-.03.07.11-.01.24-.13.3-.36.02-.1.02-.2.02-.29-.01-.2-.02-.42.2-.84.16-.31.18-.54.19-.76.02-.23.03-.44.2-.72-.14.3-.15.51-.17.73-.02.22-.03.45-.2.77-.21.41-.2.63-.19.82 0 .1.01.19-.02.3-.07.24-.2.37-.31.39z" fill="#7a361d"/><path d="M29.09 18.85c-.21.59.01.98-.27 1.47.31-.36.11-.82.38-1.42l-.11-.05z" fill="#7a361d"/><path d="M29.7 17.18l-.18-4.69s0-.09-.06-.09-.06.09-.06.09l-.18 4.69h.48z" fill="#f1bd51"/><path d="M29.68 17.19l-.18-4.69s0-.07-.04-.07-.05.07-.05.07l-.18 4.69.15-4.69c0-.04.01-.1.07-.1.06 0 .07.07.07.1l.18 4.68-.02.01z" fill="#7a361d"/><path fill="#7a361d" d="M29.58 17.18l-.12-3.21-.11 3.21z"/><path d="M29.91 15.67c.27-.59.04-1.07.3-1.59.27-.51.1-.94.12-1.18.02-.24.21-.3.16-.36-.05-.06-.25.05-.33.37-.08.31.11.5-.21 1.13-.32.63-.07.92-.39 1.48l.35.15z" fill="#f1bd51"/><path d="M29.92 15.68l-.03-.01c.13-.29.14-.56.15-.81.01-.26.02-.51.15-.77.2-.37.16-.7.13-.93-.01-.09-.02-.17-.01-.24.01-.14.08-.22.13-.28.04-.04.04-.05.03-.06-.11.01-.24.12-.3.36-.03.1-.02.2-.02.29.01.2.02.42-.2.84-.16.31-.18.54-.19.76-.02.22-.03.44-.2.72.14-.29.15-.5.17-.72.02-.22.03-.45.2-.77.21-.41.2-.63.19-.82-.01-.1-.01-.19.02-.3.06-.25.21-.37.28-.39h.01l.06.02c.03.03 0 .07-.04.1-.04.05-.11.13-.12.26-.01.06 0 .14.01.23.03.24.06.57-.13.95-.13.26-.14.5-.15.76 0 .24-.01.51-.14.81" fill="#7a361d"/><path d="M29.83 15.52c.21-.59-.01-.98.27-1.47-.31.36-.11.82-.38 1.42l.11.05z" fill="#7a361d"/><path d="M29.46 16.95l-4.69.18s-.09 0-.09.06.09.06.09.06l4.69.18v-.48z" fill="#f1bd51"/><path d="M29.46 17.41l-4.69-.15c-.04 0-.1-.02-.1-.07 0-.06.07-.07.1-.07l4.69-.18v.03l-4.69.17s-.08 0-.08.04c0 .05.08.05.08.05l4.69.18z" fill="#7a361d"/><path fill="#7a361d" d="M29.46 17.07l-3.22.11 3.22.12z"/><path d="M27.95 16.74c-.59-.27-1.07-.04-1.58-.31-.52-.27-.94-.1-1.18-.12-.23-.02-.3-.21-.36-.16-.05.05.05.25.37.33.31.08.49-.11 1.12.21.63.32.92.07 1.48.39l.15-.34z" fill="#f1bd51"/><path d="M27.81 17.08c-.29-.14-.5-.15-.73-.17-.22-.02-.45-.03-.77-.2-.41-.21-.63-.2-.82-.2-.1.01-.19.01-.3-.02-.23-.06-.36-.19-.39-.28v-.01l.02-.06c.03-.03.07 0 .1.04.05.04.13.11.26.12.06.01.14 0 .23-.01.24-.03.57-.06.96.13.25.13.5.14.76.15.26.01.53.02.83.16l-.01.03c-.29-.13-.56-.14-.81-.15-.26-.01-.51-.02-.77-.16-.37-.19-.7-.16-.94-.13-.09.01-.17.02-.23.02-.14-.01-.22-.08-.28-.13-.04-.03-.06-.05-.07-.03.01.11.13.24.36.3.1.03.19.02.29.02.2-.01.42-.02.84.2.31.16.54.18.75.19.22 0 .44.02.72.19" fill="#7a361d"/><path d="M27.8 16.82c-.59-.21-.98.01-1.47-.27.36.31.82.11 1.42.38l.05-.11z" fill="#7a361d"/><path d="M29.46 17.42l4.69-.18s.09 0 .09-.06-.09-.06-.09-.06l-4.69-.18v.48z" fill="#f1bd51"/><path d="M29.46 17.44v-.03l4.68-.18s.07 0 .07-.05c0-.04-.07-.04-.07-.04l-4.69-.18 4.69.15c.03 0 .1.01.1.07 0 .06-.07.07-.1.07l-4.68.19z" fill="#7a361d"/><path fill="#7a361d" d="M29.46 17.3l3.22-.12-3.22-.11z"/><path d="M30.98 17.63c.59.27 1.07.04 1.59.31.51.27.94.1 1.17.12.23.02.3.21.35.16.06-.05-.05-.25-.37-.33-.31-.08-.49.11-1.12-.21-.63-.32-.92-.07-1.48-.39l-.14.34z" fill="#f1bd51"/><path d="M34.07 18.24c-.02 0-.05-.02-.08-.05-.05-.04-.13-.11-.26-.12-.06-.01-.14 0-.23.01-.24.03-.57.06-.95-.14-.26-.13-.5-.14-.76-.15-.26-.01-.53-.02-.82-.16l.01-.03c.29.13.56.14.81.15.26.01.51.02.77.16.37.19.69.16.93.13.09-.01.17-.02.24-.01.14.01.22.08.28.13.04.04.05.04.07.04-.01-.11-.12-.24-.36-.3-.1-.03-.19-.02-.29-.02-.2.01-.42.02-.83-.2-.31-.16-.54-.18-.76-.19-.23-.02-.44-.03-.72-.2.29.14.51.15.73.17.22.02.45.03.77.2.41.21.63.2.82.19.1-.01.19-.01.3.02.25.06.37.2.39.28v.01l-.02.06c-.02.02-.03.02-.04.02" fill="#7a361d"/><path d="M31.13 17.55c.59.21.98-.01 1.48.27-.36-.31-.82-.11-1.42-.38l-.06.11z" fill="#7a361d"/><path d="M29.3 17.02l-3.19 3.44s-.06.06-.02.1c.04.04.11-.02.11-.02l3.44-3.19-.34-.33z" fill="#f1bd51"/><path d="M26.12 20.59c-.09-.06-.05-.12-.02-.14l3.19-3.44.02.02-3.19 3.44s-.05.05-.02.08c.03.03.08-.02.08-.02l3.44-3.19-3.42 3.21s-.04.04-.08.04" fill="#7a361d"/><path fill="#7a361d" d="M29.38 17.1l-2.19 2.36 2.36-2.19z"/><path d="M28.08 17.94c-.61.23-.78.73-1.34.9-.55.17-.74.59-.92.75-.18.15-.36.07-.37.14 0 .07.21.14.49-.03.28-.16.27-.43.95-.64.68-.22.69-.6 1.32-.77l-.13-.35z" fill="#f1bd51"/><path d="M25.62 19.82a.29.29 0 0 1-.14-.03l-.04-.06c0-.04.05-.05.1-.05.07 0 .17-.01.27-.1.05-.04.1-.1.15-.17.15-.19.36-.45.77-.58.28-.09.46-.25.65-.43s.39-.36.69-.47l.01.03c-.3.11-.49.29-.68.47-.19.18-.38.35-.66.44-.4.13-.61.38-.76.57-.06.07-.11.13-.15.17-.11.09-.22.1-.29.1-.05 0-.07.01-.07.02.09.07.26.08.47-.04.09-.06.15-.12.22-.19.13-.14.28-.31.73-.45.33-.11.5-.26.67-.4.17-.15.33-.29.65-.37-.31.11-.47.25-.63.39-.17.14-.34.29-.68.4-.44.14-.59.3-.72.44-.07.07-.13.14-.23.2-.12.08-.24.11-.33.11" fill="#7a361d"/><path d="M28.03 18.1c-.56.27-.68.7-1.23.85.47-.03.65-.5 1.27-.74l-.04-.11z" fill="#7a361d"/><path d="M29.63 17.35l3.19-3.44s.06-.06.02-.1c-.04-.04-.1.02-.1.02l-3.44 3.19.33.33z" fill="#f1bd51"/><path d="M29.64 17.36l-.02-.02 3.19-3.44s.05-.05.02-.08c-.03-.03-.08.02-.08.02l-3.44 3.19 3.42-3.21c.02-.02.08-.06.12-.02.04.04 0 .1-.02.13l-3.19 3.43z" fill="#7a361d"/><path fill="#7a361d" d="M29.55 17.27l2.19-2.36-2.36 2.19z"/><path d="M30.85 16.43c.61-.23.78-.73 1.34-.9.55-.17.74-.59.92-.75.18-.15.36-.06.37-.14 0-.07-.22-.14-.49.03-.28.17-.27.43-.95.64-.67.22-.69.6-1.32.77l.13.35z" fill="#f1bd51"/><path d="M30.85 16.44l-.01-.03c.3-.11.49-.29.68-.47.19-.18.38-.35.66-.44.4-.13.6-.38.76-.57.06-.07.11-.13.16-.18.11-.09.22-.1.29-.1.05 0 .07-.01.07-.02-.09-.07-.26-.08-.47.04-.09.06-.15.12-.22.2-.13.14-.28.31-.73.45-.33.11-.51.26-.67.4-.17.15-.33.29-.65.37.3-.11.46-.25.63-.39.17-.15.34-.29.68-.4.44-.14.59-.3.72-.44.07-.07.13-.14.22-.2.21-.12.39-.13.48-.08l.04.06c0 .04-.05.05-.1.05a.38.38 0 0 0-.27.1c-.05.04-.1.1-.15.17-.15.19-.36.45-.77.58-.28.09-.46.25-.65.43-.2.18-.39.36-.7.47" fill="#7a361d"/><path d="M30.9 16.27c.56-.27.68-.7 1.23-.85-.47.03-.65.5-1.27.74l.04.11z" fill="#7a361d"/><path d="M29.63 17.02l-3.44-3.19s-.06-.06-.1-.02c-.04.04.02.1.02.1l3.19 3.44.33-.33z" fill="#f1bd51"/><path d="M29.31 17.34l-3.21-3.42c-.02-.02-.06-.08-.02-.12.04-.04.1-.01.13.02l3.44 3.19-.02.02-3.44-3.19s-.05-.05-.08-.02c-.03.03.02.08.02.08l3.18 3.44z" fill="#7a361d"/><path fill="#7a361d" d="M29.55 17.1l-2.36-2.19 2.19 2.36z"/><path d="M28.71 15.8c-.23-.61-.73-.79-.9-1.34-.17-.56-.59-.73-.75-.92-.15-.18-.07-.36-.14-.37s-.14.22.03.49c.17.28.43.27.64.95.22.68.6.7.77 1.32l.35-.13z" fill="#f1bd51"/><path d="M28.37 15.94c-.11-.3-.25-.46-.39-.63-.14-.17-.29-.34-.4-.68-.14-.44-.3-.59-.44-.72-.07-.07-.14-.13-.2-.23-.13-.22-.12-.41-.07-.47l.06-.04c.04 0 .05.05.05.1.01.07.01.17.1.27.04.05.1.1.17.15.19.15.45.36.58.77.09.27.25.45.43.64s.36.39.48.69l-.03.01c-.11-.3-.29-.5-.47-.68-.18-.19-.35-.38-.44-.66-.12-.4-.38-.6-.57-.75-.07-.06-.13-.11-.18-.16a.438.438 0 0 1-.1-.29c0-.05-.01-.07-.02-.07-.07.09-.09.26.04.47.06.09.12.15.19.22.15.13.31.28.45.73.11.33.25.5.4.67.14.18.28.34.36.66" fill="#7a361d"/><path d="M28.55 15.75c-.27-.56-.7-.68-.85-1.23.03.47.5.65.74 1.27l.11-.04z" fill="#7a361d"/><path d="M29.3 17.35l3.44 3.19s.06.06.1.02c.04-.04-.02-.1-.02-.1l-3.19-3.44-.33.33z" fill="#f1bd51"/><path d="M32.8 20.58c-.06 0-.08-.02-.08-.02l-3.44-3.19.02-.02 3.44 3.19s.05.05.08.02c.03-.03-.02-.08-.02-.08l-3.19-3.44 3.21 3.42c.03.03.06.08.02.12-.01-.01-.02 0-.04 0" fill="#7a361d"/><path fill="#7a361d" d="M29.38 17.27l2.36 2.19-2.19-2.36z"/><path d="M30.22 18.57c.23.61.73.78.9 1.34.17.55.59.73.75.91.16.18.06.36.14.37.07.01.14-.21-.03-.49s-.43-.27-.64-.95c-.22-.68-.6-.7-.77-1.32l-.35.14z" fill="#f1bd51"/><path d="M32.01 21.2c-.04 0-.05-.05-.05-.1-.01-.07-.01-.17-.1-.27-.04-.05-.1-.09-.17-.15-.19-.15-.45-.36-.58-.77-.09-.28-.25-.46-.43-.65s-.36-.39-.47-.69l.03-.01c.11.3.29.49.47.68.18.19.35.38.44.66.13.4.38.61.57.76.07.06.13.1.17.15.09.11.1.22.1.29 0 .06.01.07.02.07.08-.09.09-.26-.04-.47-.06-.09-.12-.15-.19-.22-.14-.13-.31-.28-.45-.73-.11-.33-.26-.51-.4-.67-.15-.17-.29-.33-.37-.65.11.3.25.46.39.63.15.17.3.34.41.68.14.44.3.59.44.72.07.07.14.13.2.23.12.21.13.39.07.47l-.06.04z" fill="#7a361d"/><path d="M30.38 18.62c.27.56.7.68.85 1.23-.03-.47-.5-.65-.74-1.27l-.11.04z" fill="#7a361d"/><path d="M29.25 17.1l-1.63 4.4s-.03.08.02.1c.05.02.09-.06.09-.06l1.96-4.26-.44-.18z" fill="#f1bd51"/><path d="M27.68 21.61c-.1-.02-.09-.09-.08-.12l1.63-4.4.03.01-1.63 4.4s-.03.07.01.09l.07-.05 1.96-4.26-1.93 4.27s-.03.04-.06.06" fill="#7a361d"/><path fill="#7a361d" d="M29.36 17.14l-1.13 3.02 1.34-2.93z"/><path d="M28.47 18.42c-.47.44-.45.98-.89 1.35-.45.37-.45.83-.56 1.04-.11.21-.31.2-.29.27.03.07.25.05.44-.21s.09-.5.63-.96c.54-.46.41-.82.93-1.22l-.26-.27z" fill="#f1bd51"/><path d="M26.81 21.12h-.02l-.07-.04c-.01-.04.03-.06.07-.08.06-.03.16-.08.21-.19.03-.06.05-.13.08-.22.07-.23.16-.55.49-.83.22-.18.32-.41.43-.65.11-.24.22-.48.46-.7l.02.02c-.24.22-.35.46-.45.69-.11.24-.21.47-.44.65-.32.27-.41.58-.48.81-.03.09-.05.17-.08.22-.06.13-.16.18-.23.21-.05.02-.06.03-.06.05.11.03.28-.02.42-.22.07-.09.1-.17.13-.26.07-.18.15-.39.5-.7.27-.23.37-.43.47-.63.1-.2.2-.39.46-.59-.24.22-.33.41-.43.6-.1.2-.2.4-.47.63-.35.3-.43.51-.49.69-.03.09-.07.18-.13.27-.14.19-.29.27-.39.27" fill="#7a361d"/><path d="M28.49 18.58c-.42.46-.36.91-.82 1.26.43-.21.41-.71.89-1.17l-.07-.09z" fill="#7a361d"/><path d="M29.68 17.28l1.63-4.4s.03-.08-.02-.1c-.05-.02-.09.06-.09.06l-1.96 4.26.44.18z" fill="#f1bd51"/><path d="M29.69 17.28l-.03-.01 1.63-4.4s.03-.07-.01-.08l-.07.05-1.96 4.26 1.93-4.27s.02-.05.06-.07l.08.03c.01.04-.01.08-.01.09l-1.62 4.4z" fill="#7a361d"/><path fill="#7a361d" d="M29.57 17.23l1.12-3.02-1.34 2.93z"/><path d="M30.45 15.96c.47-.44.45-.97.89-1.35.45-.37.45-.83.56-1.04.11-.21.31-.2.29-.27-.03-.07-.25-.05-.44.21s-.09.5-.63.96c-.54.46-.41.82-.93 1.21l.26.28z" fill="#f1bd51"/><path d="M30.46 15.97l-.02-.02c.23-.22.34-.46.45-.69.11-.24.21-.47.44-.65.32-.27.41-.58.48-.81.03-.09.05-.17.08-.22.06-.13.16-.18.23-.21.05-.02.06-.03.06-.05-.11-.03-.28.02-.42.22-.07.09-.1.17-.13.26-.07.18-.14.39-.5.7-.27.23-.37.43-.47.62-.1.2-.2.39-.46.59.24-.22.33-.41.43-.6s.2-.4.47-.63c.35-.3.43-.51.49-.69.03-.09.07-.18.13-.27.14-.19.31-.27.41-.25l.06.04c.01.04-.03.06-.07.08-.06.03-.15.07-.21.19-.03.06-.05.13-.08.22-.07.23-.16.55-.49.83-.22.18-.32.41-.43.65-.1.22-.21.46-.45.69" fill="#7a361d"/><path d="M30.44 15.79c.42-.46.36-.91.81-1.26-.43.21-.41.72-.9 1.17l.09.09z" fill="#7a361d"/><path d="M29.55 16.97l-4.4-1.63s-.08-.03-.1.02c-.02.06.06.09.06.09l4.26 1.96.18-.44z" fill="#f1bd51"/><path d="M29.38 17.39l-4.28-1.93c-.03-.01-.09-.05-.07-.11.02-.05.09-.04.12-.03l4.39 1.63-.01.03-4.4-1.63s-.07-.03-.09.01c-.02.04.05.07.05.07l4.29 1.96z" fill="#7a361d"/><path fill="#7a361d" d="M29.51 17.08l-3.02-1.13 2.93 1.35z"/><path d="M28.24 16.2c-.44-.48-.98-.45-1.35-.89-.37-.45-.83-.45-1.04-.56-.21-.11-.2-.31-.27-.29-.07.02-.05.25.22.45.26.19.5.09.96.63.46.54.82.41 1.22.93l.26-.27z" fill="#f1bd51"/><path d="M27.98 16.45c-.22-.24-.41-.33-.61-.43-.2-.1-.4-.2-.63-.47-.3-.35-.51-.43-.69-.49-.09-.03-.18-.07-.27-.13-.2-.15-.27-.32-.25-.41l.04-.06c.04-.02.06.03.08.07.03.06.08.15.19.21.06.03.13.05.21.07.24.07.56.16.83.49.19.22.41.32.65.43.24.11.48.22.71.46l-.02.02c-.22-.24-.46-.35-.7-.45-.24-.11-.46-.21-.65-.44-.27-.32-.59-.42-.82-.48-.09-.03-.16-.05-.22-.07-.13-.07-.17-.16-.21-.23-.02-.05-.03-.07-.05-.06-.03.11.02.27.22.42.09.07.17.1.26.13.18.07.39.14.7.5.23.27.43.37.63.47.21.09.4.19.6.45" fill="#7a361d"/><path d="M28.07 16.21c-.46-.42-.91-.36-1.26-.81.21.43.71.41 1.17.89l.09-.08z" fill="#7a361d"/><path d="M29.37 17.4l4.4 1.63s.08.03.1-.02c.02-.05-.06-.09-.06-.09l-4.26-1.96-.18.44z" fill="#f1bd51"/><path d="M33.82 19.06c-.02 0-.04 0-.06-.01l-4.39-1.63.01-.03 4.39 1.63s.07.03.09-.01c.01-.04-.05-.07-.05-.07l-4.26-1.96 4.28 1.93c.03.02.09.05.07.11-.03.03-.05.04-.08.04" fill="#7a361d"/><path fill="#7a361d" d="M29.42 17.29l3.01 1.13-2.92-1.34z"/><path d="M30.69 18.17c.44.48.98.45 1.35.89.37.45.83.45 1.04.56.21.11.2.31.27.29.07-.02.04-.25-.22-.44s-.5-.09-.96-.63c-.46-.54-.82-.41-1.22-.93l-.26.26z" fill="#f1bd51"/><path d="M33.33 19.93c-.03 0-.05-.04-.07-.08a.432.432 0 0 0-.2-.21.814.814 0 0 0-.22-.07c-.23-.07-.55-.16-.83-.49-.18-.22-.41-.32-.65-.43-.24-.11-.48-.22-.7-.46l.02-.02c.22.24.46.35.7.45.24.11.47.21.66.44.27.32.58.41.81.48.09.03.16.05.22.08.13.06.17.16.21.23.03.05.04.06.05.06.03-.11-.02-.27-.22-.42-.09-.06-.17-.09-.26-.13-.18-.07-.39-.14-.7-.5-.23-.27-.43-.37-.62-.47-.2-.1-.39-.2-.59-.46.22.24.41.33.61.43.2.1.4.2.63.47.3.35.51.43.68.49.09.03.18.07.27.13.21.16.27.33.25.41l-.04.06c.01.01 0 .01-.01.01" fill="#7a361d"/><path d="M30.86 18.16c.46.42.91.36 1.26.81-.21-.42-.71-.41-1.17-.89l-.09.08z" fill="#7a361d"/><path d="M29.37 16.97l-4.26 1.96s-.08.03-.06.09c.02.06.1.02.1.02l4.4-1.63-.18-.44z" fill="#f1bd51"/><path d="M25.11 19.06c-.03 0-.06-.01-.07-.04-.02-.05.03-.09.07-.11l4.26-1.96.01.03-4.26 1.96s-.07.03-.05.07c.02.04.08.01.09.01l4.39-1.63-4.38 1.66c-.02 0-.04.01-.06.01" fill="#7a361d"/><path fill="#7a361d" d="M29.42 17.08l-2.93 1.34 3.02-1.12z"/><path d="M27.89 17.36c-.65-.02-1 .37-1.58.32-.58-.05-.91.27-1.13.34-.23.07-.36-.08-.39-.01-.03.07.14.21.47.16.32-.05.41-.29 1.12-.23.71.06.87-.29 1.52-.2v-.38z" fill="#f1bd51"/><path d="M25.13 18.19c-.19 0-.31-.07-.35-.12V18c.02-.04.06-.03.11-.01.06.02.16.05.29.01.06-.02.13-.06.21-.1.21-.12.5-.28.93-.24.29.03.52-.06.76-.15.25-.09.49-.18.82-.17v.03c-.32-.01-.57.08-.81.17-.25.09-.48.17-.77.15-.41-.04-.71.12-.92.24-.08.04-.15.08-.21.1-.14.04-.24.01-.31-.01-.06-.02-.07-.02-.08-.01.05.1.21.18.45.14.11-.02.19-.05.28-.09.18-.08.37-.18.85-.14.35.03.57-.04.77-.11.21-.07.42-.14.75-.09-.34-.02-.53.05-.74.12-.21.07-.43.14-.78.11-.46-.04-.66.06-.83.14-.09.04-.17.08-.28.1h-.14" fill="#7a361d"/><path d="M27.78 17.48c-.62.03-.9.39-1.47.32.45.15.79-.21 1.46-.19l.01-.13z" fill="#7a361d"/><path d="M29.55 17.4l4.26-1.96s.08-.03.06-.09c-.02-.05-.1-.02-.1-.02l-4.4 1.63.18.44z" fill="#f1bd51"/><path d="M29.56 17.42l-.01-.03 4.26-1.96s.07-.03.05-.07c-.02-.04-.08-.01-.09-.01l-4.4 1.63 4.39-1.66c.03-.01.1-.02.12.03.02.05-.03.09-.07.11l-4.25 1.96z" fill="#7a361d"/><path fill="#7a361d" d="M29.51 17.29l2.92-1.34-3.01 1.13z"/><path d="M31.03 17.01c.65.02 1-.38 1.58-.32.58.05.91-.27 1.13-.34.22-.07.36.08.39.02.03-.07-.14-.21-.47-.16-.32.05-.41.29-1.12.23-.71-.06-.87.29-1.52.2v.37z" fill="#f1bd51"/><path d="M31.09 17.03h-.06V17c.32.01.57-.08.81-.17.25-.09.49-.18.77-.15.42.04.71-.12.92-.24.08-.04.15-.08.21-.1.14-.04.24-.01.31.02.05.02.07.02.07.01-.05-.1-.2-.18-.45-.14-.11.02-.19.05-.28.09-.18.08-.38.18-.85.14-.35-.03-.56.04-.77.11-.22.07-.42.14-.75.09.33.02.53-.05.74-.12.21-.07.43-.14.78-.11.46.03.66-.06.83-.14.09-.04.17-.08.28-.1.24-.04.41.03.47.11l.01.07c-.02.04-.06.03-.11.01-.06-.02-.16-.06-.29-.02-.06.02-.13.06-.2.1-.21.12-.51.28-.93.24-.28-.03-.52.06-.76.15-.22.09-.45.18-.75.18" fill="#7a361d"/><path d="M31.14 16.89c.62-.03.9-.38 1.46-.31-.45-.15-.8.22-1.46.2v.11z" fill="#7a361d"/><path d="M29.68 17.1l-1.96-4.26s-.03-.08-.09-.06c-.06.02-.02.1-.02.1l1.63 4.4.44-.18z" fill="#f1bd51"/><path d="M29.26 17.27l-1.66-4.39s-.02-.05-.01-.09l.08-.04c.04.02.06.06.06.07l1.96 4.26-.03.01-1.99-4.33-.03.01-.01.08 1.63 4.42z" fill="#7a361d"/><path fill="#7a361d" d="M29.57 17.14l-1.34-2.93 1.12 3.02z"/><path d="M29.29 15.62c.02-.65-.38-1.01-.33-1.58.05-.58-.27-.91-.34-1.13-.07-.22.08-.36.01-.39-.07-.03-.21.15-.16.46.05.32.29.42.23 1.12-.06.71.29.87.21 1.52h.38z" fill="#f1bd51"/><path d="M29.31 15.62h-.03c.01-.32-.08-.57-.17-.81-.09-.25-.18-.48-.15-.77.04-.42-.12-.7-.24-.91-.04-.08-.08-.15-.1-.21a.436.436 0 0 1 .02-.31c.02-.05.02-.07.01-.08-.1.06-.18.21-.14.45.01.11.05.19.09.28.08.18.17.38.14.85-.03.35.04.57.11.77.07.22.14.42.1.74.01-.32-.05-.52-.12-.73-.07-.21-.14-.43-.11-.78.04-.46-.05-.66-.13-.83-.04-.09-.08-.17-.1-.29-.03-.24.03-.41.11-.47l.07-.02c.04.02.02.06.01.11-.02.07-.05.16-.02.29.02.06.06.13.1.2.12.21.28.51.24.93-.03.29.06.52.15.76s.17.5.16.83" fill="#7a361d"/><path d="M29.17 15.51c-.03-.62-.38-.9-.31-1.46-.16.45.21.8.19 1.46h.12z" fill="#7a361d"/><path d="M29.25 17.28l1.96 4.26s.03.08.09.06c.05-.02.02-.1.02-.1l-1.63-4.4-.44.18z" fill="#f1bd51"/><path d="M31.3 21.61c-.09-.02-.11-.06-.11-.07l-1.96-4.26.03-.01 1.95 4.26s.03.07.07.05c.04-.02.01-.08.01-.09l-1.63-4.4 1.66 4.39c.02.04.03.11-.02.13" fill="#7a361d"/><path fill="#7a361d" d="M29.36 17.23l1.33 2.93-1.12-3.02z"/><path d="M29.63 18.75c-.02.65.38 1.01.32 1.58-.05.58.27.91.34 1.13.07.22-.08.36-.02.39.07.03.21-.15.16-.47-.05-.32-.29-.41-.23-1.12.06-.71-.29-.87-.21-1.52l-.36.01z" fill="#f1bd51"/><path d="M30.27 21.87c-.04-.02-.03-.06-.01-.11.02-.06.06-.16.02-.29-.02-.06-.06-.13-.1-.21-.12-.21-.28-.51-.24-.93.03-.29-.06-.52-.15-.76s-.19-.5-.17-.82h.03c-.01.32.08.57.17.81.09.25.18.48.15.77-.04.42.12.71.24.92.04.08.08.15.1.21.04.14.01.24-.01.31-.02.05-.02.07-.01.08.1-.06.18-.21.14-.45-.01-.1-.05-.19-.09-.28-.08-.18-.18-.38-.14-.85.03-.35-.04-.56-.11-.77-.07-.22-.14-.42-.1-.74-.01.32.05.52.12.73.07.21.14.43.11.78-.04.46.05.66.14.84.04.09.08.17.1.28.03.24-.04.41-.11.47l-.08.01z" fill="#7a361d"/><path d="M29.76 18.86c.03.62.38.9.31 1.47.15-.45-.21-.8-.19-1.46l-.12-.01z" fill="#7a361d"/><path d="M29.46 15.28a1.91 1.91 0 1 1 0 3.82 1.91 1.91 0 0 1 0-3.82" fill="#f1bd51"/><path d="M29.46 19.11c-1.06 0-1.93-.86-1.93-1.93 0-1.06.86-1.92 1.93-1.92 1.06 0 1.92.86 1.92 1.92.01 1.07-.86 1.93-1.92 1.93m0-3.82c-1.05 0-1.9.85-1.9 1.89 0 1.05.85 1.9 1.9 1.9 1.04 0 1.89-.85 1.89-1.9.01-1.04-.84-1.89-1.89-1.89" fill="#7a361d"/><path d="M30.67 16.77c-.34-.29-.76-.34-1-.11-.17.23-.15.5.04.78a.11.11 0 0 0-.06.03 1 1 0 0 1-.07-.84c.32-.27.77-.3 1.09.14" fill="#7a361d"/><path d="M30.14 16.69c-.19 0-.23.05-.33.12-.09.07-.13.06-.15.07-.01.02 0 .06.03.04.03-.02.09-.04.17-.12.09-.07.18-.07.27-.07.26 0 .41.22.44.2.04-.01-.14-.24-.43-.24" fill="#7a361d"/><path d="M30.48 16.94c-.19-.2-.54-.22-.69.02h.06c.15-.23.5-.13.53-.03v.03l.1-.02z" fill="#7a361d"/><path d="M30.11 16.79c.07 0 .13.06.13.13s-.06.13-.13.13-.13-.06-.13-.13.06-.13.13-.13" fill="#7a361d"/><path d="M29.79 16.95c.15.13.47.15.69-.01l-.1-.01c-.15.16-.38.15-.53.03v-.03l-.06.02z" fill="#7a361d"/><path d="M30.49 17.01c-.25.19-.5.18-.65.09-.15-.09-.15-.12-.12-.12s.06.03.18.09.3.06.59-.06M29.77 17.45c.04.02.07.07.05.11-.02.05-.07.07-.11.05a.087.087 0 0 1-.06-.08c-.02.03-.07.12-.19.12h-.03l.03.04c.03 0 .12 0 .18-.04.04.06.12.07.18.03.06-.04.07-.13.03-.19a.191.191 0 0 0-.08-.04M29.95 18.07c-.13-.09-.19-.22-.34-.22-.03 0-.09.02-.15.05h-.03l.03.04c.06 0 .15-.07.25-.02.1.06.16.12.24.15M29.91 18.07c-.29-.09-.35-.03-.44-.03h-.03l.03.06c.11 0 .17-.09.44-.03" fill="#7a361d"/><path d="M29.95 18.07c-.32-.03-.22.16-.48.16h-.03l.03.04c.32 0 .17-.17.48-.2M29.73 18.54c0-.15-.12-.26-.26-.26-.15 0-.26.12-.26.26.03-.15.18-.23.33-.2.09.02.16.1.19.2M28.26 16.77c.34-.29.76-.34 1-.11.17.23.15.5-.04.78.02 0 .04.01.06.03a1 1 0 0 0 .07-.84c-.33-.27-.77-.3-1.09.14" fill="#7a361d"/><path d="M28.79 16.69c.19 0 .23.05.32.12.09.07.13.06.15.07.01.02 0 .06-.03.04-.03-.02-.09-.04-.17-.12-.09-.07-.18-.07-.26-.07-.26 0-.41.22-.44.2-.04-.01.13-.24.43-.24" fill="#7a361d"/><path d="M28.45 16.94c.19-.2.54-.22.69.02h-.06c-.15-.23-.5-.13-.53-.03v.03l-.1-.02z" fill="#7a361d"/><path d="M28.82 16.79c-.07 0-.13.06-.13.13s.06.13.13.13.13-.06.13-.13-.06-.13-.13-.13" fill="#7a361d"/><path d="M29.14 16.95c-.15.13-.47.15-.69-.01l.1-.01c.15.16.38.15.53.03v-.03l.06.02z" fill="#7a361d"/><path d="M28.43 17.01c.25.19.5.18.65.09.15-.09.15-.12.12-.12s-.06.03-.18.09-.29.06-.59-.06M29.15 17.45c-.05.02-.07.07-.05.11.02.05.07.07.11.05.03-.01.06-.04.06-.08.01.03.07.12.19.12h.03l-.03.04c-.03 0-.12 0-.18-.04-.04.06-.12.07-.18.03-.06-.04-.07-.13-.03-.19.02-.01.05-.03.08-.04M28.98 18.07c.13-.09.19-.22.34-.22.03 0 .09.02.15.05h.03l-.03.04c-.06 0-.15-.07-.25-.02-.11.06-.17.12-.24.15M29.02 18.07c.29-.09.35-.03.44-.03h.03l-.03.06c-.11 0-.17-.09-.44-.03" fill="#7a361d"/><path d="M28.98 18.07c.32-.03.22.16.48.16h.03l-.03.04c-.32 0-.17-.17-.48-.2M29.2 18.54c0-.15.12-.26.26-.26s.26.12.26.26c-.03-.15-.18-.23-.33-.2a.26.26 0 0 0-.19.2" fill="#7a361d"/></svg>