<svg xmlns="http://www.w3.org/2000/svg" viewBox="0 0 58.93 34.37"><path fill="#180087" d="M0 0h58.93v34.37H0z"/><path fill="#fff" d="M15.5 21.06l.9 2.79 2.74-1.04-1.62 2.44 2.52 1.5-2.92.25.4 2.9-2.02-2.12-2.02 2.12.41-2.9-2.92-.25 2.52-1.5-1.62-2.44 2.74 1.04zM46.51 26.08l.42 1.33 1.31-.5-.77 1.17 1.2.71-1.39.12.19 1.38-.96-1.01-.96 1.01.19-1.38-1.39-.12 1.2-.71-.78-1.17 1.31.5zM38.75 13.81l.43 1.33 1.31-.5-.78 1.16 1.2.71-1.39.12.2 1.39-.97-1.01-.96 1.01.19-1.39-1.38-.12 1.19-.71-.77-1.16 1.31.5zM46.51 5.41l.42 1.33 1.31-.49-.77 1.16 1.2.71-1.39.12.19 1.38-.96-1.01-.96 1.01.19-1.38-1.39-.12 1.2-.71-.78-1.16 1.31.49zM53.4 11.74l.42 1.33 1.31-.49-.78 1.16 1.2.71-1.39.12.2 1.38-.96-1.01-.97 1.01.2-1.38-1.39-.12 1.2-.71-.78-1.16 1.31.49zM49.61 17.96l.33.83.89.06-.68.58.22.87-.76-.47-.76.47.21-.87-.68-.58.89-.06zM12.92 0v5.17H0v5.17h12.92v5.16h5.17v-5.16H31V5.17H18.09V0z"/><path fill="#fff" d="M0 0v1.73L27.54 15.5H31v-1.73L3.47 0z"/><path fill="#fff" d="M27.54 0L0 13.77v1.73h3.47L31 1.73V0z"/><path fill="#ea0020" d="M13.95 0v6.2H0v3.1h13.95v6.2h3.1V9.3H31V6.2H17.05V0z"/><path d="M0 0v1.16l8.02 4.01h2.31L0 0zm28.69 0L18.36 5.17h2.31L31 0h-2.31zM10.34 10.34L0 15.5h2.31l10.33-5.17h-2.3zm10.33 0L31 15.5v-1.16l-8.02-4.01h-2.31z" fill="#ea0020"/></svg>