<svg xmlns="http://www.w3.org/2000/svg" viewBox="0 0 58.92 34.37"><path fill="#681840" d="M17.57 0l6.26 1.91-6.26 1.91 6.26 1.91-6.26 1.91 6.26 1.91-6.26 1.91 6.26 1.91-6.26 1.9 6.26 1.92-6.26 1.91 6.26 1.91-6.26 1.9 6.26 1.91-6.26 1.91 6.26 1.91-6.26 1.91 6.26 1.91-6.26 1.91h41.35V0z"/><path fill="#fff" d="M0 0v34.37h17.57l6.26-1.91-6.26-1.91 6.26-1.91-6.26-1.91 6.26-1.91-6.26-1.91 6.26-1.9-6.26-1.91 6.26-1.91-6.26-1.92 6.26-1.9-6.26-1.91 6.26-1.91-6.26-1.91 6.26-1.91-6.26-1.91 6.26-1.91L17.57 0z"/></svg>