<svg xmlns="http://www.w3.org/2000/svg" viewBox="0 0 58.92 34.37"><path fill="#4eaec4" d="M0 0h58.92v34.37H0z"/><path d="M3.87 24.24c0-.69.62-1.04 1.1-1.04.65 0 1 .39 1 .9 0 .29-.05.47-.19.75l-1.5 3.11c-.05.11-.07.23-.07.41 0 .28.27.51.55.51.26.01.54-.24.54-.52 0-.34-.18-.49-.36-.49-.23 0-.32.09-.32.25 0 .11.05.16.13.16.19 0 .14-.26.14-.26.1.02.18.12.13.24.07.01.14.05.19.11a.32.32 0 0 1-.19.1c.05.15-.01.22-.15.25.03-.06.03-.11.02-.16-.21.06-.52-.03-.52-.39 0-.35.25-.65.7-.57-.11-.05-.17-.16-.18-.28.11.03.21.04.21.04-.05-.09-.13-.18-.12-.36.08.04.16.11.27.07-.17-.34.04-.8.57-.91-.2.23-.29.48-.29.72 0 .8.22.93.22 1.48 0 .23-.12.48-.36.65V29c.16.04.26.12.32.22-.36.1-.88.1-1.16-.01a.861.861 0 0 1-.61-.41c-.07-.13-.19-.58 0-.98.21-.44 1.22-2.56 1.53-3.23.07-.14.11-.29.11-.45 0-.41-.38-.55-.59-.55-.26 0-.51.19-.51.43 0 .15.08.25.2.25.29 0 .27-.24.21-.4.18.08.28.22.25.37.1.01.2.06.29.16-.07.09-.16.15-.29.16.06.23-.1.33-.25.39.05-.17.08-.37-.21-.37-.21 0-.38-.04-.48-.18-.01.19-.02.92-.02.92-.01.28.37.27.61.19-.1.32-.29.49-.72.45.1.04.22.14.22.33 0 .26-.21.54-.35.63l-.07-2.68z" fill="#f5c832"/><path d="M4.01 24.24c0-.69-.62-1.04-1.11-1.04-.65 0-1 .39-1 .9 0 .29.05.47.19.75l1.5 3.11c.05.11.07.23.07.41 0 .28-.27.51-.55.51-.26.01-.54-.24-.54-.52 0-.34.18-.49.36-.49.23 0 .32.09.32.25 0 .11-.05.16-.13.16-.19 0-.14-.26-.14-.26-.1.02-.17.12-.13.24-.07.01-.14.05-.19.11.05.05.11.09.19.1-.04.15.02.22.15.25a.232.232 0 0 1-.02-.16c.21.06.52-.03.52-.39 0-.35-.24-.65-.7-.57.11-.05.17-.16.18-.28a.84.84 0 0 1-.18.04c.05-.09.13-.18.13-.36-.08.04-.16.11-.27.07.17-.34-.04-.8-.57-.91.2.23.29.48.29.72 0 .8-.22.93-.22 1.48 0 .23.12.48.36.65V29a.49.49 0 0 0-.32.22c.36.1.88.1 1.16-.01.32-.04.54-.28.61-.41.07-.13.19-.58 0-.98-.21-.44-1.21-2.56-1.53-3.23a.997.997 0 0 1-.11-.45c0-.41.38-.55.59-.55.25 0 .51.19.51.43 0 .15-.09.25-.21.25-.29 0-.27-.24-.21-.4-.18.08-.28.22-.25.37-.1.01-.2.06-.29.16.07.09.16.15.29.16-.06.23.1.33.25.39-.05-.17-.08-.37.21-.37.21 0 .38-.04.48-.18.01.19.02.92.02.92.01.28-.37.27-.61.19.09.32.28.49.71.44-.12.05-.23.15-.23.34 0 .26.21.54.35.63l.07-2.68zM3.94 31.67s.33.27.44.14c.18-.22-.55-1.32-.55-1.71 0-.64.42-.81.95-.9.35-.06.93.03.93.03-.11.14-.18.19-.36.2.2.1.41.33.41.69 0 .55-.23.77-.23 1.39 0 .34.28.78.28.78-.5-.05-.74-.51-.6-.88a.263.263 0 0 0-.21.06c-.04-.1.02-.22.1-.32-.06-.03-.11-.01-.21.01.01-.1.07-.22.23-.32-.45.11-.72-.19-.72-.52 0-.24.17-.42.34-.42.06 0 .14.02.18.06.03-.07.01-.16-.02-.22.12.03.2.1.15.26.09.01.17.04.22.1-.05.07-.13.11-.22.1.07.14-.01.22-.12.29 0 0 .07-.29-.11-.29-.08 0-.16.03-.16.15 0 .11.09.25.31.24.21-.01.38-.15.38-.48 0-.31-.25-.47-.58-.48-.3-.01-.53.15-.53.46 0 .41.6 1.35.6 1.71 0 .28-.25.43-.49.43-.31 0-.58-.31-.58-.31l.17-.25z" fill="#f5c832"/><path d="M3.94 31.67s-.33.27-.44.14c-.18-.22.55-1.32.55-1.71 0-.64-.42-.81-.95-.9-.35-.06-.93.03-.93.03.11.14.18.19.36.2-.2.1-.41.33-.41.69 0 .55.22.77.22 1.39 0 .34-.28.78-.28.78.5-.05.74-.51.6-.88.08-.01.15.01.21.06.04-.1-.02-.22-.1-.32.06-.03.11-.01.21.01-.01-.1-.07-.22-.23-.32.45.11.72-.19.72-.52 0-.24-.17-.42-.34-.42-.05 0-.14.02-.18.06-.03-.07-.01-.16.02-.22-.12.03-.2.1-.15.26-.09.01-.17.04-.22.1.05.07.13.11.22.1-.07.14.01.22.12.29 0 0-.07-.29.11-.29.08 0 .16.03.16.15 0 .11-.09.25-.31.24-.21-.01-.38-.15-.38-.48 0-.31.25-.47.58-.48.3-.01.53.15.53.46 0 .41-.6 1.35-.6 1.71 0 .28.25.43.49.43.31 0 .58-.31.58-.31l-.16-.25zM3.87 12.2c0-.69.62-1.04 1.1-1.04.65 0 1 .39 1 .9 0 .29-.05.47-.19.75l-1.5 3.11c-.05.11-.07.23-.07.41 0 .28.27.51.55.51.26.01.54-.24.54-.52 0-.34-.18-.49-.36-.49-.23 0-.32.09-.32.25 0 .11.05.16.13.16.19 0 .14-.26.14-.26.1.02.18.12.13.24.07.01.14.05.19.11a.32.32 0 0 1-.19.1c.05.15-.01.22-.15.25.03-.06.03-.11.02-.16-.21.06-.52-.04-.52-.39 0-.35.25-.65.7-.57-.11-.05-.17-.16-.18-.28.11.03.21.04.21.04-.05-.1-.13-.18-.12-.36.08.04.16.11.27.06-.17-.34.04-.8.57-.91-.2.23-.29.48-.29.72 0 .8.22.93.22 1.48 0 .23-.12.48-.36.65v-.01c.16.04.26.12.32.22-.36.1-.88.1-1.16-.01a.861.861 0 0 1-.61-.41c-.07-.13-.19-.57 0-.98.21-.44 1.22-2.56 1.53-3.23.07-.14.11-.29.11-.45 0-.41-.38-.55-.59-.55-.26 0-.51.19-.51.44 0 .15.08.24.2.24.29 0 .27-.24.21-.4.18.08.28.22.25.38.1.01.2.06.29.16-.07.09-.16.15-.29.16.06.23-.1.33-.25.39.05-.17.08-.37-.21-.37-.21 0-.38-.04-.48-.18-.01.19-.02.92-.02.92-.01.28.37.27.61.19-.09.32-.28.49-.71.44.11.05.22.14.22.33 0 .26-.21.54-.35.63l-.08-2.67z" fill="#f5c832"/><path d="M4.01 12.2c0-.69-.62-1.04-1.11-1.04-.65 0-1 .39-1 .9 0 .29.05.47.19.75l1.5 3.11c.05.11.07.23.07.41 0 .28-.27.51-.55.51-.26.01-.54-.24-.54-.52 0-.34.18-.49.36-.49.23 0 .32.09.32.25 0 .11-.05.16-.13.16-.19 0-.14-.26-.14-.26-.1.02-.17.12-.13.24-.07.01-.14.05-.19.11.05.05.11.09.19.1-.04.15.02.22.15.25a.232.232 0 0 1-.02-.16c.21.06.52-.04.52-.39 0-.35-.24-.65-.7-.57.11-.05.17-.16.18-.28a.84.84 0 0 1-.18.04c.05-.1.13-.18.13-.36-.11.04-.19.11-.29.06.17-.34-.04-.8-.57-.91.2.23.29.48.29.72 0 .8-.22.93-.22 1.48 0 .23.12.48.36.65v-.01a.49.49 0 0 0-.32.22c.36.1.88.1 1.16-.01.32-.04.54-.28.61-.41.07-.13.19-.57 0-.98-.21-.44-1.21-2.56-1.53-3.23a.997.997 0 0 1-.11-.45c0-.41.38-.55.59-.55.25 0 .51.19.51.44 0 .15-.09.24-.21.24-.29 0-.27-.24-.21-.4-.18.08-.28.22-.25.38-.1.01-.2.06-.29.16.07.09.16.15.29.16-.06.23.1.33.25.39-.05-.17-.08-.37.21-.37.21 0 .38-.04.48-.18.01.19.02.92.02.92.01.28-.37.27-.61.19.09.32.28.49.71.44-.11.05-.22.14-.22.33 0 .26.21.54.35.63l.08-2.67z" fill="#f5c832"/><path d="M4.01 10.14c0 .69-.62 1.04-1.11 1.04-.65 0-1-.39-1-.9 0-.29.05-.47.19-.75l1.5-3.11c.05-.11.07-.23.07-.41 0-.28-.27-.51-.55-.51-.27-.01-.55.24-.55.52 0 .34.18.49.36.49.23 0 .32-.09.32-.25 0-.11-.05-.16-.13-.16-.19 0-.14.26-.14.26-.1-.02-.17-.12-.13-.24a.311.311 0 0 1-.19-.11.32.32 0 0 1 .19-.1c-.05-.15.01-.22.15-.25-.03.06-.03.11-.02.16.21-.06.52.04.52.39 0 .35-.24.65-.7.57.11.05.17.16.18.28-.09-.03-.19-.04-.19-.04.06.1.13.18.13.36-.09-.04-.17-.11-.27-.06.17.34-.04.8-.57.91.2-.23.29-.48.29-.72 0-.8-.22-.93-.22-1.48 0-.23.12-.48.36-.65v.01c-.17-.06-.27-.13-.33-.24.36-.1.88-.1 1.16.01.32.04.54.29.61.41.07.13.19.58 0 .98-.21.44-1.21 2.56-1.53 3.23-.07.14-.11.29-.11.45 0 .41.38.55.59.55.25 0 .51-.19.51-.43 0-.15-.09-.25-.21-.25-.29 0-.27.24-.21.4-.18-.08-.28-.22-.25-.38a.45.45 0 0 1-.29-.16c.07-.09.16-.15.29-.16-.06-.23.1-.33.25-.39-.04.18-.07.38.22.38.21 0 .38.04.48.18.01-.18.02-.92.02-.92.02-.28-.36-.27-.6-.19.09-.32.28-.49.71-.45-.11-.04-.22-.13-.22-.33 0-.26.21-.54.35-.63l.07 2.69z" fill="#f5c832"/><path d="M3.87 10.14c0 .69.62 1.04 1.1 1.04.65 0 1-.39 1-.9 0-.29-.05-.47-.19-.75l-1.5-3.11c-.04-.11-.06-.23-.06-.41 0-.28.27-.51.55-.51.26-.01.54.24.54.52 0 .34-.18.49-.36.49-.23 0-.32-.09-.32-.25 0-.11.05-.16.13-.16.19 0 .14.26.14.26.1-.02.18-.12.13-.24.07-.01.14-.05.19-.11a.32.32 0 0 0-.19-.1c.05-.15-.01-.22-.15-.25.03.06.03.11.02.16-.19-.06-.51.03-.51.39 0 .35.25.65.7.57-.1.05-.16.16-.17.28a.84.84 0 0 1 .18-.04c-.06.1-.13.18-.13.36.08-.04.16-.11.27-.07-.17.34.04.8.57.91-.19-.23-.28-.47-.28-.72 0-.8.22-.93.22-1.48 0-.23-.12-.48-.36-.65v.01a.49.49 0 0 0 .32-.22c-.36-.1-.88-.1-1.16.01-.32.03-.54.28-.61.4-.07.13-.19.58 0 .98.21.45 1.22 2.56 1.53 3.23.07.14.11.29.11.45 0 .41-.38.55-.59.55-.26 0-.51-.19-.51-.43 0-.15.08-.25.2-.25.29 0 .27.24.21.4.18-.08.28-.22.25-.38.1-.01.2-.06.29-.16a.35.35 0 0 0-.29-.15c.06-.23-.1-.33-.25-.39.05.17.08.37-.21.37-.21 0-.38.04-.48.18-.01-.19-.03-.92-.03-.92-.01-.28.37-.27.61-.19-.09-.32-.28-.49-.71-.44a.33.33 0 0 0 .22-.33c0-.26-.21-.54-.35-.63l-.07 2.68zM4.01 22.18c0 .69-.62 1.04-1.11 1.04-.65 0-1-.39-1-.9 0-.29.05-.47.19-.75l1.5-3.11c.05-.11.07-.23.07-.41 0-.28-.27-.51-.55-.51-.26-.01-.54.24-.54.52 0 .34.18.5.36.5.23 0 .32-.09.32-.25 0-.11-.05-.16-.13-.16-.19 0-.14.26-.14.26-.1-.02-.17-.12-.13-.24a.368.368 0 0 1-.19-.11.32.32 0 0 1 .19-.1c-.04-.15.02-.22.15-.25-.03.06-.03.11-.02.16.21-.06.52.04.52.39 0 .35-.24.65-.7.57.11.05.17.16.18.28a.84.84 0 0 0-.18-.04c.05.09.13.18.13.36-.08-.04-.16-.11-.27-.06.17.33-.04.8-.57.91.2-.23.29-.48.29-.72 0-.8-.22-.93-.22-1.48 0-.23.12-.48.36-.65v.01a.49.49 0 0 1-.32-.22c.36-.1.88-.1 1.16.01.32.04.54.28.61.41.07.13.19.58 0 .98-.21.45-1.21 2.57-1.53 3.23-.07.14-.11.29-.11.46 0 .41.38.55.59.55.25 0 .51-.19.51-.43 0-.15-.09-.25-.21-.25-.29 0-.27.24-.21.4-.18-.08-.28-.22-.25-.38a.45.45 0 0 1-.29-.16c.07-.09.16-.15.29-.16-.06-.23.1-.33.25-.39-.05.17-.08.37.21.37.21 0 .38.04.48.18.01-.19.02-.92.02-.92.01-.27-.37-.27-.61-.19.09-.31.28-.49.71-.44a.33.33 0 0 1-.22-.33c0-.26.21-.54.35-.63l.06 2.65z" fill="#f5c832"/><path d="M3.87 22.18c0 .69.62 1.04 1.1 1.04.65 0 1-.39 1-.9 0-.29-.05-.47-.19-.75l-1.5-3.11a.945.945 0 0 1-.07-.41c0-.28.27-.51.55-.51.26-.01.54.24.54.52 0 .34-.18.5-.36.5-.23 0-.32-.09-.32-.25 0-.11.05-.16.13-.16.19 0 .14.26.14.26.1-.02.18-.12.13-.24.07-.02.14-.05.19-.11a.32.32 0 0 0-.19-.1c.05-.15-.01-.22-.15-.25.03.06.03.11.02.16-.21-.06-.52.04-.52.39 0 .35.25.65.7.57-.11.05-.17.16-.18.28.11-.05.21-.05.21-.05-.05.09-.13.18-.12.36.08-.04.16-.11.27-.06-.17.33.04.8.57.91-.2-.23-.29-.48-.29-.72 0-.8.22-.93.22-1.48 0-.23-.12-.48-.36-.65v.01a.49.49 0 0 0 .32-.22c-.36-.1-.88-.1-1.16.01-.32.04-.54.28-.61.41-.07.13-.19.58 0 .98.21.45 1.22 2.57 1.53 3.23.07.14.11.29.11.46 0 .41-.38.55-.59.55-.26 0-.51-.19-.51-.43 0-.15.08-.25.2-.25.29 0 .27.24.21.4.18-.08.28-.22.25-.38.1-.01.2-.06.29-.16a.387.387 0 0 0-.29-.16c.06-.23-.1-.33-.25-.39.05.17.08.37-.21.37-.21 0-.38.04-.48.18-.01-.19-.02-.92-.02-.92-.01-.27.37-.27.61-.19-.09-.31-.28-.49-.71-.44a.33.33 0 0 0 .22-.33c0-.26-.21-.54-.35-.63l-.08 2.66zM3.94 2.7s.33-.27.44-.14c.18.22-.55 1.32-.55 1.71 0 .64.42.81.95.9.35.06.93-.02.93-.02-.11-.14-.18-.19-.36-.2.2-.1.41-.33.41-.69 0-.55-.23-.77-.23-1.39 0-.34.28-.78.28-.78-.5.05-.74.51-.6.88a.26.26 0 0 1-.22-.06c-.04.1.02.22.1.32-.06.03-.11.01-.2-.01.01.1.07.21.23.32-.45-.11-.72.2-.72.52 0 .25.17.42.34.42.06 0 .14-.02.18-.06.02.08.01.17-.03.24.12-.03.2-.1.15-.26.09-.01.17-.04.22-.1a.235.235 0 0 0-.22-.1c.07-.14-.01-.22-.12-.29 0 0 .07.29-.11.29-.08 0-.16-.03-.16-.15 0-.11.09-.25.31-.24.21.01.38.15.38.48 0 .31-.25.47-.58.48-.3.01-.53-.15-.53-.46 0-.41.6-1.35.6-1.71 0-.28-.25-.43-.49-.43-.31 0-.58.31-.58.31l.18.22z" fill="#f5c832"/><path d="M3.94 2.7s-.33-.27-.44-.14c-.18.23.55 1.33.55 1.72 0 .64-.42.81-.95.9-.35.06-.93-.03-.93-.03.11-.15.18-.19.36-.2-.2-.1-.41-.33-.41-.69 0-.55.22-.77.22-1.39 0-.34-.28-.78-.28-.78.5.05.74.51.6.88.08.01.15-.01.21-.07.04.1-.02.22-.1.32.08.04.13.02.22 0-.01.1-.07.21-.23.32.45-.11.72.2.72.52 0 .25-.17.42-.34.42-.05 0-.14-.02-.18-.06-.02.08-.01.17.03.24-.12-.03-.2-.1-.15-.26a.376.376 0 0 1-.22-.1c.05-.07.13-.11.22-.1-.07-.15.01-.23.12-.29 0 0-.07.29.11.29.08 0 .16-.03.16-.15 0-.11-.09-.25-.31-.24-.21 0-.38.14-.38.48 0 .31.25.47.58.48.3.01.53-.15.53-.46 0-.41-.6-1.35-.6-1.71 0-.28.25-.43.49-.43.31 0 .58.31.58.31l-.18.22z" fill="#f5c832"/><path d="M3.3 22.12c0-.06-.12-.02-.21 0s-.14.06-.14.12.12.03.21.01c.08-.03.14-.07.14-.13" fill="#4eaec4"/><path d="M3 22.3h-.03l-.06-.06c-.01-.07.06-.13.17-.16.07-.02.13-.03.17-.03h.03l.06.06c.01.07-.06.14-.17.16-.07.02-.13.03-.17.03" fill="#4eaec4"/><path d="M30.77 23.36c-4.62.02-7.86-3.68-8.15-7.38 0 0-.18-.07-.21.09-.06.39.11 1.6.04 1.51-.11-.15-.95-2.41-1.11-2.17-.2.33.94 2.9.88 2.97-.23.28-1.55-2.51-1.66-2.3-.4.78 1.63 3.3 1.61 3.41-.05.34-1.54-1.36-1.67-1.18-.28.41 1.62 1.9 1.72 2.02.29.34-1.04-.6-1.08-.28-.03.27.65.81 1.05 1.04.4.23.54.16.65.36.09.15-.76-.1-.74.09.05.37.93.29 1.07.46.13.17-.6.04-.57.18.05.24.8.28.81.38.01.11-.47.03-.44.23.03.17.76.13.94.25.18.12-.66.02-.01.34.65.33 1.4.69 2.42.89 1.02.2 1.54-.02 1.58-.09.04-.07-.48.06-1.21-.08-.73-.13-1.7-.59-2.09-.82-.13-.07.39-.22.28-.36-.11-.14-.52.02-.68-.18-.1-.13.19-.13.19-.21-.01-.08-.57-.21-.67-.35-.1-.14.25-.12.27-.21.01-.07-.35-.19-.38-.28-.03-.09.41-.07.2-.18-.21-.12-.8-.27-.91-.48-.11-.21.45.03.3-.17-.1-.13-.63-.36-.75-.67-.08-.21.38-.03.38-.16.01-.21-.27-.08-.36-.69-.03-.2.36-.07.36-.07l.05-.11s.45.25 1.04.93c.58.68.75 1.32 1.3 1.79.27.22.27-.09.87.28s.85.64 1.47 1.17c.09.08.49-.07 1.7.18.65.14.78.48.78.48 0 .01.36-.22.53-.48.07-.1.14 0 .16-.02.12-.05.04-.13.04-.13" fill="#f5c832"/><path d="M27.11 24.39c-.24 0-.5-.03-.78-.08-1.06-.21-1.85-.61-2.43-.89-.2-.1-.28-.17-.27-.23.01-.06.1-.08.2-.1.03-.01.08-.02.1-.03-.09-.04-.27-.06-.45-.08-.27-.03-.51-.06-.53-.18v-.02l.02-.08c.05-.07.17-.09.27-.1.05-.01.14-.02.15-.04-.01-.02-.15-.05-.25-.08-.24-.06-.53-.13-.57-.3.05-.11.16-.11.33-.12.09 0 .24-.01.26-.03-.05-.07-.22-.09-.39-.12-.31-.05-.66-.11-.69-.36.09-.18.27-.11.47-.09.08.01.15.01.21.01 0-.1-.06-.12-.18-.17-.1-.04-.22-.08-.4-.18-.38-.22-1.11-.77-1.07-1.07 0-.04.03-.1.13-.1.16 0 .47.16.72.28.12.07.27.14.3.14-.07-.04-.14-.1-.25-.19-.88-.76-1.75-1.57-1.53-1.89.17-.04.43.2.84.57.31.28.7.63.81.63 0-.04-.12-.22-.25-.41-.54-.78-1.66-2.41-1.35-3.03.14-.03.29.23.69.92.32.55.81 1.39.96 1.39.01-.05-.13-.41-.26-.76-.41-1.09-.74-2.01-.61-2.22.18-.04.45.51.91 1.58.1.23.18.44.23.53-.02-.08-.04-.24-.05-.39-.03-.37-.07-.84-.03-1.06.01-.09.07-.14.16-.14.05 0 .09.02.1.02.31 3.64 3.41 7.38 8.11 7.38.06.02.11.06.1.12v.02l-.04.07-.05-.03-.05.02c-.21.29-.56.53-.6.53-.05-.05-.2-.35-.79-.48-.66-.14-1.08-.15-1.33-.15h-.22c-.09 0-.14 0-.17-.03l-.36-.31c-.39-.34-.64-.56-1.11-.86-.28-.17-.42-.19-.52-.19h-.12c-.07 0-.14-.02-.24-.1-.31-.26-.51-.58-.71-.92-.17-.28-.34-.57-.6-.87-.58-.67-1.03-.92-1.03-.93l-.01.09c-.04.02-.16-.02-.26-.02a.2.2 0 0 0-.09.02c.04.4.16.49.25.56.06.04.11.08.1.18-.01.09-.11.09-.16.09h-.13c-.07 0-.09.01-.1.02.07.23.33.4.51.52.11.07.2.13.24.18l.01.02.01.08c-.02.04-.06.04-.1.04l-.17.01c.02.17.31.29.55.38.12.05.23.09.3.13.04.02.08.05.07.09-.01.05-.07.06-.14.08-.04.01-.11.02-.11.04.01.03.12.09.19.13.12.06.2.11.19.16-.01.06-.09.09-.16.11-.04.01-.11.03-.12.05.06.1.25.17.4.23.19.08.28.11.29.17.01.06-.06.09-.12.11-.03.01-.09.04-.09.05.09.13.24.13.38.13.13 0 .25 0 .31.08l.02.08c-.01.07-.11.13-.2.19-.04.03-.11.07-.11.09.36.2 1.34.68 2.08.81.24.04.48.06.75.06.1 0 .19 0 .26-.01h.12c.06 0 .09 0 .1.03-.05.1-.33.22-.85.22m-4.82-2.88c-.1 0-.13.02-.14.03.02.21.36.27.64.32.2.03.36.06.42.14h.01v.07c-.03.06-.14.07-.32.07-.09 0-.25.01-.27.04.03.12.31.19.51.24.2.05.29.07.3.14.01.08-.1.09-.2.11-.09.01-.2.03-.23.07 0 .11.27.15.46.17.19.03.38.05.46.1l.04.07c-.01.04-.06.05-.14.07-.04.01-.13.03-.14.04 0 0 0 .04.24.16.57.29 1.36.68 2.41.89.27.05.53.08.77.08.5 0 .75-.12.78-.15l-.16.03c-.07 0-.16.01-.27.01-.27 0-.52-.02-.76-.07-.75-.14-1.74-.62-2.1-.83-.04-.11.02-.14.11-.2.07-.04.16-.1.17-.14-.05-.08-.15-.08-.26-.08-.15 0-.32-.01-.42-.13l-.03-.09c.01-.05.07-.08.13-.1.02-.01.07-.03.08-.04-.01-.02-.15-.07-.24-.1-.18-.07-.36-.14-.42-.22l-.02-.09c.02-.05.09-.07.17-.09.04-.01.11-.03.12-.05-.01-.02-.1-.06-.15-.09-.13-.07-.21-.11-.22-.17.03-.09.1-.1.16-.12.03-.01.09-.02.09-.03-.11-.05-.21-.09-.33-.14-.26-.1-.55-.22-.63-.37l-.01-.02v-.08c.04-.06.13-.05.21-.04h.08c-.01-.07-.09-.13-.2-.19-.2-.14-.46-.31-.53-.52a.114.114 0 0 1 0-.1c.03-.04.1-.05.15-.05h.13c.04 0 .09 0 .09-.02 0-.06-.02-.08-.08-.13-.09-.07-.23-.17-.28-.55-.01-.04 0-.08.02-.1.08-.08.37-.01.38 0l.01-.09c.07 0 .52.25 1.09.93.26.31.44.6.61.88.2.34.39.65.69.9.08.07.13.08.19.08h.12c.11 0 .26.03.55.21.48.29.73.52 1.12.86l.36.31c.02.02.09.02.12.02h.22c.26 0 .68.02 1.35.15.66.14.8.48.81.5 0-.04.32-.26.47-.49.03-.04.06-.06.1-.06l.07.02v-.1l-.03.03c-4.73 0-7.86-3.76-8.15-7.39h-.05c-.05 0-.08.02-.09.08-.03.21.01.69.03 1.04.03.41.03.47.01.49-.1-.05-.18-.25-.32-.6-.22-.51-.66-1.57-.79-1.58-.12.2.34 1.43.62 2.16.26.68.29.78.26.82l-.07.03c-.18 0-.52-.56-1.01-1.42-.24-.42-.52-.89-.59-.91-.28.57.83 2.18 1.36 2.95.24.34.28.41.28.45v.03l-.08.05c-.13 0-.41-.25-.86-.65-.3-.27-.64-.59-.74-.59-.22.31 1.08 1.43 1.51 1.8.11.09.18.16.2.18.04.05.06.08.05.11-.09.02-.19-.02-.37-.12-.23-.11-.54-.28-.69-.28-.06 0-.06.03-.06.04-.03.23.59.75 1.04 1 .17.1.29.14.38.17.13.05.21.07.28.2-.03.21-.18.1-.34.09a.545.545 0 0 0-.24-.05M33.87 24.73c-.17-.03-.15.1-.15.1.01.17-.11.34-.25.38-.11.03-.05.11-.09.18l-.45-.02c-.71.39-1.6.52-2.67.4 0 0-.22.17-.42.35-.2.18-.34.22-.38.36-.04.14.11.22.29.22.18.01.43-.17.43-.17s.03.14.2.16c.17.01.48-.1.48-.1s.26.12.46.09.37-.15.37-.15.05.23.25.24c.2.01.5-.25.5-.25s.15.17.33.15c.18-.02.4-.23.4-.23s.22.1.44.03c.21-.06.42-.28.42-.28s.19.16.36.1c.17-.06.28-.29.28-.29s.46.18.76.04c.21-.1.16-.44.16-.44s1.25.18 1.2-.64c-.03-.09-2.04-.06-2.92-.23" fill="#f5c832"/><path d="M31.94 26.8h-.01c-.18-.01-.25-.18-.27-.24-.02.05-.17.13-.33.16-.24-.01-.46-.09-.48-.1.01.01-.26.11-.44.11-.17-.01-.24-.11-.26-.17-.02.05-.22.18-.39.18-.15 0-.26-.05-.31-.11a.16.16 0 0 1-.02-.15c.03-.11.11-.16.21-.23.05-.04.11-.08.18-.14.2-.18.43-.35.43-.35.27.02.52.04.75.04.75 0 1.4-.15 1.93-.44l.46.02c-.02-.09-.01-.15.08-.18.13-.03.23-.2.22-.34 0 0-.01-.06.03-.1.02-.03.06-.04.11-.04.54.1 1.36.13 2.03.16.89.03.95.05.95.11.01.18-.04.33-.14.44-.2.21-.55.25-.81.25-.14 0-.24-.01-.27-.02.04.03.07.33-.15.43-.24.12-.72-.01-.78-.03.02.03-.1.24-.26.29-.16.05-.36-.08-.39-.1.01.03-.18.23-.39.28-.18.05-.43-.03-.46-.03.01.01-.2.21-.39.24h-.01a.51.51 0 0 1-.35-.15c.01-.01-.27.21-.47.21m-.28-.3c.06.03.1.23.27.23l.01.04v-.03c.18 0 .47-.24.47-.24.05.01.17.14.31.14.2-.02.41-.23.41-.23.03 0 .16.05.31.05.05 0 .1-.01.14-.02.2-.06.4-.27.4-.27.03.01.18.1.31.1.22-.06.33-.28.33-.29.05-.02.27.07.51.07.1 0 .19-.02.27-.05.19-.09.14-.4.14-.4.04-.04.15-.02.32-.02.25 0 .58-.04.76-.23.09-.1.13-.23.12-.39-.04-.01-.47-.03-.89-.04-.66-.03-1.49-.06-1.98-.15l-.1.01c0 .23-.12.43-.28.47-.05.01-.05.03-.05.07 0 .03 0 .06-.02.09h-.48c-.69.39-1.6.52-2.67.41 0 .01-.21.17-.4.34-.07.06-.13.1-.19.14-.1.07-.16.11-.18.2-.01.04-.01.07.01.09.04.05.13.08.25.09.18 0 .4-.16.4-.16.06.03.08.14.22.15.19 0 .46-.1.46-.1.03 0 .23.09.41.09.25-.04.41-.15.41-.16" fill="#f5c832"/><path d="M31.21 23.87s.36-.14 1.01-.27c1.21-.25 1.63-.17 1.71-.24.96-1.06 1.66-1.15 2.35-1.42.55-.46.73-1.13 1.32-1.81.58-.68.93-.73.93-.73l.08.15s.31-.24.3-.04c-.03.3-.27.59-.26.8.01.14.43-.06.39.07-.1.32-.44.51-.53.64-.15.2.38-.07.28.14-.11.21-.64.42-.85.55-.13.08.14.1.11.19-.03.09-.58.3-.57.37.01.09.15.1.08.18-.12.13-.57.15-.58.22-.01.08.09.16-.01.29-.16.2-.29 0-.35.16-.04.09.26.28.06.32-.28.05-.49.17-.72.32-.09.06-.5.13-.73.19-.15.04-1.01.15-.97.22.03.07.58.06 1.71-.14.49-.09.78-.15 1.55-.39.88-.28-.23-.3-.05-.42s.95-.06.97-.23c.03-.2-.42-.14-.41-.24.01-.1.93-.1.98-.34.03-.14-.53-.04-.39-.21.13-.17.87-.2.89-.52.02-.19-.6.04-.52-.11.03-.06.28-.13.53-.3.38-.27.99-.73.96-1-.04-.33-1.27.76-1.16.34.04-.15 2-1.7 1.68-2.08-.22-.26-1.62 1.42-1.67 1.08-.01-.11 2.19-2.6 1.78-3.38-.1-.21-1.76 2.97-1.99 2.7-.06-.08 1.41-3.13 1.18-3.44-.11-.15-.35.36-.6.92-.25.57-.53 1.19-.58 1.26-.06.08.07-1.19.01-1.59-.02-.16-.21-.09-.21-.09-.26 3.98-4.08 6.94-7.13 7.38-.79.11-1.05.49-1.91.98-.29.16-.74.24-1.13.46-.39.22-.66.54-.79.75-.06.1.03.39.11.42.08.04.08-.21.17-.26.09-.04.09.09.2.08.11-.01.23-.11.23-.11s2.15 0 3.07-.03c.17-.01.44-.07.56-.2-.04-.1-.28-.04-.44-.04-.65-.05-1.5-.01-2.11-.04 0 0-.1-.01-.09-.1 0-.04.39-.46.39-.46h-.3s-.18.11-.27.12c-.09.01-.13-.05-.09-.08.44-.37 1.82-.99 1.82-.99" fill="#f5c832"/><path d="M28.08 25.99h-.03c-.07-.03-.11-.14-.12-.18-.03-.1-.05-.22-.01-.29.15-.23.44-.55.81-.76.21-.12.43-.19.64-.26.18-.06.35-.12.49-.2.28-.16.49-.3.68-.43.4-.27.7-.47 1.24-.55 3.23-.46 6.86-3.52 7.1-7.34.07-.08.26-.05.27.09.03.21.01.68-.01 1.06-.01.24-.02.49-.01.52 0-.07.23-.59.45-1.08l.08-.18c.3-.66.45-.97.58-.97h.02l.06.04c.15.2-.29 1.29-.83 2.59-.18.42-.34.81-.34.86.17-.01.74-.95 1.17-1.63.49-.8.69-1.1.78-1.1.36.64-.86 2.25-1.45 3.02-.14.19-.28.37-.29.4.1-.02.4-.26.66-.49.36-.32.73-.65.91-.65h.02l.07.04c.23.27-.5.99-1.27 1.71-.19.18-.39.37-.4.4.09.05.29-.06.48-.18.35-.21.67-.36.69-.18.03.21-.3.56-.97 1.03-.13.09-.26.15-.36.2-.07.03-.15.07-.16.09h.17c.14-.01.28-.02.33.03l.02.07c-.02.22-.31.31-.57.39-.15.05-.29.09-.33.15 0 .04.1.06.16.06.1.01.19.02.23.07-.02.23-.37.29-.67.34-.13.02-.28.05-.3.07.01.01.09.03.14.04.13.03.3.06.28.2-.02.12-.26.15-.54.17-.18.02-.38.04-.45.08.01.01.09.03.15.05.13.04.26.07.26.16 0 .05-.04.12-.37.22-.78.25-1.06.31-1.55.39-.88.15-1.31.18-1.49.18-.2 0-.25-.03-.26-.06.02-.09.17-.12.7-.21.13-.02.25-.04.3-.05.07-.02.17-.04.26-.06.19-.04.41-.09.46-.13.23-.15.44-.27.74-.32.05-.04.01-.09-.02-.12-.04-.06-.09-.12-.07-.18.02-.07.06-.09.13-.09l.08.04V23c.04 0 .09-.01.15-.08s.04-.12.02-.17c-.01-.03-.02-.06-.02-.1.01-.06.1-.08.25-.12.13-.03.29-.06.34-.13-.05-.06-.08-.09-.09-.15-.01-.06.06-.09.28-.2.1-.05.28-.14.29-.18.01-.02-.04-.04-.07-.05-.04-.02-.08-.04-.08-.09v-.02l.05-.05c.06-.04.15-.09.25-.14.23-.12.52-.26.59-.4-.05-.03-.09-.03-.12-.02-.04.01-.08.01-.1.01l-.07-.03c-.02-.03.01-.07.03-.1.03-.05.09-.09.15-.15.14-.12.31-.28.38-.48-.05 0-.09.01-.13.01-.16.03-.26-.01-.26-.07-.01-.11.05-.24.12-.38.07-.14.13-.28.14-.43-.08-.04-.19.02-.24.07l-.13-.16c0 .02-.33.11-.88.74-.26.3-.44.59-.61.88-.21.35-.4.67-.71.93-.13.05-.26.1-.38.14-.58.2-1.19.41-1.97 1.28-.05.04-.13.05-.3.06-.26.02-.69.04-1.43.2-.64.13-1 .27-1 .27-.01.01-1.38.62-1.84.97.14 0 .28-.07.33-.1l.32-.01c-.15.25-.34.46-.35.5l.06.1v-.03c.61.04 1.46-.01 2.11.04l.11-.01c.13-.02.32-.06.36.07-.13.17-.43.24-.59.24-.91.03-3.02.03-3.07.03.01 0-.11.1-.23.1-.07 0-.1-.04-.13-.06-.08-.01-.11.05-.12.1-.08.09-.1.16-.15.16M39 16c-.04 0-.07.01-.07.01-.23 3.82-3.88 6.91-7.14 7.38-.53.08-.82.27-1.21.54-.19.13-.41.28-.68.43-.14.08-.32.14-.5.2-.21.07-.43.14-.63.26-.36.2-.64.51-.78.74-.02.04-.02.14.01.23.03.08.06.13.08.14.01-.01.03-.06.04-.09.02-.07.05-.14.1-.17.09-.01.12.02.14.04.02.03.04.04.07.04.1 0 .21-.1.21-.1.02-.01 2.17-.01 3.09-.04.15 0 .42-.07.53-.18-.02.01-.06 0-.13 0-.05 0-.11.01-.17.01l-.12.01c-.66-.05-1.51-.01-2.11-.04-.01 0-.06-.01-.1-.05a.169.169 0 0 1-.03-.1c0-.03.14-.2.4-.48l-.28.06c.01 0-.17.1-.27.11-.08.01-.13-.02-.14-.06l-.01-.02.03-.05c.46-.35 1.8-.96 1.85-.98 0 0 .37-.14 1.01-.28.74-.15 1.18-.18 1.44-.2.14-.01.23-.02.26-.04.79-.88 1.4-1.09 2-1.29.12-.04.25-.09.37-.13.29-.25.49-.57.69-.91.17-.29.35-.58.61-.89.59-.68.94-.74.95-.75l.11.16c-.01-.03.13-.13.22-.13l.07.03c.02.02.03.05.02.09-.01.16-.09.32-.15.45s-.12.25-.11.34c.09.02.14.01.18 0 .04-.01.09-.01.12-.01l.08.03c-.06.29-.25.45-.39.57-.06.05-.11.1-.14.14.02.02.05.02.08.01.04-.01.08-.01.12-.01h.02l.07.04c.02.04 0 .08-.01.1-.08.16-.37.3-.62.43-.1.05-.19.09-.25.13.08.06.15.1.13.17-.01.06-.12.11-.33.22-.1.05-.23.12-.24.14.01.02.03.04.05.06l.05.07c-.1.14-.26.18-.4.21-.08.02-.18.04-.2.06.04.12.07.2-.01.3-.08.1-.15.11-.2.11l-.08-.01c-.02 0-.04 0-.06.05-.01.02.03.08.06.11.05.06.09.12.07.17-.01.03-.04.05-.09.06-.28.05-.49.17-.71.31-.07.04-.27.09-.49.14-.09.02-.18.04-.26.06-.05.01-.17.03-.3.05-.19.03-.52.08-.62.12.08 0 .3.06 1.65-.17.49-.09.77-.14 1.54-.39.32-.1.32-.15.32-.16 0-.03-.15-.07-.21-.09-.13-.04-.19-.06-.2-.11v-.02l.04-.04c.09-.06.28-.08.48-.09.19-.02.47-.04.48-.11.01-.07-.08-.1-.22-.13-.1-.02-.2-.04-.19-.12.01-.06.11-.08.36-.12.24-.04.6-.1.62-.22-.02-.03-.12-.04-.18-.05-.11-.01-.2-.02-.23-.08l-.01-.02.03-.07c.06-.07.2-.12.37-.17.24-.08.5-.16.52-.33-.02-.05-.14-.05-.27-.03-.11.01-.21.04-.24-.03.02-.11.09-.14.19-.19.1-.05.22-.1.35-.19.85-.6.96-.86.94-.96-.14-.03-.38.11-.58.23-.22.13-.4.24-.5.24l-.07-.03c-.02-.03-.02-.06-.01-.11s.12-.15.42-.44c.51-.48 1.47-1.37 1.26-1.61-.19 0-.59.34-.9.62-.36.32-.58.52-.69.52h-.03l-.05-.07c-.01-.04.04-.1.3-.45.58-.76 1.78-2.34 1.48-2.92-.06.03-.4.59-.7 1.08-.62 1-1.04 1.66-1.22 1.66-.09-.07-.07-.14.27-.95.37-.87.98-2.33.84-2.52-.12-.01-.36.52-.54.91l-.08.18c-.23.52-.46 1.02-.51 1.09-.08-.02-.08-.09-.06-.56.02-.37.04-.84.01-1.04 0-.04-.03-.06-.08-.06" fill="#f5c832"/><path d="M29.07 25.17c0-.05-.1-.02-.18 0-.08.02-.12.06-.12.1 0 .05.1.02.18.01.08-.02.13-.06.12-.11" fill="#4eaec4"/><path d="M28.83 25.33h-.03l-.05-.06c-.01-.06.05-.11.14-.14.07-.02.11-.03.14-.03h.03l.05.06c.01.06-.05.12-.15.14-.05.02-.1.03-.13.03" fill="#4eaec4"/><path d="M31.83 9.56c.26.05.39-.1.43-.29.05-.26-.06-1.57-.06-1.57s-.6 1.16-.65 1.42c-.05.2.02.39.28.44M32.78 9.85c.24.1.4-.02.48-.2.09-.25.24-1.55.24-1.55s-.82 1.02-.92 1.27c-.08.18-.05.37.2.48M33.65 10.31c.22.15.4.06.51-.1.15-.22.54-1.47.54-1.47s-1 .84-1.15 1.06c-.11.17-.12.37.1.51M34.41 10.94c.19.18.38.14.52 0 .19-.19.82-1.33.82-1.33s-1.15.63-1.33.82c-.14.13-.19.32-.01.51M35.04 11.7c.15.22.34.21.51.1.22-.15 1.06-1.15 1.06-1.15s-1.25.4-1.47.54c-.16.12-.24.3-.1.51M35.51 12.58c.1.24.29.27.48.2.24-.1 1.27-.92 1.27-.92s-1.3.15-1.55.25c-.18.07-.3.23-.2.47M35.8 13.53c.05.26.24.32.43.29.26-.05 1.42-.65 1.42-.65s-1.31-.11-1.56-.06c-.2.03-.34.16-.29.42M35.89 14.51c0 .26.17.36.37.36.26 0 1.52-.36 1.52-.36s-1.26-.36-1.52-.36c-.2 0-.37.1-.37.36M35.8 15.5c-.05.26.09.39.29.43.26.05 1.56-.06 1.56-.06s-1.16-.6-1.42-.65c-.2-.04-.38.02-.43.28M35.51 16.45c-.1.25.02.4.2.48.24.1 1.55.25 1.55.25s-1.02-.82-1.27-.92c-.19-.09-.38-.06-.48.19M35.04 17.32c-.15.22-.06.4.1.51.22.15 1.47.54 1.47.54s-.84-1-1.06-1.15c-.17-.11-.36-.12-.51.1M34.41 18.09c-.19.19-.14.38 0 .52.19.18 1.33.82 1.33.82s-.63-1.15-.82-1.33c-.13-.15-.32-.2-.51-.01M33.65 18.71c-.22.15-.21.34-.1.51.15.22 1.15 1.07 1.15 1.07s-.4-1.25-.54-1.47c-.12-.17-.29-.25-.51-.11M32.78 19.18c-.24.1-.27.3-.19.48.1.24.92 1.27.92 1.27s-.15-1.3-.25-1.55c-.08-.18-.24-.3-.48-.2M28.04 18.71c-.22-.14-.4-.06-.51.1-.15.22-.54 1.47-.54 1.47s1-.84 1.15-1.07c.1-.16.12-.35-.1-.5M27.27 18.09c-.19-.19-.38-.14-.52 0-.19.18-.82 1.33-.82 1.33s1.15-.64 1.33-.82c.15-.14.2-.33.01-.51M26.64 17.32c-.15-.22-.34-.21-.51-.1-.22.15-1.06 1.15-1.06 1.15s1.25-.4 1.47-.54c.16-.12.25-.29.1-.51M26.17 16.45c-.1-.24-.3-.27-.48-.19-.24.1-1.27.92-1.27.92s1.3-.15 1.55-.25c.19-.08.31-.24.2-.48M25.89 15.5c-.05-.26-.23-.32-.43-.28-.26.05-1.42.65-1.42.65s1.31.11 1.57.06c.18-.04.33-.17.28-.43M25.79 14.51c0-.27-.17-.36-.37-.36-.26 0-1.52.36-1.52.36s1.26.36 1.52.36c.2.01.37-.09.37-.36M25.89 13.53c.05-.26-.09-.39-.29-.43-.26-.05-1.57.06-1.57.06s1.17.6 1.42.65c.2.04.39-.02.44-.28M26.17 12.58c.1-.25-.02-.4-.2-.48-.24-.1-1.55-.25-1.55-.25s1.02.82 1.27.92c.19.08.38.05.48-.19M26.64 11.7c.14-.22.06-.39-.1-.51-.22-.15-1.47-.54-1.47-.54s.84 1 1.06 1.15c.17.11.36.13.51-.1M27.27 10.94c.18-.19.14-.38 0-.52-.19-.19-1.33-.82-1.33-.82s.63 1.15.82 1.33c.13.15.32.2.51.01M30.84 10.07c2.46 0 4.45 1.99 4.45 4.45s-1.99 4.45-4.45 4.45-4.45-1.99-4.45-4.45 1.99-4.45 4.45-4.45M30.84 9.46c.26 0 .36-.17.36-.37 0-.26-.36-1.52-.36-1.52s-.36 1.26-.36 1.52c0 .2.1.37.36.37M31.83 19.47c-.26.06-.32.24-.29.43.05.26.65 1.42.65 1.42s.11-1.3.06-1.56c-.03-.2-.16-.34-.42-.29M30.84 19.56c-.26 0-.36.17-.36.37 0 .26.36 1.52.36 1.52s.36-1.26.36-1.52c0-.2-.09-.37-.36-.37M29.86 19.47c-.26-.05-.39.1-.43.29-.05.26.06 1.56.06 1.56s.6-1.16.65-1.42c.04-.2-.02-.38-.28-.43M28.91 19.18c-.25-.1-.4.02-.48.2-.1.24-.25 1.55-.25 1.55s.82-1.03.92-1.27c.08-.19.05-.38-.19-.48M28.04 10.31c.22-.15.21-.34.1-.51-.15-.22-1.15-1.06-1.15-1.06s.4 1.25.54 1.47c.11.16.29.25.51.1M28.91 9.85c.24-.1.27-.29.2-.48-.11-.25-.92-1.27-.92-1.27s.15 1.3.25 1.55c.07.18.22.3.47.2M29.86 9.56c.26-.05.32-.24.28-.43-.05-.26-.65-1.42-.65-1.42s-.11 1.3-.06 1.56c.04.19.17.34.43.29" fill="#f5c832"/></svg>