<svg xmlns="http://www.w3.org/2000/svg" viewBox="0 0 59.35 34.62"><path fill="#cb001c" d="M0 31.96h59.35v2.66H0z"/><path fill="#fff" d="M0 29.29h59.35v2.66H0z"/><path fill="#cb001c" d="M0 26.63h59.35v2.66H0z"/><path fill="#fff" d="M0 23.97h59.35v2.66H0z"/><path fill="#cb001c" d="M0 21.3h59.35v2.66H0z"/><path fill="#fff" d="M0 18.64h59.35v2.66H0z"/><path fill="#cb001c" d="M0 15.98h59.35v2.66H0z"/><path fill="#fff" d="M0 13.32h59.35v2.66H0z"/><path fill="#cb001c" d="M0 10.65h59.35v2.66H0z"/><path fill="#fff" d="M0 7.99h59.35v2.66H0z"/><path fill="#cb001c" d="M0 5.32h59.35v2.66H0z"/><path fill="#fff" d="M0 2.66h59.35v2.66H0z"/><path fill="#cb001c" d="M0 0h59.35v2.66H0z"/><path fill="#2a3560" d="M0 0h27.1v18.64H0z"/><path fill="#fff" d="M2.44 2.05l.23.71h.74l-.6.43.23.71-.6-.44-.6.44.23-.71-.6-.43h.74zM2.44 5.17l.23.7h.74l-.6.43.23.71-.6-.44-.6.44.23-.71-.6-.43h.74zM2.44 8.28l.23.7h.74l-.6.44.23.7-.6-.43-.6.43.23-.7-.6-.44h.74zM2.44 11.39l.23.7h.74l-.6.44.23.7-.6-.43-.6.43.23-.7-.6-.44h.74zM2.44 14.5l.23.71h.74l-.6.43.23.71-.6-.44-.6.44.23-.71-.6-.43h.74zM4.61 3.69l.23.71h.74l-.6.43.23.71-.6-.44-.6.44.23-.71-.6-.43h.74zM4.61 6.81l.23.7h.74l-.6.44.23.7-.6-.44-.6.44.23-.7-.6-.44h.74zM4.61 9.92l.23.7h.74l-.6.44.23.7-.6-.43-.6.43.23-.7-.6-.44h.74zM4.61 13.03l.23.7h.74l-.6.44.23.7-.6-.43-.6.43.23-.7-.6-.44h.74zM6.81 2.05l.22.71h.74l-.59.43.22.71-.59-.44-.6.44.22-.71-.59-.43h.74zM6.81 5.17l.22.7h.74l-.59.43.22.71-.59-.44-.6.44.22-.71-.59-.43h.74zM6.81 8.28l.22.7h.74l-.59.44.22.7-.59-.43-.6.43.22-.7-.59-.44h.74zM6.81 11.39l.22.7h.74l-.59.44.22.7-.59-.43-.6.43.22-.7-.59-.44h.74zM6.81 14.5l.22.71h.74l-.59.43.22.71-.59-.44-.6.44.22-.71-.59-.43h.74zM8.97 3.69l.23.71h.74l-.6.43.23.71-.6-.44-.6.44.23-.71L8 4.4h.74zM8.97 6.81l.23.7h.74l-.6.44.23.7-.6-.44-.6.44.23-.7-.6-.44h.74zM8.97 9.92l.23.7h.74l-.6.44.23.7-.6-.43-.6.43.23-.7-.6-.44h.74zM8.97 13.03l.23.7h.74l-.6.44.23.7-.6-.43-.6.43.23-.7-.6-.44h.74zM11.17 2.05l.23.71h.74l-.6.43.23.71-.6-.44-.6.44.23-.71-.6-.43h.74zM11.17 5.17l.23.7h.74l-.6.43.23.71-.6-.44-.6.44.23-.71-.6-.43h.74zM11.17 8.28l.23.7h.74l-.6.44.23.7-.6-.43-.6.43.23-.7-.6-.44h.74zM11.17 11.39l.23.7h.74l-.6.44.23.7-.6-.43-.6.43.23-.7-.6-.44h.74zM11.17 14.5l.23.71h.74l-.6.43.23.71-.6-.44-.6.44.23-.71-.6-.43h.74zM13.33 3.69l.23.71h.74l-.6.43.23.71-.6-.44-.59.44.22-.71-.59-.43h.74zM13.33 6.81l.23.7h.74l-.6.44.23.7-.6-.44-.59.44.22-.7-.59-.44h.74zM13.33 9.92l.23.7h.74l-.6.44.23.7-.6-.43-.59.43.22-.7-.59-.44h.74zM13.33 13.03l.23.7h.74l-.6.44.23.7-.6-.43-.59.43.22-.7-.59-.44h.74zM15.53 2.05l.23.71h.74l-.6.43.23.71-.6-.44-.6.44.23-.71-.6-.43h.74zM15.53 5.17l.23.7h.74l-.6.43.23.71-.6-.44-.6.44.23-.71-.6-.43h.74zM15.53 8.28l.23.7h.74l-.6.44.23.7-.6-.43-.6.43.23-.7-.6-.44h.74zM15.53 11.39l.23.7h.74l-.6.44.23.7-.6-.43-.6.43.23-.7-.6-.44h.74zM15.53 14.5l.23.71h.74l-.6.43.23.71-.6-.44-.6.44.23-.71-.6-.43h.74zM17.7 3.69l.23.71h.74l-.6.43.23.71-.6-.44-.6.44.23-.71-.6-.43h.74zM17.7 6.81l.23.7h.74l-.6.44.23.7-.6-.44-.6.44.23-.7-.6-.44h.74zM17.7 9.92l.23.7h.74l-.6.44.23.7-.6-.43-.6.43.23-.7-.6-.44h.74zM17.7 13.03l.23.7h.74l-.6.44.23.7-.6-.43-.6.43.23-.7-.6-.44h.74zM19.89 2.05l.23.71h.74l-.6.43.23.71-.6-.44-.6.44.23-.71-.6-.43h.74zM19.89 5.17l.23.7h.74l-.6.43.23.71-.6-.44-.6.44.23-.71-.6-.43h.74zM19.89 8.28l.23.7h.74l-.6.44.23.7-.6-.43-.6.43.23-.7-.6-.44h.74zM19.89 11.39l.23.7h.74l-.6.44.23.7-.6-.43-.6.43.23-.7-.6-.44h.74zM19.89 14.5l.23.71h.74l-.6.43.23.71-.6-.44-.6.44.23-.71-.6-.43h.74zM22.06 3.69l.23.71h.74l-.6.43.23.71-.6-.44-.6.44.23-.71-.6-.43h.74zM22.06 6.81l.23.7h.74l-.6.44.23.7-.6-.44-.6.44.23-.7-.6-.44h.74zM22.06 9.92l.23.7h.74l-.6.44.23.7-.6-.43-.6.43.23-.7-.6-.44h.74zM22.06 13.03l.23.7h.74l-.6.44.23.7-.6-.43-.6.43.23-.7-.6-.44h.74zM24.25 2.05l.23.71h.74l-.6.43.23.71-.6-.44-.6.44.23-.71-.6-.43h.74zM24.25 5.17l.23.7h.74l-.6.43.23.71-.6-.44-.6.44.23-.71-.6-.43h.74zM24.25 8.28l.23.7h.74l-.6.44.23.7-.6-.43-.6.43.23-.7-.6-.44h.74zM24.25 11.39l.23.7h.74l-.6.44.23.7-.6-.43-.6.43.23-.7-.6-.44h.74zM24.25 14.5l.23.71h.74l-.6.43.23.71-.6-.44-.6.44.23-.71-.6-.43h.74z"/></svg>