<svg xmlns="http://www.w3.org/2000/svg" viewBox="0 0 58.26 33.99"><path fill="#fff" d="M0 0h58.26v33.99H0z"/><path fill="#f0953e" d="M0 0h58.26v11.33H0z"/><path fill="#3b8916" d="M0 22.66h58.26v11.33H0z"/><path d="M29.13 11.9c-2.82 0-5.1 2.28-5.1 5.1s2.28 5.1 5.1 5.1 5.1-2.28 5.1-5.1-2.28-5.1-5.1-5.1m0 .49L29 14.95l.14 1.46.14-1.46-.13-2.56c.13 0 .26.01.39.02v.02c0 .12.1.21.21.21.11 0 .19-.08.21-.18.13.02.25.05.37.08l-.79 2.44-.25 1.45.51-1.38.54-2.51c.12.03.25.07.37.11-.01.03-.02.05-.02.08 0 .12.09.21.21.21.09 0 .16-.05.19-.13.12.05.23.11.34.18l-1.39 2.15-.61 1.33.85-1.2 1.17-2.28c.11.07.22.13.32.21a.21.21 0 0 0-.05.13c0 .11.1.21.21.21.07 0 .13-.03.17-.08.1.08.2.17.29.26l-1.9 1.72-.94 1.13 1.13-.94 1.72-1.9c.09.09.18.19.26.28-.05.04-.08.1-.08.16 0 .12.09.21.21.21.05 0 .09-.02.13-.04.07.1.14.21.21.32l-2.28 1.17-1.2.85 1.33-.61 2.15-1.39c.07.12.13.24.18.36-.08.03-.13.11-.13.19 0 .12.1.21.21.21.03 0 .05-.01.08-.02.04.11.08.23.11.35l-2.51.54-1.38.51 1.45-.24 2.44-.79c.03.12.06.25.08.38-.1.02-.18.1-.18.21 0 .12.1.21.21.21h.02c.01.13.02.26.02.39l-2.56-.13-1.46.15 1.46.14 2.56-.14c0 .13-.01.26-.02.39h-.02c-.12 0-.21.1-.21.21 0 .11.08.19.18.21-.02.13-.05.25-.08.38l-.87-.28-1.57-.51-1.45-.25h.01-.01l1.38.51 2.51.54c-.03.12-.07.24-.12.37-.01 0-.02-.01-.03-.01h-.04c-.12 0-.21.09-.21.21 0 .03.01.06.02.08.01.03.03.06.06.08l.01.01c.01 0 .01.01.02.01s.01.01.01.01c-.05.12-.11.23-.18.34l-2.15-1.39-1.33-.61h.01l.7.49.5.35 2.28 1.17-.21.33c-.03-.03-.08-.04-.12-.04-.12 0-.21.09-.21.21 0 .07.03.12.08.16-.08.1-.17.19-.26.28l-1.72-1.9-1.13-.93.93 1.13 1.9 1.72c-.09.09-.18.17-.28.25a.205.205 0 0 0-.34.16c0 .03.01.06.02.09-.11.08-.22.15-.34.22l-1.17-2.28-.85-1.2.61 1.33 1.39 2.15c-.11.06-.22.12-.34.17a.212.212 0 0 0-.19-.12c-.12 0-.21.09-.21.21 0 .03.01.05.01.08-.12.04-.24.08-.37.12l-.54-2.51-.51-1.37.25 1.43.79 2.44c-.12.03-.25.06-.38.08-.01-.1-.1-.18-.21-.18-.12 0-.21.1-.21.21v.02c-.13.01-.26.02-.39.02l.13-2.56-.14-1.46-.14 1.46.13 2.56c-.13 0-.26-.01-.39-.02v-.02c0-.11-.1-.21-.21-.21-.11 0-.19.08-.21.18-.12-.03-.25-.05-.37-.08l.8-2.44.25-1.44-.51 1.37-.54 2.51c-.12-.03-.25-.07-.37-.12.01-.02.02-.05.02-.08 0-.12-.09-.21-.21-.21-.09 0-.16.05-.19.13-.12-.05-.23-.11-.34-.18l1.39-2.15.61-1.33-.85 1.2-1.17 2.28c-.11-.06-.22-.14-.33-.21a.25.25 0 0 0 .04-.13c0-.12-.1-.21-.21-.21-.07 0-.13.03-.16.08-.1-.08-.19-.17-.28-.26l1.9-1.72.94-1.13-1.13.94-1.72 1.9c-.09-.09-.18-.19-.26-.29.05-.04.08-.1.08-.16 0-.12-.09-.21-.21-.21-.05 0-.09.02-.13.04-.07-.11-.14-.21-.21-.33l2.28-1.17 1.2-.85-1.33.61-2.15 1.39c-.06-.11-.12-.22-.18-.34.08-.03.14-.11.14-.2 0-.12-.09-.21-.21-.21-.03 0-.06.01-.09.02-.04-.12-.08-.25-.12-.37l2.51-.54 1.38-.51-1.45.25-2.44.79c-.03-.12-.06-.25-.08-.38.1-.01.18-.1.18-.21 0-.11-.09-.21-.21-.21h-.02c-.01-.13-.02-.26-.02-.39l2.56.13 1.46-.14-1.46-.14-2.56.13c0-.13.01-.26.02-.39h.04c.12 0 .21-.1.21-.21 0-.11-.08-.2-.19-.21.02-.13.05-.25.08-.38l2.44.79 1.45.24-1.38-.51-2.51-.54c.03-.12.07-.25.12-.37.02.01.05.02.08.02.12 0 .21-.09.21-.21 0-.08-.05-.16-.13-.19.05-.12.11-.23.18-.34l2.15 1.39 1.33.61-1.2-.85-2.28-1.17.21-.33c.04.03.08.04.13.04.12 0 .21-.09.21-.21 0-.07-.03-.13-.08-.17.08-.1.17-.19.26-.28l1.72 1.9 1.13.94-.94-1.13-1.9-1.72c.09-.09.19-.18.29-.26.04.05.1.08.16.08.12 0 .21-.09.21-.21 0-.05-.01-.09-.04-.13.1-.07.21-.14.32-.21L28 15.22l.85 1.2-.61-1.33-1.39-2.15c.11-.06.22-.12.34-.18.03.08.11.13.2.13.12 0 .21-.09.21-.21 0-.03-.01-.06-.02-.09.12-.04.25-.08.37-.12l.54 2.51.51 1.38-.25-1.45-.79-2.44c.12-.03.25-.06.38-.08.01.1.1.18.21.18.12 0 .21-.1.21-.21v-.02c.11.06.24.05.37.05" fill="#16007e"/><path d="M29.13 16.23a.76.76 0 1 1 0 1.52c-.42 0-.77-.34-.77-.76.01-.42.35-.76.77-.76" fill="#fff"/><path d="M29.13 16.41a.591.591 0 0 1 0 1.18.591.591 0 0 1 0-1.18" fill="#16007e"/></svg>