<svg xmlns="http://www.w3.org/2000/svg" viewBox="0 0 58.92 34.37"><path fill="#ea0020" d="M20.61 0h38.32v34.37H20.61z"/><path fill="#2a680b" d="M0 0h20.61v34.37H0z"/><path d="M27.33 22.51c-2.59-.08-14.49-7.51-14.57-8.69l.66-1.1c1.18 1.72 13.34 8.94 14.53 8.68l-.62 1.11z" fill="#fcff2c"/><path d="M13.27 12.58c-.23.63 3.11 2.69 7.12 5.13 4.02 2.44 7.48 3.95 7.73 3.74.02-.03.13-.22.12-.22-.05.07-.17.1-.35.04-1.08-.31-3.91-1.61-7.42-3.74-3.5-2.13-6.55-4.08-7.02-4.92a.47.47 0 0 1-.05-.24h-.01l-.1.18-.02.03zm14.12 9.97c-.05.08-.13.08-.28.07-.97-.11-3.92-1.54-7.4-3.63-4.05-2.43-7.4-4.64-7.04-5.22l.1-.17.02.01c-.33.98 6.61 4.95 7.02 5.2 4.01 2.49 7.4 3.94 7.69 3.56l-.11.18z" fill="#fcff2c"/><path d="M27.23 22.65c-.04 0-.08 0-.12-.01-.99-.11-3.96-1.57-7.41-3.63-4.6-2.76-6.91-4.41-7.07-5.07a.22.22 0 0 1 .02-.18l.1-.17v.06l-.06.14c-.02.04-.03.09-.02.15.15.64 2.46 2.29 7.05 5.04 3.44 2.06 6.41 3.51 7.39 3.62.15.02.22.01.26-.05l.07-.11c-.03.01-.08.02-.13.02-.82 0-3.85-1.36-7.51-3.63-.04-.02-.13-.08-.27-.16-4.48-2.64-6.75-4.32-6.76-4.98.09.43 1.14 1.61 6.79 4.94.14.08.24.14.28.17 3.65 2.26 6.68 3.62 7.49 3.62.09 0 .15-.02.18-.05 0 .02 0 .04-.02.05l-.05.16c-.07.06-.15.07-.21.07m.81-1.15c-.6 0-3.89-1.46-7.66-3.76-4.32-2.63-7.36-4.54-7.13-5.17l.12-.21.01.01-.07.19c-.25.66 3.65 3.04 7.1 5.13 3.77 2.29 7.04 3.75 7.64 3.75.05 0 .06-.01.07-.01.02-.04.05-.09.07-.12-.05.03-.16.03-.29-.01-1.19-.34-4.12-1.74-7.42-3.74-3.2-1.94-6.53-4.04-7.03-4.93a.526.526 0 0 1-.06-.26c.05.09.07.18.1.23.5.88 4.01 3.09 7.01 4.91 3.3 2 6.23 3.39 7.41 3.74.16.05.28.03.32-.03.05.02.05.02-.05.2-.06.07-.09.08-.14.08"/><path d="M20.62 14.54c2.6-.02 5.8-.35 7.64-1.09l-.4-.65c-1.09.6-4.31 1-7.27 1.06-3.5-.03-5.97-.36-7.21-1.19l-.38.69c2.29.97 4.62 1.17 7.62 1.18" fill="#fcff2c"/><path d="M28.37 13.47c-.06.1-1.27.52-3.04.82-1.2.18-2.77.34-4.72.34-1.86 0-3.38-.13-4.52-.29-1.86-.29-2.82-.7-3.17-.84.03-.07.05-.11.09-.17 1.02.41 1.99.65 3.11.83 1.14.15 2.64.29 4.49.29 1.94 0 3.49-.17 4.69-.35 1.82-.29 2.81-.67 2.95-.85l.12.22zm-.34-.66c-.2.16-1.18.51-2.9.78-1.15.16-2.62.31-4.49.32-1.78 0-3.23-.12-4.34-.28-1.75-.23-2.68-.64-3.02-.76.03-.06.07-.11.1-.17.26.13 1.16.5 2.94.75 1.09.15 2.55.27 4.32.27 1.86 0 3.31-.15 4.45-.32 1.74-.24 2.67-.68 2.81-.8l.13.21z" fill="#fcff2c"/><path d="M20.56 14.65c-1.57 0-3.07-.09-4.47-.29-1.81-.28-2.78-.68-3.15-.83l-.01-.11.06-.11c1.01.38 1.97.63 3.14.81 1.4.19 2.9.29 4.46.29 1.62 0 3.15-.11 4.71-.35 1.8-.29 2.8-.67 2.93-.84l.17.23c-.07.14-1.32.56-3.05.86-1.47.23-3.07.34-4.73.34h-.06zm-7.57-1.3l-.06.17c.39.13 1.35.52 3.16.8 1.39.19 2.89.29 4.46.29v.02l.06-.02c1.66 0 3.25-.12 4.72-.34 1.82-.32 2.97-.73 3.02-.81l-.13-.2c-.09.17-1.01.55-2.92.86-1.57.24-3.1.35-4.69.35-1.58 0-3.09-.1-4.49-.29-1.18-.19-2.15-.44-3.13-.83m7.61.58c-1.57 0-3.06-.1-4.31-.28-1.55-.2-2.45-.54-2.88-.71l-.14-.05.06-.16c.01-.01.05-.06.06-.06.15.08 1.02.47 2.93.75.86.12 2.3.27 4.28.27 1.58 0 2.99-.1 4.48-.32 1.65-.23 2.63-.66 2.8-.79l.16.22c-.2.19-1.16.54-2.92.82-1.49.21-2.92.32-4.49.32h-.03zm-7.23-1.22l-.07.16.13.02c.43.16 1.33.51 2.87.71 1.25.18 2.73.28 4.3.28v.03l.03-.03c1.57 0 2.99-.1 4.48-.31 1.76-.28 2.7-.63 2.89-.78l-.13-.18c-.09.11-.99.56-2.79.8-1.49.22-2.91.32-4.46.32-2.01 0-3.45-.15-4.32-.27-1.91-.27-2.78-.67-2.93-.75"/><path d="M12.1 17.67c1.6.86 5.14 1.29 8.5 1.32 3.06 0 7.04-.47 8.53-1.26l-.04-.86c-.46.73-4.73 1.43-8.52 1.4-3.79-.03-7.3-.61-8.47-1.37v.77z" fill="#fcff2c"/><path d="M29.2 17.55v.21c-.22.27-1.63.67-3.39.96-1.34.21-3.08.36-5.26.36-2.07 0-3.71-.15-4.99-.34-2.02-.29-3.31-.81-3.57-.97v-.24c.78.52 2.89.9 3.6 1.01 1.27.2 2.91.34 4.96.34 2.17 0 3.9-.16 5.23-.36 1.27-.18 3.07-.66 3.42-.97m.01-.73v.21c-.23.27-1.63.67-3.39.96-1.34.21-3.09.36-5.26.36-2.07 0-3.72-.15-4.99-.34-2.02-.3-3.31-.81-3.57-.97v-.24c.78.52 2.89.9 3.6 1.01 1.27.2 2.91.34 4.97.34 2.16 0 3.9-.15 5.23-.36 1.25-.18 3.05-.66 3.41-.97" fill="#fcff2c"/><path d="M20.56 19.09c-1.83 0-3.52-.11-5-.34-1.93-.28-3.27-.78-3.58-.97l-.01-.26c.82.5 2.98.88 3.63.99 1.47.23 3.14.34 4.96.34 1.92 0 3.68-.12 5.23-.35 1.25-.18 3.05-.65 3.4-.97l.04.22c-.24.29-1.67.7-3.41.98-1.56.24-3.33.36-5.26.36m-8.58-1.55l.04.22c.18.1 1.44.63 3.55.94 1.48.23 3.16.34 4.99.34 1.93 0 3.7-.12 5.26-.36 1.7-.28 3.15-.68 3.37-.95l-.01-.19c-.32.34-2.13.82-3.39 1-1.55.24-3.31.36-5.24.36-1.83 0-3.5-.11-4.97-.34-.82-.14-2.83-.5-3.6-1.02m8.58.83c-1.83 0-3.51-.12-5-.35-1.94-.28-3.27-.78-3.58-.97l-.01-.26c.82.5 2.98.88 3.63.99 1.48.23 3.14.34 4.96.34 1.93 0 3.68-.12 5.23-.36 1.25-.18 3.05-.65 3.4-.97l.04.22c-.24.29-1.67.7-3.41.98-1.55.26-3.33.38-5.26.38m-8.58-1.56l.04.22c.18.09 1.43.63 3.55.94 1.49.23 3.17.34 4.99.34 1.93 0 3.7-.12 5.26-.36 1.7-.28 3.15-.68 3.37-.95l-.01-.19c-.32.34-2.13.82-3.39 1-1.55.24-3.31.36-5.24.36-1.82 0-3.49-.11-4.97-.34-.82-.14-2.83-.51-3.6-1.02"/><path d="M20.59 22.37c-3.67-.02-6.82-1-7.48-1.16l.48.76c1.17.49 4.24 1.23 7.03 1.15 2.79-.08 5.23-.3 6.95-1.14l.5-.79c-1.17.55-5.16 1.17-7.48 1.18" fill="#fcff2c"/><path d="M27.76 21.8c-.07.11-.15.22-.22.33-.81.29-2.09.59-2.63.67-1.1.23-2.8.39-4.32.4-3.25-.05-5.92-.68-7.17-1.23l-.1-.17.02-.03.17.07c2.23.8 4.73 1.12 7.1 1.17 1.51.01 3.01-.17 4.23-.39 1.87-.37 2.63-.66 2.86-.78l.06-.04zm.43-.71s.01.01 0 0c-.05.1-.11.19-.16.29-.43.16-1.61.5-3.32.74-1.13.15-1.83.3-4.08.35-4.21-.11-6.93-.93-7.58-1.13l-.1-.18c2.44.64 4.93 1.08 7.68 1.13 2.05-.04 2.93-.2 4.05-.35 2-.31 3.01-.64 3.31-.73l-.01-.02.21-.1z" fill="#fcff2c"/><path d="M20.59 23.22c-3.32-.05-5.94-.69-7.18-1.23l-.11-.18c.01-.01.03-.06.05-.06l.17.07c1.99.71 4.38 1.11 7.09 1.17 1.7 0 3.23-.21 4.23-.39 2.09-.42 2.71-.7 2.85-.78.01 0 .03-.01.04-.01 0 0 0-.01.01-.01l.02.01c.01 0 .03 0 .02.01-.07.11-.15.22-.22.33-.81.29-2.08.59-2.64.68-1.17.24-2.86.39-4.33.39m-7.26-1.43l.11.17c1.32.57 4.05 1.17 7.15 1.22 1.44 0 3.17-.16 4.31-.4.56-.09 1.83-.39 2.62-.67.05-.08.1-.16.16-.24-.19.09-.85.38-2.84.77-1 .18-2.53.39-4.17.39-2.79-.07-5.18-.46-7.18-1.17l-.16-.07zm7.3.7c-3.74-.1-6.36-.75-7.59-1.13l-.11-.2c2.82.69 5.26 1.05 7.7 1.09 1.82-.04 2.72-.17 3.68-.3l.37-.05c1.92-.3 2.93-.62 3.26-.72l.24-.11-.01.02-.19.11c-.36.14-1.38.46-3.3.75l-.36.05c-.96.13-1.86.26-3.68.3-2.45-.04-4.89-.4-7.69-1.13l.12.15c1.21.37 3.82 1.03 7.56 1.12 1.91-.04 2.69-.15 3.59-.28l.48-.07c1.52-.21 2.74-.53 3.32-.74l.15-.27-.13.3c-.59.22-1.81.54-3.34.75l-.48.07c-.89.14-1.67.25-3.59.29z"/><path d="M20.59 9.54c4.22 0 7.62 3.43 7.62 7.65a7.62 7.62 0 0 1-7.62 7.63c-4.22 0-7.63-3.42-7.63-7.64s3.42-7.64 7.63-7.64m0-.76c4.62 0 8.39 3.77 8.39 8.4s-3.77 8.4-8.39 8.4c-4.62 0-8.39-3.77-8.39-8.4s3.77-8.4 8.39-8.4" fill="#fcff2c"/><path d="M20.6 8.69c4.68 0 8.5 3.82 8.5 8.51 0 4.69-3.82 8.51-8.5 8.51s-8.5-3.82-8.5-8.51c0-4.69 3.82-8.51 8.5-8.51m0 .18c4.56 0 8.31 3.74 8.31 8.32s-3.76 8.32-8.31 8.32c-4.56 0-8.32-3.74-8.32-8.32 0-4.57 3.76-8.32 8.32-8.32" fill="#fcff2c"/><path d="M20.6 25.73c-4.7 0-8.53-3.83-8.53-8.53 0-4.71 3.82-8.54 8.53-8.54 4.7 0 8.53 3.83 8.53 8.54 0 4.7-3.83 8.53-8.53 8.53m0-17.02c-4.67 0-8.48 3.81-8.48 8.49s3.8 8.48 8.48 8.48c4.67 0 8.48-3.81 8.48-8.48 0-4.69-3.81-8.49-8.48-8.49m0 16.83c-4.6 0-8.34-3.74-8.34-8.34S16 8.85 20.6 8.85s8.34 3.74 8.34 8.35c0 4.6-3.74 8.34-8.34 8.34m0-16.64c-4.57 0-8.29 3.72-8.29 8.3 0 4.57 3.72 8.29 8.29 8.29 4.57 0 8.29-3.72 8.29-8.29 0-4.58-3.72-8.3-8.29-8.3"/><path d="M20.61 9.39c4.27 0 7.79 3.51 7.79 7.79 0 4.29-3.52 7.79-7.79 7.79s-7.79-3.51-7.79-7.79 3.52-7.79 7.79-7.79m0 .19c4.17 0 7.6 3.42 7.6 7.61 0 4.18-3.43 7.61-7.6 7.61s-7.6-3.42-7.6-7.61 3.43-7.61 7.6-7.61" fill="#fcff2c"/><path d="M20.61 25c-4.31 0-7.81-3.51-7.81-7.82 0-4.31 3.51-7.82 7.81-7.82 4.31 0 7.81 3.51 7.81 7.82 0 4.32-3.5 7.82-7.81 7.82m0-15.58c-4.28 0-7.76 3.49-7.76 7.77 0 4.28 3.48 7.77 7.76 7.77 4.28 0 7.76-3.49 7.76-7.77 0-4.29-3.48-7.77-7.76-7.77m0 15.4c-4.21 0-7.63-3.42-7.63-7.63s3.42-7.63 7.63-7.63c4.2 0 7.62 3.42 7.62 7.63 0 4.2-3.42 7.63-7.62 7.63m0-15.22c-4.18 0-7.58 3.4-7.58 7.58s3.4 7.58 7.58 7.58 7.57-3.4 7.57-7.58-3.39-7.58-7.57-7.58"/><path fill="#fcff2c" d="M20.25 8.64h.74v17.12h-.74z"/><path d="M20.88 8.55h.18v17.3h-.18V8.55zm-.73 0h.19v17.3h-.19V8.55z" fill="#fcff2c"/><path d="M21.06 25.87h-.19l-.02-17.32.21-.02.03 17.32c0 .01 0 .01-.01.02h-.02m-.02-17.32l-.16.03.03 17.27.14-.02-.01-17.28zm-.7 17.32h-.19l-.02-17.32.21-.02.03 17.32c0 .01 0 .01-.01.02h-.02m-.03-17.32l-.16.03.02 17.27.14-.02V8.55z"/><path d="M12.07 16.83c1.07-.98 5-1.62 8.49-1.6 3.49.02 7.62.74 8.52 1.58l.01.73c-.75-.71-3.96-1.55-8.52-1.56-4.56-.01-7.87.86-8.5 1.58v-.73z" fill="#fcff2c"/><path d="M12.09 17.5l-.05-.63c0-.03.05-.03.05 0v.63zM29.13 17.52l-.05-.63c0-.03.05-.03.05 0v.63z"/><path d="M20.6 15.88c2.01 0 3.96.19 5.5.49 1.6.32 2.72.72 3.1 1.17v.22c-.46-.56-1.97-.97-3.14-1.2-1.53-.3-3.47-.49-5.46-.49-2.11 0-4.07.2-5.58.5-1.21.24-2.83.72-3.03 1.19v-.23c.11-.33 1.31-.82 3-1.15 1.53-.3 3.49-.5 5.61-.5m.01-.73c2.01-.01 3.95.19 5.5.49 1.59.32 2.72.72 3.1 1.17v.22c-.46-.56-1.97-.97-3.13-1.2-1.53-.3-3.47-.49-5.46-.49-2.11 0-4.06.21-5.57.5-1.17.22-2.85.72-3.04 1.19v-.23c.11-.32 1.34-.83 3.01-1.15 1.5-.3 3.47-.5 5.59-.5" fill="#fcff2c"/><path d="M11.99 17.78c-.02 0-.02-.01-.02-.03v-.23c.12-.36 1.39-.85 3.02-1.18 1.63-.32 3.62-.49 5.61-.5 1.93 0 3.87.17 5.51.49 1.67.33 2.74.74 3.11 1.17l.01.24c-.54-.58-2.21-.99-3.17-1.18-1.61-.32-3.52-.49-5.4-.49-2.03 0-4.01.18-5.64.5-1.32.26-2.83.74-3.01 1.18 0 .03-.01.03-.02.03m8.61-1.74c1.94 0 3.86.17 5.47.49.96.19 2.65.61 3.15 1.21l-.04-.21c-.36-.41-1.43-.81-3.08-1.14-1.63-.31-3.57-.49-5.45-.49-2.03 0-4.02.18-5.64.5-1.81.36-2.89.85-2.99 1.14v.13c.36-.49 2.03-.93 3-1.13 1.63-.32 3.61-.49 5.58-.5m-8.61 1.01c-.02 0-.03-.01-.03-.02v-.23c.12-.36 1.42-.87 3.02-1.18 1.62-.32 3.61-.49 5.61-.5 1.95 0 3.88.17 5.51.49 1.66.33 2.74.74 3.11 1.18l.01.24c-.53-.57-2.21-.98-3.17-1.18-1.61-.31-3.54-.49-5.42-.49-2 0-3.98.18-5.61.5-1.34.25-2.85.75-3.02 1.18.01.01 0 .01-.01.01m8.62-1.74c1.92 0 3.85.17 5.47.49.96.19 2.65.61 3.15 1.21l-.04-.2c-.36-.41-1.43-.81-3.08-1.14-1.62-.32-3.55-.49-5.43-.49-2.06 0-4.05.18-5.67.5-1.74.34-2.88.85-2.98 1.14v.13c.34-.47 1.95-.92 3.01-1.12 1.62-.34 3.6-.51 5.57-.52"/><path d="M20.56 11.43c3.16-.02 5.92.44 7.19 1.09l.46.8c-1.1-.59-4.07-1.21-7.64-1.12-2.91.02-6.01.32-7.57 1.15l.55-.92c1.28-.66 4.29-1 7.01-1" fill="#fcff2c"/><path d="M20.61 12.08c1.8-.01 3.55.1 4.93.35 1.29.24 2.52.6 2.7.79l.14.24c-.43-.28-1.49-.59-2.86-.85-1.38-.26-3.12-.34-4.91-.34-2.04-.01-3.62.1-4.98.34-1.44.27-2.43.65-2.68.84l.14-.26c.48-.24 1.24-.54 2.51-.77 1.39-.25 2.99-.33 5.01-.34m-.01-.73c1.73-.01 3.43.09 4.76.33 1.05.2 2.09.52 2.46.81l.2.32c-.34-.38-1.62-.73-2.75-.93-1.32-.23-2.95-.32-4.68-.33-1.81 0-3.49.12-4.79.35-1.24.24-2.04.52-2.38.73l.18-.26c.47-.25 1.22-.47 2.17-.66 1.32-.24 3.01-.35 4.83-.36" fill="#fcff2c"/><path d="M28.38 13.49h-.01c-.42-.27-1.46-.58-2.85-.85-1.19-.23-2.79-.34-4.75-.34H20.43c-1.95 0-3.48.11-4.79.34-1.43.27-2.42.65-2.67.83l.1-.29c.66-.34 1.48-.59 2.53-.78 1.27-.23 2.73-.33 5.02-.35h.1c1.9 0 3.57.12 4.83.35 1.32.25 2.54.6 2.71.8l.14.24c.01.01 0 .02 0 .03-.01.02-.02.02-.02.02m-7.67-1.38h-.1c-2.29.01-3.74.11-5.01.35-1.04.19-1.86.44-2.5.76l-.12.25c.21-.22 1.21-.6 2.65-.87 1.32-.23 2.84-.34 4.8-.34H20.77c1.96 0 3.56.11 4.76.34 1.32.25 2.32.54 2.79.8l-.09-.16c-.17-.18-1.4-.54-2.68-.78-1.28-.23-2.94-.35-4.84-.35m7.32.72c-.01 0-.01 0-.02-.01-.35-.39-1.69-.74-2.73-.93-1.2-.21-2.73-.32-4.68-.33-1.89 0-3.54.13-4.78.35-1.1.21-1.99.48-2.37.73l.14-.3c.47-.25 1.23-.48 2.19-.67 1.24-.22 2.9-.35 4.82-.35h.14c1.82 0 3.42.11 4.63.33 1.12.22 2.12.54 2.47.81l.21.32c.01.01 0 .03-.01.03 0 .02 0 .02-.01.02m-7.43-1.31c1.95.02 3.48.13 4.68.33.95.17 2.14.48 2.63.83l-.11-.17c-.35-.26-1.33-.58-2.45-.8-1.2-.21-2.8-.33-4.62-.33h-.13c-1.92.01-3.58.13-4.81.35-.96.18-1.7.41-2.17.65l-.17.26c.35-.28 1.25-.56 2.35-.77 1.26-.23 2.91-.35 4.8-.35"/><path d="M24.83 20.73c-1.56-.29-3.13-.34-4.23-.32-5.27.06-6.98 1.08-7.18 1.39l-.4-.64c1.34-.98 4.21-1.52 7.61-1.47 1.76.03 3.28.15 4.56.39l-.36.65z" fill="#fcff2c"/><path d="M20.57 20.32c1.46.02 2.91.08 4.29.34l-.1.18c-1.29-.24-2.67-.33-4.19-.32-1.95-.01-3.92.17-5.63.66-.54.15-1.44.5-1.53.79l-.1-.17c.03-.17.57-.52 1.58-.81 1.98-.56 3.81-.66 5.68-.67m.07-.74c1.52.03 3.09.1 4.61.4l-.1.19c-1.38-.28-2.69-.36-4.5-.39-1.95 0-4.02.14-5.91.69-.61.18-1.66.56-1.69.86l-.1-.18c.02-.27.93-.63 1.75-.87 1.9-.55 3.97-.7 5.94-.7" fill="#fcff2c"/><path d="M13.42 21.98c-.01 0-.02 0-.02-.01l-.1-.17c.03-.21.6-.56 1.6-.84 1.88-.54 3.63-.66 5.68-.67 1.39.02 2.88.08 4.3.34l-.08.21c-1.19-.2-2.5-.31-4.02-.31H20.37c-2.06 0-3.88.22-5.4.66-.58.16-1.43.51-1.51.77-.02.02-.03.02-.04.02zm7.15-1.64c-2.04.01-3.79.13-5.66.67-1.02.29-1.54.64-1.56.79l.07.11c.17-.32 1.15-.65 1.53-.76 1.52-.44 3.34-.66 5.41-.66H20.77c1.52 0 2.83.11 4.01.32l.08-.17c-1.42-.22-2.9-.28-4.29-.3m-7.52 1.01c-.01 0-.02-.01-.02-.01l-.1-.18c.03-.38 1.35-.79 1.76-.91 1.62-.47 3.51-.69 5.95-.7 1.49.03 3.09.1 4.62.4l-.09.22c-1.49-.28-2.88-.35-4.52-.38-2.42 0-4.29.22-5.9.69-.79.23-1.65.59-1.68.84 0 .02-.01.03-.02.03zm7.59-1.75c-2.43.01-4.32.23-5.93.7-1.03.3-1.71.64-1.73.85l.07.11c.17-.37 1.53-.78 1.69-.83 1.61-.47 3.49-.69 5.91-.69 1.64.03 3.04.1 4.51.39l.08-.17c-1.52-.26-3.11-.33-4.6-.36"/><path d="M19.06 20.09c0-.03.01-.05.03-.06.02-.02.03-.03.06-.03.01 0 .03 0 .04.01.01.01.02.02.02.03.01.01.01.03.01.04 0 .01-.01.03-.01.04l-.03.03c-.01.01-.02.01-.04.01-.01 0-.03 0-.04-.01-.01-.01-.02-.02-.02-.03-.02 0-.02-.01-.02-.03m.02 0c0 .02 0 .03.01.04.01.01.02.01.04.01s.03-.01.04-.02c.01-.01.02-.03.02-.05v-.03c0-.01-.01-.01-.02-.02-.01 0-.02-.01-.03-.01-.02 0-.03.01-.04.02-.01.02-.01.04-.02.06m.21.03h.02c0 .01 0 .01.01.02 0 0 .01.01.02.01s.02 0 .02-.01l.01-.01v-.01s-.01 0-.02-.01c-.01 0-.02-.01-.03-.01l-.01-.01v-.02c0-.01 0-.01.01-.01 0-.01.01-.01.01-.01s.01 0 .01-.01h.04c.01 0 .01.01.01.01s0 .01.01.02l-.02.01c0-.01 0-.01-.01-.02h-.02c-.01 0-.01 0-.02.01l-.01.01v.01h.01s.01 0 .02.01c.01 0 .02 0 .03.01.01 0 .01.01.01.01v.02c0 .01 0 .01-.01.02 0 0-.01.01-.02.01h-.02c-.01 0-.02 0-.03-.01-.02-.02-.02-.03-.02-.04m.19-.02h.02c0 .01-.01.02-.02.03-.01.01-.02.01-.03.01-.02 0-.03 0-.04-.01-.01-.01-.01-.02-.01-.04s.01-.04.02-.05c.01-.01.02-.02.04-.02.01 0 .03 0 .04.01.01.01.01.03.01.05v.01h-.08c0 .01 0 .02.01.03 0 .01.01.01.02.01h.02c-.01-.01-.01-.02 0-.03m-.06-.02h.06c0-.01 0-.02-.01-.02 0-.01-.01-.01-.02-.01s-.02 0-.02.01c0 0-.01.01-.01.02m.09.07h.02v.01h.02c.01 0 .01 0 .02-.01.01 0 .01-.01.01-.02 0 0 0-.01.01-.02-.01.01-.02.02-.03.02-.02 0-.03 0-.03-.02-.01-.01-.01-.02-.01-.04 0-.01.01-.02.01-.03.01-.01.01-.02.02-.02.01-.01.02-.01.03-.01.01 0 .02 0 .03.01v-.01h.02l-.01.1c0 .02-.01.03-.01.04l-.02.02c-.01.01-.02.01-.03.01-.01 0-.02 0-.03-.01-.02 0-.02-.01-.02-.02zm.03-.07v.03c.01.01.01.01.02.01s.02 0 .02-.01c.01-.01.01-.02.01-.03 0-.02 0-.03-.01-.03-.01-.01-.01-.01-.02-.01s-.02 0-.02.01v.03m.1.05l.02-.11h.02v.02c0-.01.01-.01.02-.01s.01-.01.02-.01.01 0 .02.01c.01 0 .01.01.01.01.01-.01.02-.02.04-.02.01 0 .02 0 .02.01.01.01.01.02.01.03l-.01.08h-.02l.01-.07v-.02s0-.01-.01-.01h-.01c-.01 0-.02 0-.02.01-.01.01-.01.02-.01.03l-.01.07h-.04l.01-.07v-.02l-.01-.01c-.01 0-.01 0-.02.01-.01 0-.01.01-.01.01v.03l-.01.06h-.02zm.26-.05h.02c0 .01-.01.02-.02.03-.01.01-.02.01-.03.01-.02 0-.03-.01-.04-.02-.01-.01-.01-.02-.01-.04s.01-.04.02-.05c.01-.01.02-.02.04-.02s.03.01.04.02.01.02.01.04v.01h-.08c0 .01 0 .02.01.03.01.01.01.01.02.01s.01 0 .02-.01c-.01.01-.01 0 0-.01m-.06-.03h.06c0-.01 0-.02-.01-.02 0-.01-.01-.01-.02-.01s-.01.01-.02.01c0 0-.01.01-.01.02zm.1.07l.01-.12h.02v.02c.01-.01.02-.02.03-.02h.02l.01.01v.04l-.01.07H20l.01-.07v-.02s0-.01-.01-.01h-.01c-.01 0-.01 0-.02.01s-.01.02-.01.03l-.01.06h-.01zm.16-.02v.02h-.03l-.01-.01v-.02l.01-.07h-.01v-.01h.01v-.03l.02-.01.01.03h.02v.02h-.02l-.01.07v.01h.01zm.02-.04c0-.02.01-.04.02-.05.01-.01.03-.01.04-.01.01 0 .03 0 .03.01.01.01.01.03.01.04 0 .02-.01.03-.01.04-.01.01-.01.02-.02.02-.01.01-.02.01-.03.01-.01 0-.03-.01-.04-.01v-.05m.02 0v.03c.01.01.01.01.02.01s.02 0 .02-.01c.01-.01.01-.02.02-.04v-.03c-.01-.01-.01-.01-.02-.01s-.02 0-.03.01c0 .01-.01.02-.01.04m.24.01h.02c-.01.01-.01.02-.02.03-.01.01-.02.01-.03.01-.01 0-.03 0-.04-.02-.01-.01-.01-.02-.01-.04s.01-.03.02-.04c.01-.01.02-.02.04-.02.01 0 .03 0 .03.02.01.01.01.03.01.04v.01h-.08c0 .01 0 .02.01.03.01.01.01.01.02.01s.01 0 .02-.01c0 0 0-.01.01-.02m-.06-.03h.06v-.02c-.01-.01-.01-.01-.02-.01s-.02 0-.02.01c-.01 0-.02.01-.02.02m.09.07l.03-.16h.02l-.03.16h-.02zm.07-.14l.01-.02h.02v.02h-.03zm-.02.14l.02-.11h.02l-.02.11h-.02zm.05 0l.02-.11h.02v.02c0-.01.01-.01.02-.01s.01-.01.02-.01.01 0 .02.01c.01 0 .01.01.01.01.01-.01.02-.02.04-.02.01 0 .02 0 .02.01.01.01.01.02 0 .03l-.01.08h-.02l.01-.07v-.02-.01h-.01c-.01 0-.02 0-.02.01-.01 0-.01.01-.01.03l-.01.07h-.02l.01-.07v-.02l-.01-.01h-.02s-.01.01-.01.02c0 0-.01.01-.01.02l-.01.06h-.03zm.2-.14l.01-.02h.02v.02h-.03zm-.02.14l.02-.11h.02l-.02.11h-.02zm.05-.01l.02-.11h.02v.02c.01-.01.02-.02.04-.02h.02l.01.01v.03l-.01.07h-.02l.01-.07v-.02s0-.01-.01-.01h-.01c-.01 0-.02 0-.03.01-.01.01-.01.02-.02.03l-.01.06h-.01zm.19-.01c-.01.01-.01.01-.02.01h-.02c-.01 0-.02 0-.03-.01 0-.01-.01-.02 0-.02v-.02c.01 0 .01-.01.01-.01s.01 0 .02-.01h.02c.01 0 .03 0 .03-.01v-.01-.02c-.01-.01-.01-.01-.02-.01h-.02c-.01 0-.01.01-.01.02h-.02c0-.01.01-.01.01-.02 0 0 .01-.01.02-.01h.05c.01 0 .01.01.01.01v.06c0 .02-.01.03-.01.03v.01h-.02v.01m.01-.04c-.01 0-.02.01-.03.01h-.02c-.01 0-.01 0-.01.01 0 0 0 .01-.01.01v.01h.04l.01-.01c.01-.01.01-.01.02-.03zm.1.06v-.01c-.01.01-.02.02-.03.02-.01 0-.02 0-.02-.01-.01 0-.01-.01-.01-.02v-.03c0-.01.01-.02.01-.03 0-.02.01-.03.02-.03.01-.01.02-.01.03-.01h.02c.01 0 .01.01.01.01l.01-.06h.02l-.03.16h-.03zm-.04-.06v.03c.01.01.01.01.02.01s.02 0 .02-.01c.01-.01.01-.02.02-.03v-.03c0-.01-.01-.01-.02-.01s-.02 0-.02.01c-.02 0-.02.01-.02.03zm.1 0c0-.02.01-.04.03-.05.01-.01.02-.01.04-.01.01 0 .03.01.03.02.01.01.01.03.01.04 0 .02-.01.03-.01.03-.01.01-.01.02-.02.02s-.02.01-.03.01c-.02 0-.03-.01-.03-.02-.03 0-.03-.02-.02-.04m.02 0v.03c.01.01.01.01.02.01s.02 0 .02-.01c.01-.01.01-.02.02-.03v-.03c-.01-.01-.01-.01-.02-.01s-.02 0-.03.01c-.01 0-.01.02-.01.03m.15.06l.02-.11h.02v.02c.01-.01.01-.01.01-.02l.01-.01c.01 0 .02 0 .02.01l-.01.02h-.03l-.01.01c0 .01 0 .01-.01.02l-.01.06h-.01zm.15-.03h.02c-.01.01-.01.02-.02.02-.01.01-.02.01-.03.01-.02 0-.03-.01-.04-.02-.01-.01-.01-.02-.01-.04s.01-.03.02-.05h.05c.01 0 .03.01.03.02.01.01.01.03.01.05h-.08c0 .01 0 .02.01.03 0 .01.01.01.02.01s.01 0 .02-.01c-.01-.01 0-.01 0-.02m-.05-.03h.06v-.02c0-.01-.01-.01-.02-.01s-.02 0-.02.01c-.01 0-.02.01-.02.02m.09.03h.02v.02s.01.01.02.01h.02c.01 0 .01-.01.01-.01v-.01s-.01 0-.02-.01c-.01 0-.02-.01-.03-.01l-.01-.01v-.02s0-.01.01-.01l.01-.01s.01 0 .01-.01h.04c.01 0 .01.01.01.01v.02h-.02v-.02s-.01-.01-.02-.01h-.02l-.01.01v.01h.01s.01 0 .02.01c.01 0 .02.01.03.01l.01.01v.02c0 .01-.01.01-.01.02 0 0-.01.01-.02.01h-.02c-.01 0-.02 0-.03-.01-.01 0-.01-.01-.01-.02m.1.09l.03-.17h.02v.02c0-.01.01-.01.02-.01h.02c.01 0 .02 0 .03.01 0 0 .01.01.01.02v.03c0 .01-.01.02-.01.03-.01.01-.01.02-.02.02-.01.01-.02.01-.03.01 0 0-.01 0-.01-.01l-.01-.01-.01.06h-.04zm.04-.1v.03c0 .01.01.01.02.01s.01 0 .02-.01.01-.02.02-.03v-.03s-.01-.01-.02-.01-.02 0-.02.01c-.02 0-.02.01-.02.03m.17.02h.02c-.01.01-.01.02-.02.03-.01.01-.02.01-.03.01-.02 0-.03-.01-.04-.01-.01-.01-.01-.03-.01-.05.01-.02.01-.03.02-.04.01-.01.03-.02.04-.02.02 0 .03.01.03.02.01.01.01.02 0 .04v.01h-.08v.03c.01.01.01.01.02.01s.01 0 .02-.01c.02-.01.02-.01.03-.02m-.06-.03h.06v-.02c0-.01-.01-.01-.02-.01s-.02 0-.02.01-.01.01-.02.02m.12-.06v-.02h.02V20h-.02zm-.03.13l.02-.11h.02l-.02.11h-.02zm.09-.01v.02h-.03l-.01-.01v-.02l.01-.06h-.01v-.02h.01l.01-.03.02-.01-.01.04h.02v.02h-.02l-.02.07v.01c.02-.01.02-.01.03-.01m.09 0c-.01 0-.01.01-.02.01h-.02c-.01 0-.02 0-.03-.01 0-.01-.01-.01 0-.02 0-.01 0-.01.01-.02l.01-.01c.01 0 .01-.01.02-.01h.02c.01 0 .03 0 .04-.01v-.01-.02s-.01-.01-.02-.01h-.02c-.01 0-.01.01-.01.02h-.02c0-.01.01-.01.01-.02.01-.01.01-.01.02-.01h.02c.01 0 .02 0 .02.01 0 0 .01 0 .01.01v.03l-.02.04c0 .02-.01.03-.01.03v.01h-.02c.01 0 .01 0 .01-.01m.01-.04h-.03c-.01 0-.01 0-.02.01h-.01v.02s.01.01.02.01.01 0 .02-.01c.01 0 .01-.01.02-.01-.01 0 0-.01 0-.02zm.1.01c.01-.02.01-.04.03-.04.01-.01.02-.01.04-.01.01 0 .03.01.03.02.01.01.01.03.01.04 0 .02-.01.03-.01.04l-.02.02c-.01.01-.02.01-.03.01-.02 0-.03-.01-.04-.02-.01-.03-.02-.04-.01-.06m.02 0v.03c0 .01.01.01.02.01s.02 0 .03-.01c.01-.01.01-.02.02-.03v-.03c0-.01-.01-.01-.02-.01s-.02 0-.03.01c-.01 0-.02.01-.02.03m.14.1l.04-.16h.02v.01s.01-.01.02-.01h.02c.01 0 .02 0 .02.01s.01.01.01.02v.03c0 .01-.01.02-.01.03-.01.01-.01.02-.02.02s-.02.01-.03.01c-.01 0-.01 0-.02-.01l-.01-.01-.01.05-.03.01zm.04-.1v.03c0 .01.01.01.02.01s.02 0 .02-.01c.01-.01.01-.02.02-.03v-.03c0-.01-.01-.01-.02-.01s-.02 0-.02.01c-.01.01-.02.02-.02.03m.09.07l.02-.11h.02v.02c.01-.01.01-.01.02-.01 0 0 .01-.01.01 0 .01 0 .01 0 .02.01l-.01.02-.01-.01h-.02c-.01 0-.01.01-.01.01 0 .01-.01.01-.01.02l-.01.06h-.02v-.01zm.08-.05c0-.02.01-.04.03-.05.01-.01.02-.01.04-.01s.03.01.03.02c.01.01.01.02 0 .04 0 .02-.01.03-.01.03l-.02.02c-.01 0-.02.01-.03.01-.02 0-.03-.01-.03-.02-.02-.01-.02-.02-.01-.04m.01 0c-.01.02 0 .03 0 .04 0 .01.01.01.02.01s.02 0 .02-.01c.01-.01.01-.02.02-.03v-.03c-.01-.01-.01-.01-.02-.01s-.02 0-.03.01c0-.01 0 0-.01.02m.13-.07v-.02h.02l-.01.02h-.01zm-.07.18l.01-.01h.02s.01-.01.01-.02l.02-.12h.02l-.03.12c0 .01-.01.02-.01.03-.01.01-.01.01-.02.01-.01-.01-.01-.01-.02-.01m.17-.08h.02c-.01.01-.01.02-.02.03-.01.01-.02.01-.03.01-.02 0-.03-.01-.04-.02-.01-.01-.01-.02 0-.04 0-.02.01-.03.02-.04.01-.01.02-.02.04-.01.01 0 .02.01.03.02.01.01.01.03 0 .05h-.08v.03c.01.01.01.01.02.01h.02c.01-.02.01-.03.02-.04m-.06-.03h.06v-.02c0-.01-.01-.01-.02-.01s-.02 0-.02.01c-.01 0-.01.01-.02.02M22.81 20.15h.02c-.01.01-.01.02-.02.03-.01.01-.02.01-.03.01-.01 0-.03-.01-.03-.02-.01-.01-.01-.02 0-.04 0-.01.01-.02.01-.03.01-.01.01-.02.02-.02s.02-.01.03-.01c.01 0 .02 0 .03.01.01.01.01.02.01.03h-.02c0-.01 0-.01-.01-.02l-.01-.01c-.01 0-.02 0-.02.01-.01.01-.01.02-.02.03v.03c0 .01.01.01.02.01s.01 0 .02-.01c-.01.01 0 .01 0 0m.07.03v.02h-.03l-.01-.01v-.02l.02-.07h-.01v-.02h.01l.01-.03.02-.01-.01.04h.02v.02h-.02l-.02.07v.01h.02zm.02-.04c0-.02.01-.03.03-.04.01-.01.02-.01.04-.01s.03.01.03.02c.01.01.01.03 0 .04 0 .01-.01.03-.01.03l-.02.02c-.01 0-.02.01-.03.01-.02 0-.03-.01-.04-.02v-.05m.02 0v.03c.01.01.01.01.02.01s.02 0 .03-.01c.01-.01.01-.02.02-.03v-.03c0-.01-.01-.01-.02-.01s-.02 0-.02.01c-.02.01-.03.02-.03.03m.22.08v-.01c-.01.01-.02.02-.04.02-.01 0-.02 0-.02-.01-.01-.01-.01-.01-.01-.02v-.03c0-.01.01-.02.01-.03.01-.01.01-.02.02-.02h.05c.01 0 .01.01.01.01l.01-.06h.02l-.04.16-.01-.01zm-.04-.06v.03c0 .01.01.01.02.01s.02 0 .02-.01c.01-.01.01-.02.02-.03v-.04c0-.01-.01-.01-.02-.01s-.02 0-.02.01c-.01.01-.02.02-.02.04m.17.03h.02c-.01.01-.01.02-.02.02-.01.01-.02.01-.04.01s-.03-.01-.03-.02a.03.03 0 0 1 0-.04c.01-.02.01-.03.03-.04.01-.01.02-.02.04-.01.02 0 .02.01.03.02.01.01.01.03 0 .05v.01l-.08-.01v.03c.01.01.01.01.02.01h.02c0-.01.01-.02.01-.03m-.05-.03h.06v-.02c0-.01-.01-.01-.02-.01s-.02 0-.02.01c-.01 0-.02.01-.02.02m.26.04l.02.01c-.01.02-.02.03-.03.04-.01.01-.03.01-.04.01-.02 0-.03-.01-.04-.01-.01-.01-.01-.02-.02-.03v-.04c0-.02.01-.03.02-.04.01-.01.02-.02.03-.02.01-.01.03-.01.04-.01.01 0 .03.01.03.02.01.01.01.02.01.03h-.02c0-.01 0-.02-.01-.03 0-.01-.01-.01-.02-.01s-.02 0-.03.01c-.01.01-.02.01-.02.02-.01.01-.01.02-.01.03 0 .01-.01.03 0 .04 0 .01 0 .02.01.02s.02.01.03.01c.01 0 .02 0 .03-.01.01-.02.02-.03.02-.04zm.04 0c0-.02.01-.04.03-.05.01-.01.02-.01.04-.01s.02.01.03.02c.01.01.01.03 0 .04 0 .02-.01.03-.02.04l-.02.02c-.01 0-.02.01-.03 0-.02 0-.03-.01-.03-.02v-.04m.02 0v.03c.01.01.01.01.02.01s.02 0 .03-.01c.01-.01.01-.02.02-.03v-.03c0-.01-.01-.01-.02-.01s-.02 0-.02.01c-.02 0-.03.02-.03.03m.09.07l.04-.16h.02l-.04.16h-.02zm.12.01v-.02c-.01.01-.02.02-.04.02-.01 0-.01 0-.02-.01l-.01-.01v-.02s0-.01.01-.02l.02-.07h.02l-.02.06v.03l.01.01h.02c.01 0 .01-.01.01-.01.01 0 .01-.01.01-.02l.02-.06h.02l-.03.11-.02.01zm.04.01l.03-.11h.02l-.01.02c.01 0 .01-.01.02-.01h.02c.01 0 .01 0 .02.01.01 0 .01.01.01.02.01-.01.02-.02.04-.02.01 0 .02.01.02.01v.03l-.02.08h-.02l.02-.07v-.02-.01h-.04c-.01.01-.01.01-.01.03l-.02.07h-.02l.02-.07v-.02l-.01-.01h-.01c-.01 0-.01.01-.01.01s-.01.01-.01.02l-.02.06-.02-.02zm.19.03h-.02l.04-.16h.02l-.02.05c.01-.01.02-.01.03-.01.01 0 .01 0 .02.01l.01.01v.04c-.01.02-.01.03-.03.04-.01.01-.02.01-.04.01-.01 0-.02-.01-.03-.02l.02.03zm.02-.06c0 .01-.01.02 0 .03 0 .01.01.02.02.02s.02 0 .02-.01c.01-.01.01-.02.02-.03.01-.02.01-.03 0-.03 0-.01-.01-.01-.02-.02-.01 0-.02 0-.02.01-.01 0-.02.01-.02.03m.16.07c-.01 0-.02.01-.02.01h-.02c-.01 0-.02-.01-.02-.01-.01-.01-.01-.02-.01-.02 0-.01.01-.01.01-.02l.01-.01c.01 0 .01 0 .01-.01h.05v-.01-.02s-.01-.01-.02-.01h-.02c-.01 0-.01.01-.01.01h-.02c0-.01.01-.01.01-.02.01-.01.01-.01.02-.01h.03c.01 0 .01.01.02.01s.01.01.01.01v.03l-.01.03c-.01.02-.01.03-.01.03v.02h-.02l.01-.01zm.01-.05h-.05s-.01 0-.01.01v.02l.01.01h.02c.01 0 .01 0 .02-.01 0-.01 0-.01.01-.03zm.03.07l.04-.11h.02v.01c.01-.01.02-.01.04-.01.01 0 .01 0 .02.01.01 0 .01.01.01.01v.02s0 .01-.01.02l-.02.07h-.02l.02-.07v-.02s0-.01-.01-.01h-.04c-.01 0-.01.01-.02.03l-.02.06-.01-.01zm.12-.04c.01-.02.02-.04.03-.05.01-.01.03-.01.04-.01.01 0 .02.01.03.02.01.01.01.03 0 .04 0 .02-.01.03-.02.04-.01.01-.01.01-.02.01h-.03c-.02 0-.03-.01-.03-.02v-.03m.02 0v.04c0 .01.01.01.02.01s.02 0 .02-.01c.01-.01.02-.02.02-.03v-.03c0-.01-.01-.01-.02-.02-.01 0-.02 0-.03.01 0 0-.01.02-.01.03"/><path d="M24.78 20.86c-.01 0-.01 0-.02-.01-.02-.01-.02-.03-.01-.05l.46-.82c.01-.02.04-.03.05-.02.02.01.03.04.02.05l-.46.82c-.01.03-.02.03-.04.03" fill="#ea0020"/><path d="M13.47 12.42c2.61-.03 14.68 7.38 14.71 8.74l-.75 1.15c-.34-1.58-12.58-8.79-14.6-8.66l.64-1.23z" fill="#fcff2c"/><path d="M27.52 22.25l.59-1.01c.01-.01.02-.01.03-.01.01.01.02.02.01.03l-.63.99zM12.88 13.59l.55-1.12c.01-.01.02-.02.03-.01.01.01.02.02.01.03l-.59 1.1z"/><path d="M12.76 13.6c.49-.33 4.05 1.26 7.77 3.51 3.72 2.26 7.27 4.81 6.95 5.28l-.1.17-.05.04c.01-.01.06-.07-.01-.25-.16-.52-2.68-2.54-6.86-5.06-4.08-2.43-7.47-3.9-7.81-3.48l.11-.21zm15.5 7.64c.31-.61-3-3.1-7.1-5.52-4.19-2.38-7.21-3.78-7.76-3.36l-.12.22c0 .01 0-.01.03-.03.1-.09.27-.08.34-.08.95.01 3.66 1.26 7.47 3.45 1.67.97 7.05 4.42 7.03 5.4 0 .08.01.1-.03.14l.14-.22z" fill="#fcff2c"/><path d="M27.35 22.61l-.03-.03c-.01 0-.01 0-.01-.01 0 0 .05-.05-.01-.22-.16-.54-2.83-2.61-6.85-5.05-3.45-2.05-6.63-3.55-7.57-3.55-.11 0-.18.02-.21.06v-.01c0-.01 0-.02.01-.03l.05-.19c.05-.04.13-.05.22-.05.95 0 4.29 1.56 7.59 3.55 3.35 2.03 6.82 4.46 6.98 5.18.01.05.01.1-.02.14l-.11.17c-.01 0-.02.01-.03.02 0 .01-.01.02-.01.02m-14.46-8.9c.95 0 4.14 1.49 7.59 3.55 4.09 2.47 6.7 4.52 6.87 5.07.03.07.04.13.04.17l.08-.13c.02-.03.02-.06.01-.1-.15-.7-3.7-3.17-6.95-5.15-3.3-1.99-6.62-3.55-7.56-3.55-.09 0-.15.01-.18.04l-.06.13c.02-.02.08-.03.16-.03m15.25 7.74h-.01l-.01-.03-.01.02.01-.02c.01-.02.01-.03.01-.08.02-1-5.46-4.5-7.01-5.4-3.79-2.18-6.51-3.43-7.46-3.45-.1 0-.24 0-.33.08.09-.13.23-.13.31-.13.98.01 3.7 1.27 7.5 3.45 1.1.64 7.06 4.36 7.04 5.42v.02l.07-.1c.28-.56-2.83-2.97-7.09-5.49-4.5-2.55-7.24-3.73-7.74-3.36l-.1.19c-.02.01-.06.02-.06.02l.13-.24c.07-.06.18-.09.32-.09 1.17 0 4.71 1.87 7.48 3.43 3.7 2.19 7.45 4.88 7.11 5.55l-.12.19c-.03.02-.04.02-.04.02"/><path d="M15.51 18.13c0 1.4.57 2.66 1.5 3.59.93.93 2.19 1.51 3.59 1.51 1.41 0 2.68-.57 3.61-1.49.92-.92 1.5-2.2 1.5-3.6v-6.8l-10.2-.01v6.8z" fill="#fff"/><path d="M20.6 23.26c-1.35 0-2.63-.54-3.61-1.52a5.079 5.079 0 0 1-1.51-3.61v-6.81l10.22-.02.03 6.83c0 1.36-.54 2.65-1.51 3.62-.97.97-2.26 1.51-3.62 1.51m5.07-11.93l-10.17.02.03 6.78c0 1.34.53 2.61 1.49 3.57.97.97 2.24 1.5 3.57 1.5 1.35 0 2.63-.53 3.59-1.49s1.49-2.23 1.49-3.58v-6.8z"/><path d="M15.7 18.14c0 1.34.55 2.56 1.44 3.44.89.88 2.11 1.43 3.45 1.43 1.35 0 2.57-.55 3.45-1.43a4.82 4.82 0 0 0 1.43-3.44v-6.6H15.7v6.6zm7.81-4.62V18.16c0 .12-.01.25-.02.36-.08.67-.39 1.24-.84 1.69-.53.53-1.26.86-2.06.86s-1.51-.34-2.05-.87c-.55-.54-.86-1.29-.86-2.06V13.5l5.83.02z" fill="#ea0020"/><path d="M20.59 23.04c-1.3 0-2.54-.51-3.47-1.44a4.87 4.87 0 0 1-1.45-3.45l.01-6.6 9.8-.02.02 6.63c0 1.3-.51 2.53-1.44 3.46-.93.91-2.16 1.42-3.47 1.42m4.87-11.49l-9.75.02.02 6.57c0 1.29.51 2.51 1.43 3.43.92.92 2.14 1.43 3.43 1.43 1.3 0 2.52-.51 3.44-1.42.92-.92 1.43-2.13 1.43-3.42v-6.61zm-4.87 9.55c-.76 0-1.49-.31-2.06-.87-.55-.55-.87-1.31-.87-2.07V13.5l5.86.01.02 4.22v.45c0 .11-.01.25-.02.36-.08.64-.37 1.23-.84 1.71-.57.55-1.31.85-2.09.85m-2.89-7.57v4.62c0 .76.31 1.5.86 2.04a2.857 2.857 0 0 0 4.08.01c.47-.47.75-1.05.83-1.68.01-.11.02-.25.02-.36v-4.65l-5.79.02z"/><path d="M19.98 17.39c0 .19.07.36.19.49s.28.21.46.21.34-.08.45-.2c.12-.13.19-.3.19-.49v-.92h-1.29v.91z" fill="#1a0095"/><path d="M20.98 16.69c-.07 0-.13.06-.13.13s.06.13.13.13.13-.06.13-.13-.06-.13-.13-.13M20.63 17.03c-.07 0-.13.06-.13.13s.06.13.13.13.13-.06.13-.13c-.01-.07-.06-.13-.13-.13M20.98 17.39c-.07 0-.13.06-.13.13s.06.13.13.13.13-.06.13-.13-.06-.13-.13-.13M20.29 17.39c-.07 0-.13.06-.13.13s.06.13.13.13.13-.06.13-.13-.06-.13-.13-.13M20.29 16.69c-.07 0-.13.06-.13.13s.06.13.13.13.13-.06.13-.13-.06-.13-.13-.13" fill="#fff"/><path d="M19.97 19.61c0 .19.07.37.19.49.12.13.28.2.46.2s.34-.08.46-.2c.12-.13.19-.3.19-.49v-.93h-1.29l-.01.93z" fill="#1a0095"/><path d="M20.98 18.91c-.07 0-.13.06-.13.13s.06.13.13.13.13-.06.13-.13-.06-.13-.13-.13M20.62 19.25c-.07 0-.13.06-.13.13s.06.13.13.13.13-.06.13-.13-.06-.13-.13-.13M20.98 19.61c-.07 0-.13.06-.13.13s.06.13.13.13.13-.06.13-.13-.06-.13-.13-.13M20.28 19.61c-.07 0-.13.06-.13.13s.06.13.13.13.13-.06.13-.13-.06-.13-.13-.13M20.28 18.91c-.07 0-.13.06-.13.13s.06.13.13.13.13-.06.13-.13c0-.08-.06-.13-.13-.13" fill="#fff"/><path d="M18.19 17.4c0 .19.07.37.19.49.12.13.28.21.46.21s.34-.08.45-.2c.12-.13.19-.3.19-.49v-.93h-1.29v.92z" fill="#1a0095"/><path d="M19.2 16.7c-.07 0-.13.06-.13.13s.06.13.13.13.13-.06.13-.13-.06-.13-.13-.13M18.84 17.04c-.07 0-.13.06-.13.13s.06.13.13.13.13-.06.13-.13-.06-.13-.13-.13M19.2 17.4c-.07 0-.13.06-.13.13s.06.13.13.13.13-.06.13-.13-.06-.13-.13-.13M18.5 17.4c-.07 0-.13.06-.13.13s.06.13.13.13.13-.06.13-.13-.06-.13-.13-.13M18.5 16.69c-.07 0-.13.06-.13.13s.06.13.13.13.13-.06.13-.13-.06-.13-.13-.13" fill="#fff"/><path d="M21.76 17.4c0 .19.07.36.19.49s.28.21.46.21.34-.08.45-.21c.12-.12.19-.3.19-.49v-.93h-1.29v.93z" fill="#1a0095"/><path d="M22.77 16.69c-.07 0-.13.06-.13.13s.06.13.13.13.13-.06.13-.13c-.01-.07-.06-.13-.13-.13M22.41 17.04c-.07 0-.13.06-.13.13s.06.13.13.13.13-.06.13-.13-.06-.13-.13-.13M22.76 17.4c-.07 0-.13.06-.13.13s.06.13.13.13.13-.06.13-.13c0-.08-.06-.13-.13-.13M22.07 17.4c-.07 0-.13.06-.13.13s.06.13.13.13.13-.06.13-.13-.06-.13-.13-.13M22.07 16.69c-.07 0-.13.06-.13.13s.06.13.13.13.13-.06.13-.13-.06-.13-.13-.13" fill="#fff"/><path d="M19.98 15.16c0 .19.07.36.19.49s.28.2.46.2.34-.08.45-.2c.12-.13.19-.3.19-.49v-.93h-1.29v.93z" fill="#1a0095"/><path d="M20.98 14.45c-.07 0-.13.06-.13.13s.06.13.13.13.13-.06.13-.13-.06-.13-.13-.13M20.63 14.8c-.07 0-.13.06-.13.13s.06.13.13.13.13-.06.13-.13-.06-.13-.13-.13M20.98 15.16c-.07 0-.13.06-.13.13s.06.13.13.13.13-.06.13-.13-.06-.13-.13-.13M20.29 15.16c-.07 0-.13.06-.13.13s.06.13.13.13.13-.06.13-.13c-.01-.07-.06-.13-.13-.13M20.29 14.45c-.07 0-.13.06-.13.13s.06.13.13.13.13-.06.13-.13c-.01-.07-.06-.13-.13-.13" fill="#fff"/><path d="M16.33 13.27c.01-.47.35-.59.35-.59s.36.12.36.59h-.71z" fill="#fcff2c"/><path d="M16.04 12.69l-.06.55h.36c0-.45.34-.53.35-.52.01 0 .34.1.35.52h.36l-.07-.55h-1.29z" fill="#fcff2c"/><path d="M17.42 13.26h-.38c-.03-.43-.35-.52-.35-.53 0 0-.32.07-.33.5l-.38.02.04-.57 1.31-.02.09.6zm-.77-.56l-.61.01-.04.53.33-.02c-.01-.37.22-.49.32-.52m.07 0c.09.03.34.16.34.54l.31-.02-.06-.53-.59.01z"/><path d="M15.96 13.24h1.45c.03 0 .06.03.06.07 0 .04-.03.07-.06.07h-1.45c-.03 0-.06-.03-.06-.07 0-.04.03-.07.06-.07" fill="#fcff2c"/><path d="M17.41 13.39h-1.45c-.04 0-.08-.04-.08-.09 0-.05.04-.09.08-.09h1.45c.04 0 .08.04.08.09 0 .06-.04.09-.08.09m-1.45-.13v.09h1.45c.02 0 .03-.02.03-.04l-1.48-.05z"/><path d="M16.49 13.24c0-.28.19-.36.19-.36s.2.08.2.36h-.39z" fill="#fcff2c"/><path d="M16.91 13.25h-.42c-.02-.32.18-.4.19-.41.02 0 .23.09.23.39v.02zm-.24-.36c.01 0-.16.08-.16.35l.35-.02c-.01-.25-.18-.33-.19-.33"/><path d="M15.99 12.46h1.4c.03 0 .05.03.05.06s-.02.06-.05.06h-1.4c-.03 0-.05-.03-.05-.06s.02-.06.05-.06" fill="#fcff2c"/><path d="M17.38 12.6h-1.4c-.04 0-.07-.03-.07-.08s.03-.08.07-.08h1.4c.04 0 .07.03.07.08.01.05-.02.08-.07.08m-1.39-.11v.08h1.4c.02 0 .03-.02.03-.04l-1.43-.04z"/><path d="M16.02 12.59h1.33c.03 0 .05.03.05.06s-.02.06-.05.06h-1.33c-.03 0-.05-.03-.05-.06 0-.04.02-.06.05-.06" fill="#fcff2c"/><path d="M17.35 12.73h-1.33c-.04 0-.07-.04-.07-.08 0-.05.03-.08.07-.08h1.33c.04 0 .07.04.07.08s-.03.08-.07.08m-1.33-.13v.08h1.33c.02 0 .03-.02.03-.04l-1.36-.04z"/><path d="M16.45 11.68h.11v.08h.08v-.08h.11v.08h.08v-.08h.11v.17c0 .03-.02.04-.05.04h-.39c-.03 0-.05-.02-.05-.05v-.16z" fill="#fcff2c"/><path d="M16.88 11.91h-.4l-.05-.07v-.17l.13-.02.02.1.05-.02-.02-.05.13-.02.02.1.06-.02-.02-.05.13-.02.02.22-.07.02zm-.35-.23l-.09.02.02.15.41.05.02-.04v-.17l-.09.02.02.06-.1.02-.02-.1-.09.02.02.06-.1.02v-.11z"/><path fill="#fcff2c" d="M16.85 11.91l.02.55h-.37l.03-.55z"/><path d="M16.89 12.48h-.39v-.58l.34-.02.05.6zm-.07-.57l-.3.02v.54l.33-.02-.03-.54z"/><path d="M16.91 11.95h.1v.07h.07v-.08h.11v.08h.07v-.08h.11v.17c0 .02-.02.04-.05.04h-.37c-.03 0-.05-.02-.05-.05v-.15z" fill="#fcff2c"/><path d="M17.33 12.18h-.39l-.05-.07v-.17l.12-.02.02.1.06-.02-.02-.05.13-.02.02.1.05-.03-.02-.05.13-.02.02.22-.07.03zm-.34-.23l-.08.02.02.15.4.05.03-.04v-.17l-.09.02.02.05-.1.02-.02-.1-.08.02.02.05-.1.02-.02-.09z"/><path fill="#fcff2c" d="M17.31 12.16l.01.3h-.36l.01-.3z"/><path d="M17.34 12.48h-.38l-.01-.32.35-.02.04.34zm-.05-.32l-.31.02.01.28.31-.02-.01-.28z"/><path d="M16 11.95h.1v.08h.07v-.08h.11v.08h.08v-.08h.11v.17c0 .03-.02.04-.05.04h-.37c-.02 0-.05-.02-.05-.04v-.17z" fill="#fcff2c"/><path d="M16.42 12.18h-.39l-.05-.07v-.17l.13-.02.02.1.04-.02-.02-.06.13-.02.02.1.06-.02-.02-.06.13-.02.02.22-.07.04zm-.34-.23l-.08.02.02.15.4.04.02-.04v-.17l-.08.02.02.06-.1.02-.02-.1-.08.02.02.06-.1.02-.02-.1z"/><path fill="#fcff2c" d="M16.4 12.16l.01.3h-.36l.01-.3z"/><path d="M16.43 12.48h-.38l-.01-.32.36-.02.03.34zm-.06-.32l-.31.02.01.28.31-.02-.01-.28zM16.65 12.08c0-.05.07-.06.07 0v.13h-.07v-.13zM17.1 12.27c0-.05.07-.05.07 0v.1h-.07v-.1z"/><path d="M16.19 12.27c0-.05.07-.05.07 0v.1h-.07v-.1z"/><path d="M20.37 11.68h.11v.08h.08v-.08h.11v.08h.08v-.08h.11v.17c0 .03-.02.04-.05.04h-.38c-.02 0-.05-.02-.05-.04l-.01-.17z" fill="#fcff2c"/><path d="M20.8 11.91h-.4l-.05-.07v-.17l.13-.02.02.1.05-.02-.02-.06.13-.02.02.1.05-.02-.02-.06.13-.02.02.22-.06.04zm-.34-.23l-.09.02.02.15.41.04.02-.04v-.17l-.09.02.02.06-.1.02-.02-.1-.09.02.02.06-.1.02v-.1z"/><path fill="#fcff2c" d="M20.77 11.91l.02.55h-.36l.02-.55z"/><path d="M20.82 12.48h-.39v-.58l.34-.02.05.6zm-.07-.57l-.3.02v.53l.33-.02-.03-.53z"/><path d="M20.83 11.95h.1v.07h.08v-.08h.11v.08h.07v-.08h.11v.17c0 .03-.02.04-.05.04h-.37c-.02 0-.05-.02-.05-.04v-.16z" fill="#fcff2c"/><path d="M21.25 12.18h-.39l-.05-.06v-.17l.12-.02.02.1.06-.03-.02-.06.13-.02.02.1.05-.02-.02-.06.13-.02.02.22-.07.04zm-.34-.23l-.08.02.02.15.4.04.03-.04v-.17l-.09.02.02.06-.1.02-.02-.1-.08.02.02.06-.1.02-.02-.1z"/><path fill="#fcff2c" d="M21.23 12.16l.01.3h-.35l.01-.3z"/><path d="M20.87 12.48l.01-.32.36-.02.03.32-.4.02zm.34-.32l-.31.02.01.26h.33l-.03-.28z"/><path d="M19.92 11.95h.1v.07h.08v-.08h.11v.08h.07v-.08h.11v.17c0 .02-.02.04-.05.04h-.37c-.02 0-.05-.02-.05-.04v-.16z" fill="#fcff2c"/><path d="M20.34 12.18h-.39l-.05-.07v-.17l.13-.02.02.1.05-.02-.02-.05.13-.02.02.1.05-.03-.02-.05.13-.02.02.21-.07.04zm-.34-.23l-.08.02.02.15.4.04.02-.04v-.17l-.08.02.02.05-.1.02-.02-.1-.08.02.02.05-.1.02-.02-.08z"/><path fill="#fcff2c" d="M20.32 12.16l.01.3h-.35l.01-.3z"/><path d="M20.35 12.48h-.38l-.01-.32.35-.02.04.34zm-.05-.32l-.31.02.01.28.31-.02-.01-.28z"/><path d="M20.26 13.27c.01-.47.35-.59.35-.59s.36.12.36.59h-.71z" fill="#fcff2c"/><path d="M19.97 12.69l-.06.55h.36c0-.45.34-.53.35-.52.01 0 .34.1.35.52h.36l-.06-.55h-1.3z" fill="#fcff2c"/><path d="M21.34 13.26h-.38c-.03-.43-.35-.52-.36-.53 0 0-.32.07-.32.5l-.38.02.04-.57 1.31-.02.09.6zm-.77-.56l-.6.01-.04.52.33-.02c-.01-.36.22-.48.31-.51m.07 0c.09.04.33.16.34.54l.31-.02-.06-.53-.59.01z"/><path d="M19.88 13.24h1.46c.03 0 .05.03.05.07 0 .04-.02.07-.05.07h-1.46c-.03 0-.06-.03-.06-.07.01-.04.03-.07.06-.07" fill="#fcff2c"/><path d="M21.34 13.39h-1.46c-.04 0-.08-.04-.08-.09 0-.05.03-.09.08-.09h1.46c.04 0 .08.04.08.09-.01.06-.04.09-.08.09m-1.46-.13v.09h1.46c.02 0 .03-.02.03-.04l-1.49-.05z"/><path d="M20.41 13.24c0-.28.19-.36.19-.36s.2.08.2.36h-.39z" fill="#fcff2c"/><path d="M20.83 13.26h-.42c-.02-.32.18-.4.19-.41.02 0 .23.09.23.38v.03zm-.23-.37c.01 0-.16.08-.16.35l.35-.02c-.01-.25-.19-.33-.19-.33"/><path d="M19.91 12.46h1.39c.03 0 .05.03.05.06s-.02.06-.05.06h-1.39c-.03 0-.05-.03-.05-.06s.02-.06.05-.06" fill="#fcff2c"/><path d="M21.31 12.61h-1.4c-.04 0-.07-.04-.07-.08s.03-.08.07-.08h1.4c.04 0 .07.04.07.08s-.03.08-.07.08m-1.4-.12v.08h1.4c.02 0 .03-.02.03-.04l-1.43-.04z"/><path d="M19.94 12.59h1.33c.03 0 .05.03.05.06s-.02.06-.05.06h-1.33c-.03 0-.05-.03-.05-.06 0-.04.03-.06.05-.06" fill="#fcff2c"/><path d="M21.28 12.73h-1.33c-.04 0-.07-.03-.07-.08s.03-.08.07-.08h1.33c.04 0 .07.04.07.08s-.03.08-.07.08m-1.34-.12v.08h1.33c.02 0 .03-.02.03-.04l-1.36-.04zM20.57 12.08c0-.05.07-.05.07 0v.13h-.07v-.13zM21.03 12.27c0-.05.07-.05.07 0v.1h-.07v-.1zM20.12 12.27c0-.05.07-.05.07 0v.1h-.07v-.1z"/><path d="M24.26 11.68h.1v.07h.08v-.08h.11v.08h.08v-.08h.11v.17c0 .03-.02.04-.05.04h-.38c-.03 0-.05-.02-.05-.04v-.16z" fill="#fcff2c"/><path d="M24.68 11.91h-.4l-.05-.06v-.17l.13-.02.02.1.06-.02-.02-.05.13-.02.02.1.05-.02-.02-.05.13-.02.02.21-.07.02zm-.34-.23l-.08.02.02.15.41.04.02-.04v-.17l-.09.02.02.05-.1.02-.02-.1-.09.02.02.05-.1.02-.01-.08z"/><path fill="#fcff2c" d="M24.65 11.91l.03.55h-.37l.02-.55z"/><path d="M24.7 12.49h-.39v-.58l.34-.02.05.6zm-.07-.58l-.3.02v.53l.32-.02-.02-.53z"/><path d="M24.71 11.95h.1v.07h.08v-.08H25v.08h.08v-.08h.11v.17c0 .03-.02.04-.05.04h-.37c-.02 0-.05-.02-.05-.04l-.01-.16z" fill="#fcff2c"/><path d="M25.13 12.19h-.39l-.05-.07v-.17l.13-.02.02.1.05-.03-.02-.05.13-.02.02.1.05-.03-.02-.05.13-.02.02.22-.07.04zm-.33-.24l-.08.02.02.15.4.04.02-.04v-.17l-.08.02.02.06-.1.01-.02-.1-.08.02.02.06-.1.02-.02-.09z"/><path fill="#fcff2c" d="M25.11 12.17l.01.29h-.35l.01-.29z"/><path d="M25.15 12.49h-.38l-.01-.32.35-.02.04.34zm-.06-.32l-.31.02.01.28.31-.02-.01-.28z"/><path d="M23.8 11.95h.1v.07h.08v-.07h.11v.07h.08v-.07h.11v.17c0 .03-.02.04-.05.04h-.37c-.03 0-.05-.02-.05-.05v-.16z" fill="#fcff2c"/><path d="M24.22 12.19h-.39l-.05-.07v-.17l.12-.02.02.1.06-.03-.02-.05.13-.02.02.1.05-.03-.02-.05.13-.02.02.22-.07.04zm-.34-.24l-.08.02.02.15.4.05.02-.04v-.17l-.08.02.02.05-.1.02-.02-.1-.08.02.02.05-.1.02-.02-.09z"/><path fill="#fcff2c" d="M24.2 12.17l.01.3h-.35l.01-.3z"/><path d="M24.24 12.49h-.38l-.01-.32.35-.02.04.34zm-.06-.32l-.31.02.01.28.31-.02-.01-.28z"/><path d="M24.14 13.27c.01-.47.35-.59.35-.59s.36.12.36.59h-.71z" fill="#fcff2c"/><path d="M23.85 12.69l-.06.55h.36c0-.45.34-.53.35-.53.01 0 .34.1.35.53h.35l-.06-.55h-1.29z" fill="#fcff2c"/><path d="M25.23 13.26h-.38c-.03-.43-.35-.52-.35-.52s-.32.07-.33.5l-.38.02.04-.57 1.31-.02.09.59zm-.77-.56l-.61.01-.04.53.33-.02c-.01-.37.22-.48.32-.52m.06 0c.09.03.34.16.34.54l.31-.02-.06-.53-.59.01z"/><path d="M23.77 13.24h1.45c.03 0 .06.03.06.07 0 .04-.03.07-.06.07h-1.45c-.03 0-.06-.03-.06-.07 0-.04.02-.07.06-.07" fill="#fcff2c"/><path d="M25.22 13.4h-1.45c-.04 0-.08-.04-.08-.09 0-.05.03-.09.08-.09h1.45c.04 0 .08.04.08.09 0 .05-.04.09-.08.09m-1.45-.14v.09h1.45c.02 0 .03-.02.03-.05l-1.48-.04z"/><path d="M24.29 13.24c0-.28.19-.36.19-.36s.2.08.2.36h-.39z" fill="#fcff2c"/><path d="M24.71 13.26h-.42c-.02-.32.18-.4.19-.41.02 0 .23.09.23.39v.02zm-.23-.37c.01 0-.16.08-.17.34l.35-.02c0-.24-.17-.31-.18-.32"/><path d="M23.8 12.47h1.39c.03 0 .05.03.05.06s-.02.06-.05.06H23.8c-.03 0-.05-.03-.05-.06-.01-.03.02-.06.05-.06" fill="#fcff2c"/><path d="M25.19 12.61H23.8c-.04 0-.08-.04-.08-.08s.04-.08.08-.08h1.39c.04 0 .07.04.07.08.01.04-.03.08-.07.08m-1.39-.12v.08h1.39c.02 0 .03-.02.03-.04l-1.42-.04z"/><path d="M23.82 12.59h1.34c.03 0 .05.03.05.06 0 .04-.02.06-.05.06h-1.34c-.03 0-.05-.02-.05-.06 0-.04.03-.06.05-.06" fill="#fcff2c"/><path d="M25.16 12.73h-1.34c-.04 0-.07-.04-.07-.08s.03-.08.07-.08h1.34c.04 0 .07.04.07.08s-.03.08-.07.08m-1.34-.12v.08h1.34c.02 0 .03-.02.03-.04l-1.37-.04zM24.45 12.09c0-.05.08-.05.07 0v.13h-.07v-.13zM24.91 12.28c0-.05.07-.05.07 0v.1h-.07v-.1zM24 12.28c0-.05.07-.05.07 0v.1H24v-.1z"/><path d="M16.45 15.66h.1v.08h.08v-.08h.11v.08h.08v-.08h.11v.17c0 .03-.02.04-.05.04h-.38c-.02 0-.05-.02-.05-.04v-.17z" fill="#fcff2c"/><path d="M16.88 15.89h-.4l-.05-.06v-.17l.13-.02.02.1.06-.02-.02-.06.13-.02.02.1.06-.02-.02-.06.13-.02.02.21-.08.04zm-.34-.23l-.09.02.02.15.41.04.03-.04v-.17l-.09.02.02.06-.1.02-.02-.1-.09.02.02.06-.1.02-.01-.1z"/><path fill="#fcff2c" d="M16.85 15.89l.02.55h-.37l.03-.56.32.01z"/><path d="M16.89 16.46h-.39v-.58l.34-.02.05.6zm-.06-.57l-.3.02v.54l.33-.02-.03-.54z"/><path d="M16.91 15.93h.1V16h.07v-.08h.11V16h.08v-.08h.11v.17c0 .03-.02.04-.05.04h-.37c-.02 0-.05-.02-.05-.04v-.16z" fill="#fcff2c"/><path d="M17.33 16.16h-.39l-.05-.06v-.17l.13-.02.02.1.05-.02-.02-.06.13-.02.02.1.05-.02-.02-.06.13-.02.02.21-.07.04zm-.34-.23l-.08.02.02.15.4.04.02-.04v-.17l-.09.02.03.05-.1.02-.02-.1-.09.02.03.06-.09.02-.03-.09z"/><path fill="#fcff2c" d="M17.31 16.14l.01.3h-.36l.01-.3z"/><path d="M17.34 16.46h-.38l-.01-.32.35-.02.04.34zm-.05-.32l-.31.02.01.28.31-.02-.01-.28z"/><path d="M16 15.93h.1V16h.08v-.08h.11V16h.07v-.08h.11v.17c0 .02-.02.04-.05.04h-.37c-.03 0-.05-.02-.05-.05v-.15z" fill="#fcff2c"/><path d="M16.42 16.16h-.39l-.05-.07v-.17l.12-.02.02.1.06-.02-.02-.06.13-.02.01.1.06-.02-.02-.06.13-.02.02.21-.07.05zm-.34-.23l-.08.02.02.15.4.05.03-.04v-.17l-.09.02.02.04-.1.02-.02-.1-.09.02.03.06-.1.02-.02-.09z"/><path fill="#fcff2c" d="M16.4 16.14l.01.3h-.36l.01-.3z"/><path d="M16.43 16.46h-.38l-.01-.32.35-.02.04.34zm-.05-.32l-.31.02.01.28.31-.02-.01-.28z"/><path d="M16.33 17.25c.01-.47.35-.59.35-.59s.36.12.36.59h-.71z" fill="#fcff2c"/><path d="M16.04 16.67l-.06.55h.36c0-.45.34-.53.35-.53.01 0 .34.1.35.53h.36l-.06-.55h-1.3z" fill="#fcff2c"/><path d="M17.42 17.24h-.38c-.03-.43-.35-.52-.36-.52 0 0-.32.07-.32.5l-.38.02.04-.57 1.31-.02.09.59zm-.77-.56l-.61.01-.04.53.33-.02c-.01-.37.23-.49.32-.52m.07 0c.09.03.34.16.35.54l.31-.02-.06-.53-.6.01z"/><path d="M15.96 17.22h1.45c.03 0 .06.03.06.07 0 .04-.03.07-.06.07h-1.45c-.03 0-.06-.03-.06-.07 0-.04.03-.07.06-.07" fill="#fcff2c"/><path d="M17.41 17.37h-1.45c-.04 0-.08-.04-.08-.09 0-.05.03-.09.08-.09h1.45c.04 0 .08.04.08.09 0 .06-.03.09-.08.09m-1.45-.13v.09h1.45c.02 0 .04-.02.04-.04l-1.49-.05z"/><path d="M16.49 17.21c0-.28.19-.36.19-.36s.2.08.2.36h-.39z" fill="#fcff2c"/><path d="M16.91 17.24h-.42c-.02-.31.18-.41.2-.41.02 0 .22.09.22.39v.02zm-.23-.37c0 .01-.17.09-.17.35l.36-.02c-.01-.25-.18-.33-.19-.33"/><path d="M15.99 16.44h1.39c.03 0 .05.03.05.06s-.02.06-.05.06h-1.39c-.03 0-.05-.03-.05-.06s.02-.06.05-.06" fill="#fcff2c"/><path d="M17.39 16.59H16c-.04 0-.08-.03-.08-.08 0-.04.03-.08.08-.08h1.39c.04 0 .07.04.07.08s-.03.08-.07.08m-1.4-.13v.08h1.39c.02 0 .03-.02.03-.04l-1.42-.04z"/><path d="M16.02 16.57h1.33c.03 0 .05.03.05.06s-.02.06-.05.06h-1.33c-.03 0-.05-.02-.05-.06 0-.04.02-.06.05-.06" fill="#fcff2c"/><path d="M17.35 16.71h-1.33c-.04 0-.07-.04-.07-.08s.03-.08.07-.08h1.33c.04 0 .07.04.07.08.01.04-.03.08-.07.08m-1.33-.12v.08h1.33c.02 0 .03-.02.03-.04l-1.36-.04zM16.65 16.06c0-.05.07-.05.07 0v.13h-.07v-.13zM17.11 16.25c0-.05.07-.05.07 0v.1h-.07v-.1zM16.19 16.25c0-.05.07-.05.07 0v.1h-.07v-.1z"/><path d="M24.03 19.85l.07.08-.05.05.05.05.05-.05.08.08-.05.05.06.06.05-.05.08.08-.12.12c-.02.02-.05.02-.07 0l-.27-.27a.048.048 0 0 1 0-.07l.12-.13z" fill="#fcff2c"/><path d="M24.21 20.35l-.05-.02-.28-.28.01-.08.12-.12.1.07-.05.08.05.02.02-.05.11.08-.05.08.05.02.02-.05.11.08-.16.17zm-.2-.48l-.09.12.29.33.02-.03.12-.12-.08-.05-.02.05-.08-.05.05-.08-.08-.04-.02.05-.09-.05.05-.08-.07-.05z"/><path fill="#fcff2c" d="M24.14 20.3l-.37.41-.26-.27.41-.37z"/><path d="M23.77 20.74l-.28-.28.41-.41.26.23-.39.46zm.13-.65l-.38.38.24.22.36-.39-.22-.21z"/><path d="M24.16 20.37l.07.07-.05.05.05.05.05-.05.07.08-.05.05.05.05.05-.05.08.08-.12.12c-.02.02-.05.02-.06 0l-.26-.26a.048.048 0 0 1 0-.07l.12-.12z" fill="#fcff2c"/><path d="M24.34 20.86l-.05-.02-.28-.28.01-.08.12-.12.1.07-.05.08.05.02.02-.05.11.07-.05.08.05.02.02-.05.1.07-.15.19zm-.2-.48l-.09.12.28.33.01-.03.12-.12-.07-.04-.02.05-.09-.05.06-.08-.08-.05-.02.06-.08-.05.05-.08-.07-.06z"/><path fill="#fcff2c" d="M24.29 20.8l-.2.22-.25-.25.21-.2z"/><path d="M24.09 21.05l-.27-.27.22-.24.27.24-.22.27zm-.05-.47l-.19.21.23.2.19-.2-.23-.21z"/><path d="M23.51 19.73l.07.07-.05.05.05.06.05-.06.08.07-.05.05.05.05.05-.05.08.07-.12.12c-.02.02-.05.02-.07 0l-.26-.26a.048.048 0 0 1 0-.07l.12-.1z" fill="#fcff2c"/><path d="M23.69 20.21l-.05-.02-.26-.27v-.09l.12-.12.1.07-.05.08.05.02.02-.05.11.07-.05.1.05.02.02-.05.1.08-.16.16zm-.19-.47l-.09.12.28.33.01-.03.12-.12-.07-.04-.02.05-.08-.05.05-.09-.07-.04-.02.05-.08-.06.05-.08-.08-.04z"/><path fill="#fcff2c" d="M23.64 20.16l-.2.22-.25-.25.22-.2z"/><path d="M23.44 20.41l-.27-.27.22-.24.27.24-.22.27zm-.05-.47l-.19.21.23.21.19-.21-.23-.21z"/><path d="M22.82 20.9c.34-.33.66-.17.66-.17s.17.34-.16.68l-.5-.51z" fill="#fcff2c"/><path d="M23.02 20.28l-.43.35.25.25c.32-.32.61-.13.62-.12.01 0 .17.31-.12.62l.25.25.34-.44-.91-.91z" fill="#fcff2c"/><path d="M23.6 21.66l-.27-.27c.28-.32.12-.61.12-.62 0 0-.08-.05-.21-.05s-.26.06-.38.18l-.28-.25.43-.38.94.91-.35.48zm-.1-.89c.02.03.03.09.04.16.01.11-.01.29-.18.46l.23.21.33-.42-.42-.41zm-.49-.47l-.4.35.25.22c.16-.2.47-.2.58-.15l-.43-.42z"/><path d="M22.58 20.61l1.03 1.03c.02.02.02.06-.01.09s-.07.03-.09.01l-1.03-1.03c-.02-.02-.02-.06.01-.09.02-.03.06-.03.09-.01" fill="#fcff2c"/><path d="M23.55 21.77l-.05-.02-1.03-1.03c-.03-.03-.03-.08.01-.12l.07-.03 1.08 1.05c.03.03.03.08-.01.12l-.07.03zm-1.05-1.08l1.05 1.06.04-.04-1.02-1.09-.08.08.01-.01z"/><path d="M22.95 20.98c.2-.2.4-.12.4-.12s.08.2-.11.4l-.29-.28z" fill="#fcff2c"/><path d="M23.23 21.3l-.3-.3c.22-.27.41-.16.42-.15.02.02.1.23-.11.43l-.01.02zm.02-.43c-.07 0-.17.02-.28.13l.26.24c.16-.17.11-.33.1-.36 0 0-.03-.01-.08-.01"/><path d="M23.14 20.09l.99.99c.02.02.02.06-.01.08a.06.06 0 0 1-.08 0l-.99-.99a.06.06 0 0 1 0-.08c.04-.02.07-.03.09 0z" fill="#fcff2c"/><path d="M24.08 21.19l-.05-.02-.99-.99a.071.071 0 0 1 .01-.11l.11-.01.99.99c.03.03.02.08 0 .11l-.07.03zm-.95-1.09l-.05.06 1.01 1.01.03-.03-.99-1.04z"/><path d="M23.08 20.19l.94.95c.02.02.02.05-.01.08-.02.03-.06.03-.08.01l-.94-.94a.053.053 0 0 1 .01-.08c.02-.04.06-.04.08-.02" fill="#fcff2c"/><path d="M23.97 21.26l-.05-.02-.94-.94c-.03-.03-.02-.08.01-.11l.11-.01.94.94c.03.03.02.08-.01.11l-.06.03zm-.9-1.05l-.06.06.96.97.03-.04-.93-.99zM23.88 20.27c.03-.04.09.01.05.05l-.09.09-.05-.05.09-.09zM24.07 20.73c.04-.04.09.01.05.05l-.07.07-.05-.05.07-.07zM23.42 20.08c.04-.04.09.01.05.05l-.07.07-.05-.05.07-.07z"/><path d="M24.25 15.66h.1v.08h.08v-.08h.11v.08h.08v-.08h.11v.17c0 .03-.02.04-.05.04h-.38c-.02 0-.05-.02-.05-.05v-.16z" fill="#fcff2c"/><path d="M24.68 15.89h-.4l-.05-.07v-.17l.13-.02.02.1.05-.02-.02-.05.13-.02.02.1.05-.02-.02-.05.13-.02.02.22-.06.02zm-.35-.23l-.08.02.02.15.41.05.03-.04v-.17l-.09.02.02.06-.1.02-.02-.1-.09.02.02.06-.1.02-.02-.11z"/><path fill="#fcff2c" d="M24.65 15.89l.02.55h-.37l.03-.55z"/><path d="M24.69 16.46h-.39v-.58l.34-.02.05.6zm-.07-.57l-.3.02v.54l.33-.02-.03-.54z"/><path d="M24.71 15.93h.1V16h.07v-.08h.11V16h.08v-.08h.11v.17c0 .02-.02.04-.05.04h-.37c-.02 0-.05-.02-.05-.05v-.15z" fill="#fcff2c"/><path d="M25.13 16.16h-.39l-.05-.07v-.17l.13-.02.02.1.05-.02-.02-.05.13-.02.02.1.05-.02-.02-.05.13-.02.02.22-.07.02zm-.34-.23l-.08.02.02.15.4.05.02-.04v-.17l-.08.02.02.04-.1.02-.02-.1-.08.02.02.06-.1.02-.02-.09z"/><path fill="#fcff2c" d="M25.11 16.14l.01.3h-.36l.01-.3z"/><path d="M25.14 16.46h-.38l-.01-.32.36-.02.03.34zm-.05-.32l-.31.02.01.28.31-.02-.01-.28z"/><path d="M23.8 15.93h.1V16h.08v-.08h.11V16h.08v-.08h.11v.17c0 .03-.02.04-.05.04h-.37c-.02 0-.05-.02-.05-.04v-.16z" fill="#fcff2c"/><path d="M24.22 16.16h-.39l-.05-.06v-.17l.12-.02.02.1.05-.02-.02-.05.13-.02.02.08.05-.02-.02-.05.13-.02.02.22-.06.03zm-.34-.23l-.08.02.02.15.4.04.03-.04v-.17l-.08.02.01.05-.1.02-.02-.1-.08.02.02.06-.1.02-.02-.09z"/><path fill="#fcff2c" d="M24.2 16.14l.01.3h-.36l.01-.3z"/><path d="M23.83 16.46l.01-.32.36-.02.03.32-.4.02zm.35-.32l-.31.02.01.26h.33l-.03-.28z"/><path d="M24.13 17.25c.01-.47.35-.59.35-.59s.36.12.36.59h-.71z" fill="#fcff2c"/><path d="M23.84 16.67l-.06.55h.36c0-.45.34-.53.35-.53.01 0 .34.1.35.53h.35l-.06-.55h-1.29z" fill="#fcff2c"/><path d="M25.22 17.24h-.38c-.03-.43-.35-.52-.35-.53 0 0-.32.07-.33.5l-.38.02.04-.57 1.31-.02.09.6zm-.77-.56l-.61.01-.04.53.33-.02c-.01-.37.22-.49.32-.52m.07 0c.1.04.33.18.34.54l.31-.02-.06-.53-.59.01z"/><path d="M23.76 17.22h1.45c.03 0 .06.03.06.07 0 .04-.03.07-.06.07h-1.45c-.03 0-.06-.03-.06-.07 0-.04.03-.07.06-.07" fill="#fcff2c"/><path d="M25.21 17.37h-1.45c-.04 0-.08-.04-.08-.09 0-.05.03-.09.08-.09h1.45c.04 0 .08.04.08.09 0 .06-.03.09-.08.09m-1.45-.13v.09h1.45c.02 0 .04-.02.04-.04l-1.49-.05z"/><path d="M24.29 17.22c0-.28.19-.36.19-.36s.2.08.2.36h-.39z" fill="#fcff2c"/><path d="M24.71 17.24h-.42c-.02-.32.18-.4.19-.41.02 0 .23.09.23.39v.02zm-.24-.37c.01.01-.16.08-.17.35l.35-.02c0-.25-.17-.33-.18-.33"/><path d="M23.79 16.44h1.39c.03 0 .05.03.05.06s-.02.06-.05.06h-1.39c-.03 0-.05-.03-.05-.06s.02-.06.05-.06" fill="#fcff2c"/><path d="M25.18 16.59h-1.39c-.04 0-.08-.04-.08-.08 0-.05.03-.08.08-.08h1.39c.04 0 .07.03.07.08.01.04-.02.08-.07.08m-1.39-.12v.08h1.39c.02 0 .03-.02.03-.04l-1.42-.04z"/><path d="M23.82 16.57h1.33c.03 0 .05.03.05.06s-.02.06-.05.06h-1.33c-.03 0-.05-.03-.05-.06 0-.04.02-.06.05-.06" fill="#fcff2c"/><path d="M25.15 16.71h-1.33c-.04 0-.07-.04-.07-.08 0-.05.03-.08.07-.08h1.33c.04 0 .07.04.07.08.01.04-.03.08-.07.08m-1.33-.12v.08h1.33c.02 0 .03-.02.03-.04l-1.36-.04zM24.45 16.06c0-.05.07-.05.07 0v.13h-.07v-.13zM24.91 16.25c0-.05.07-.05.07 0v.1h-.07v-.1zM23.99 16.25c0-.05.07-.05.07 0v.1h-.07v-.1z"/><path d="M16.84 20.18l.07-.07.05.05.05-.05-.05-.05.08-.08.05.05.05-.05-.05-.05.08-.08.12.12c.02.02.02.05 0 .07l-.27.27c-.02.02-.05.02-.07 0l-.11-.13z" fill="#fcff2c"/><path d="M16.99 20.34l-.05-.02-.12-.12.07-.1.08.05.03-.06-.05-.02.08-.11.08.05.02-.05-.05-.02.08-.11.17.14-.02.08-.32.29zm-.09-.22l-.04.07.14.12.02-.03.27-.27-.12-.16-.05.08.05.02-.05.09-.08-.06-.05.08.05.02-.05.08-.09-.04z"/><path fill="#fcff2c" d="M17.28 20.07l.41.37-.26.26-.38-.41z"/><path d="M17.43 20.73l-.39-.42.23-.26.44.37-.28.31zm-.16-.65l-.2.23.36.36.25-.24-.41-.35z"/><path d="M17.35 20.05l.07-.07.05.05.05-.05-.05-.05.07-.07.05.05.05-.05-.05-.05.08-.07.12.12c.02.02.02.04 0 .06l-.26.26c-.02.02-.05.02-.07 0l-.11-.13z" fill="#fcff2c"/><path d="M17.5 20.2l-.05-.02-.12-.12.07-.1.08.05.02-.05-.05-.02.07-.1.08.05.02-.05-.05-.02.08-.11.15.13v.08l-.3.28zm-.09-.21l-.04.07.14.12.02-.03.26-.26-.12-.16-.05.07.06.02-.05.08-.08-.05-.04.08.05.02-.05.08-.1-.04z"/><path fill="#fcff2c" d="M17.79 19.92l.22.2-.26.26-.2-.22z"/><path d="M17.75 20.41l-.22-.24.24-.26.25.2-.27.3zm.02-.47l-.21.23.19.17.24-.24-.22-.16z"/><path d="M16.71 20.69l.07-.07.05.05.05-.05-.05-.05.07-.07.05.05.05-.05-.06-.05.07-.07.12.12c.02.02.01.05 0 .06l-.26.26c-.02.02-.05.02-.07 0l-.09-.13z" fill="#fcff2c"/><path d="M16.86 20.85l-.05-.02-.12-.12.07-.1.08.05.02-.05-.05-.02.08-.1.08.05.03-.06-.05-.02.07-.1.15.13v.09l-.31.27zm-.09-.21l-.04.07.14.12.02-.03.26-.26-.12-.16-.04.08.05.02-.05.08-.08-.05-.05.07.05.02-.05.08-.09-.04z"/><path fill="#fcff2c" d="M17.14 20.57l.22.2-.25.25-.2-.22z"/><path d="M17.11 21.05l-.22-.24.24-.26.25.2-.27.3zm.02-.47l-.21.23.19.17.24-.23-.22-.17z"/><path d="M17.88 21.39c-.33-.34-.17-.66-.17-.66s.34-.17.67.16l-.5.5z" fill="#fcff2c"/><path d="M17.26 21.19l.34.43.25-.25c-.32-.32-.13-.61-.13-.62.01-.01.31-.17.62.12l.25-.25-.43-.34-.9.91z" fill="#fcff2c"/><path d="M17.61 21.65l-.36-.45.91-.94.46.34-.25.28c-.15-.11-.28-.17-.41-.17-.13 0-.21.05-.21.05s-.18.27.13.58l-.27.31zm.09-.88l-.42.43.33.38.24-.24a.5.5 0 0 1-.19-.44c0-.05.02-.1.04-.13m.26-.1c.15 0 .29.06.41.18l.22-.25-.43-.31-.41.42c.04-.01.12-.04.21-.04"/><path d="M17.59 21.63l1.03-1.03c.02-.02.06-.02.09.01s.03.07.01.09l-1.03 1.03c-.02.02-.06.02-.09-.01-.03-.02-.03-.06-.01-.09" fill="#fcff2c"/><path d="M17.65 21.76l-.07-.03c-.03-.03-.04-.09-.01-.12l1.03-1.03c.08-.02.1-.01.12.01.03.03.04.09.01.12l-1.08 1.05zm1.01-1.15l-1.05 1.04-.01.07.05.02.02-.03 1.03-1.03.01-.07h-.05z"/><path d="M17.97 21.26c-.2-.2-.12-.39-.12-.39s.2-.08.4.12l-.28.27z" fill="#fcff2c"/><path d="M17.97 21.29l-.02-.01c-.21-.21-.13-.41-.13-.42.03-.03.22-.11.44.11l-.29.32zm-.12-.41c.01 0-.06.16.11.35l.27-.27c-.19-.13-.37-.08-.38-.08"/><path d="M17.07 21.07l.99-.99a.06.06 0 0 1 .08 0c.02.02.03.06.01.08l-.99.99a.06.06 0 0 1-.08 0c-.03-.03-.03-.06-.01-.08" fill="#fcff2c"/><path d="M17.12 21.19l-.06-.03v-.1l.99-.99h.11c.03.03.03.08.01.11l-1.05 1.01zm0-.05v.02l.02-.03.99-.99.01-.07h-.04l-1.01 1-.01.06.04.01z"/><path d="M17.17 21.13l.94-.94c.02-.02.06-.02.08.01.02.02.03.06.01.08l-.94.94c-.02.02-.06.02-.08-.01-.02-.02-.03-.06-.01-.08" fill="#fcff2c"/><path d="M17.23 21.25l-.06-.03c-.03-.03-.04-.08-.01-.11l.94-.94.11.01c.03.03.04.08.01.11l-.99.96zm0-.04v.02l.02-.03.94-.94.01-.07h-.04l-.96.95-.01.06.04.01zM17.27 20.32c-.04-.04.01-.09.05-.05l.09.09-.05.05-.09-.09zM17.72 20.13c-.04-.04.01-.09.05-.05l.07.07-.05.05-.07-.07zM17.08 20.78c-.04-.03.01-.09.05-.05l.07.07-.05.05-.07-.07z"/></svg>