<svg xmlns="http://www.w3.org/2000/svg" viewBox="0 0 58.92 34.37"><path fill="#3e7fcd" d="M0 17.18h58.92v17.19H0z"/><path fill="#fff" d="M0 0h58.92v17.19H0z"/><path d="M29.77 9.08c-.04 0-.08.01-.12.01h-.19c-.1 0-.2-.01-.31-.01.02.14.15.25.31.25.15-.01.28-.11.31-.25" fill="#376fb8"/><path d="M29.46 9.33c-.16 0-.29-.11-.32-.26h.59v.01l-.08.01c-.17.01-.33 0-.5-.01.06.22.43.29.56.1-.03.09-.13.15-.25.15"/><path d="M29.46 8.73c-.16 0-.28.11-.31.25.04 0 .08-.01.12-.01h.38c.04 0 .08.01.12.01a.304.304 0 0 0-.31-.25" fill="#376fb8"/><path d="M29.78 8.99l-.13-.01c-.12-.01-.25-.01-.37 0l-.11.01v-.01l.11-.02c.12-.01.25-.01.37 0l.11.01c-.05-.27-.54-.27-.59 0 .02-.31.56-.29.61 0v.02z"/><path fill="#e1c025" d="M29.5 8.55v.16l.02.02h-.12l.02-.02v-.16h-.16l-.02.02v-.12l.02.02h.16V8.3l-.02-.02h.12l-.02.02v.17h.16l.03-.02v.12l-.03-.02z"/><path d="M29.52 8.74h-.12l.01-.19h-.06l.07-.01.01.17.06.01v-.17l.17-.01.01-.06.03.09-.2-.01.02.16z"/><path fill-rule="evenodd" clip-rule="evenodd" fill="#c1b020" d="M29.26 9.25h.4v.21h-.4z"/><path d="M29.67 9.48h-.42l-.01-.22.41-.01.02.23zm-.02-.23l-.4.01.01.2.39-.01v-.2z"/><path d="M29.41 8.73c0 .04-.01.07-.01.1v.13h.12v-.13c0-.04-.01-.07-.01-.1h-.1" fill="#e1c025"/><path d="M29.77 8.97c-.07-.02-.2-.03-.31-.03-.1 0-.23.02-.31.03 0 .02-.01.03-.01.05 0 .02 0 .03.01.05.1.01.2.01.31.01h.19c.04 0 .08-.01.12-.01v-.05-.05" fill="#e1c025"/><path d="M29.46 9.1c-.1 0-.2-.01-.31-.01v-.03c.16.01.33.02.49.01h.08l.04-.04v.05l-.12.01c-.05.01-.12.01-.18.01m-.31-.03v-.1c.15-.03.48-.03.62 0v.04l-.01-.03c-.06-.01-.19-.03-.29-.03-.11 0-.23.02-.31.03l-.01.09z"/><path d="M33.03 11.19c-.01.04-.03.09-.06.13l-.37-.42c.03-.08.03-.11.02-.2-.04-.32-.55-.64-1.16-.69-.61-.04-1.71-.64-2-.44.11-.13.36-.13.68-.08.08.03.17.05.25.08.21.07.44.15.64.22.1.03.2.06.3.08l.14.03c.04.01.08.01.12.02l.22.03c.07.01.14.03.21.06.07.02.13.05.19.08s.12.06.17.1c.05.03.1.07.14.11l.11.11c.03.04.06.08.08.12.01.02.02.04.02.06.01.02.01.04.01.06.01.04.01.07 0 .1 0 .03-.01.06-.03.1l.32.34z" fill="#e1c025"/><path d="M32.97 11.34l-.38-.43c.02-.09.03-.12.02-.2-.04-.29-.51-.63-1.15-.68-.26-.02-.61-.14-.95-.25-.46-.16-.9-.3-1.04-.19.08-.14.34-.15.67-.09l.45.15c.15.05.31.11.45.15.11.03.2.06.3.08.05.01.09.02.13.03.04.01.08.01.12.02l.23.03.21.06c.07.02.13.05.19.08s.12.06.17.09c.05.03.1.07.14.11.04.03.08.07.11.11.03.04.05.08.08.12l.04.12c.01.04.01.07 0 .1 0 .03-.01.06-.02.1l.3.34c-.01.06-.03.1-.07.15zm-3.34-1.82c.21 0 .54.11.88.23.34.12.68.24.95.26.59.04 1.12.36 1.17.69.01.08.01.12-.02.2l.36.41c.02-.04.04-.07.05-.12l-.3-.34c.01-.05.02-.07.02-.1v-.1l-.04-.11c-.02-.04-.05-.08-.07-.12a.573.573 0 0 0-.11-.11c-.04-.04-.09-.07-.14-.11-.05-.03-.11-.07-.17-.09-.06-.03-.12-.05-.19-.08-.07-.02-.14-.04-.21-.05l-.22-.03c-.04 0-.08-.01-.12-.01-.04-.01-.09-.02-.14-.03-.09-.02-.19-.05-.3-.08l-.45-.15-.44-.15c-.3-.05-.54-.04-.64.05.02-.05.07-.06.13-.06"/><path d="M33.03 11.19l-.31-.35c.01-.04.02-.07.03-.1v-.1c0-.02-.01-.04-.01-.06-.01-.02-.01-.04-.02-.06a.418.418 0 0 0-.08-.12c-.03-.04-.07-.08-.11-.11s-.09-.07-.14-.11c-.05-.03-.11-.07-.17-.1-.06-.03-.12-.05-.19-.08l-.21-.06-.22-.03c-.04 0-.08-.01-.12-.02-.04-.01-.09-.02-.14-.03-.09-.02-.19-.05-.3-.08-.21-.07-.43-.15-.64-.22-.09-.03-.17-.06-.25-.08.49.08 1.12.28 1.52.32.66.06 1.32.51 1.38 1.06 0 .13.01.23-.02.33" fill="#e1c025"/><path d="M33.04 11.21l-.32-.36c.01-.04.02-.07.02-.1v-.1l-.04-.12c-.02-.04-.05-.08-.08-.12a.573.573 0 0 0-.11-.11c-.04-.04-.09-.07-.14-.11-.05-.03-.11-.07-.17-.09-.06-.03-.12-.06-.19-.08-.07-.02-.14-.04-.21-.05a.833.833 0 0 0-.22-.03c-.04 0-.08-.01-.12-.01l-.13-.03c-.09-.02-.19-.05-.3-.08-.15-.05-.3-.1-.45-.16l-.44-.15c.23.02.48.08.73.14.3.07.58.14.8.17.62.06 1.33.48 1.39 1.06.01.11.02.21-.01.32l-.01.01zm-2.91-1.7l.45.13c.15.05.31.11.45.15.1.03.2.06.3.08.05.01.09.02.13.03.04.01.08.01.12.02l.23.03.21.06c.07.02.13.05.19.08s.12.06.17.1c.05.03.1.07.14.11.04.03.08.07.11.12.03.04.05.08.08.12l.04.12c.01.04.01.07 0 .1 0 .03-.01.06-.02.1l.29.33c.02-.09.01-.18 0-.29-.06-.57-.76-.99-1.37-1.05-.22-.02-.5-.09-.8-.16a3.99 3.99 0 0 0-.72-.18"/><path d="M25.89 11.19c.01.04.03.09.06.13l.37-.43a.338.338 0 0 1-.02-.2c.04-.32.55-.64 1.16-.69.61-.04 1.71-.64 2-.44-.1-.13-.36-.13-.68-.08-.08.03-.17.05-.25.08-.21.07-.44.15-.64.22-.1.03-.2.06-.3.08-.05.01-.09.02-.13.03s-.08.01-.12.02l-.22.03c-.07.01-.15.03-.21.06-.07.02-.13.05-.19.08s-.12.06-.17.1c-.05.03-.1.07-.14.11l-.11.11c-.03.04-.06.08-.08.12-.01.02-.02.04-.02.06-.01.02-.01.04-.01.06a.17.17 0 0 0 0 .1c0 .03.01.06.03.1l-.33.35z" fill="#e1c025"/><path d="M25.95 11.34a.308.308 0 0 1-.07-.14l.31-.36-.03-.09v-.1l.04-.12c.02-.04.05-.08.08-.12.03-.04.07-.08.11-.12.04-.04.09-.07.14-.11.05-.03.11-.07.17-.1.06-.03.12-.05.19-.08l.21-.06.23-.03c.04 0 .08-.01.12-.01l.13-.03c.09-.02.19-.05.3-.08l.45-.15.44-.15c.34-.05.59-.04.69.08-.2-.05-.6.04-1.06.2-.34.11-.69.24-.95.25-.64.04-1.11.39-1.15.68a.4.4 0 0 0 .02.19l-.37.45zm3.17-1.87c-.1 0-.21.01-.34.03l-.44.15c-.15.05-.31.11-.45.15-.11.03-.2.06-.3.08-.05.01-.09.02-.13.03-.04.01-.08.01-.12.01l-.22.03c-.07.01-.14.03-.21.05-.07.02-.13.05-.19.08s-.12.06-.17.09c-.05.03-.1.07-.14.11-.04.03-.08.07-.11.11-.03.04-.06.08-.08.12l-.05.12h.01a.17.17 0 0 0 0 .1c0 .03.01.06.02.1l-.3.37c.02.04.03.07.06.11l.37-.42c-.03-.07-.04-.11-.02-.19.05-.33.58-.65 1.17-.69.26-.02.61-.14.94-.25.47-.16.9-.3 1.06-.19a.573.573 0 0 0-.36-.1"/><path d="M25.89 11.19l.31-.35c-.01-.04-.02-.07-.03-.1v-.1c0-.02.01-.04.01-.06.01-.02.01-.04.02-.06.02-.04.05-.08.08-.12.03-.04.07-.08.11-.11s.09-.07.14-.11c.05-.03.11-.07.17-.1.06-.03.12-.05.19-.08l.21-.06.22-.03c.04 0 .08-.01.12-.02l.13-.03c.09-.02.19-.05.3-.08.21-.07.43-.15.64-.22.09-.03.17-.06.25-.08-.49.08-1.12.28-1.52.32-.65.06-1.32.51-1.38 1.06.01.13 0 .23.03.33" fill="#e1c025"/><path d="M25.89 11.21l-.01-.02c-.03-.1-.02-.21-.01-.32.06-.58.77-1 1.39-1.07.22-.02.5-.09.8-.17.25-.06.5-.12.72-.16l-.44.17c-.15.05-.31.11-.45.15-.1.03-.2.06-.3.08-.05.01-.09.02-.13.03-.04.01-.08.01-.12.01l-.22.03c-.07.01-.14.03-.21.05-.07.02-.13.05-.19.08s-.12.06-.17.09c-.05.03-.1.07-.14.11-.04.03-.08.07-.11.11-.03.04-.06.08-.08.12l-.05.11h.01a.17.17 0 0 0 0 .1c0 .03.01.06.03.1l-.32.4zm2.89-1.72c-.22.05-.47.12-.72.18-.3.07-.58.14-.8.16-.61.06-1.31.48-1.37 1.05-.01.11-.02.2 0 .29l.29-.34-.03-.09v-.1l.04-.12c.02-.04.05-.08.08-.12.03-.04.07-.08.11-.11.04-.04.09-.07.14-.11.05-.03.11-.07.17-.09.06-.03.12-.06.19-.08l.21-.06.23-.03c.04 0 .08-.01.12-.02l.13-.03c.09-.02.19-.05.3-.08.15-.04.3-.1.45-.16l.46-.14z"/><path d="M29.45 12.8c-1 0-1.89.13-2.52.32.05-.02-.02-.25-.09-.41-.08-.2-.19-.23-.19-.23.7-.21 1.73-.35 2.81-.35s2.11.14 2.81.35c0 0-.14.04-.21.25-.07.17-.12.38-.07.4-.63-.21-1.54-.33-2.54-.33" fill="#e1c025"/><path d="M31.98 13.12c-1.31-.4-3.73-.41-5.04 0 .01-.03.03-.09-.1-.42-.07-.19-.19-.22-.19-.23h.01c.74-.23 1.78-.36 2.79-.36 1.03 0 2.08.13 2.81.35 0 .02-.13.06-.21.26-.08.2-.11.37-.07.39v.01zm-5.31-.65c.03 0 .12.06.19.23.11.27.13.4.08.42.65-.22 1.57-.34 2.51-.34.94 0 1.85.12 2.51.31-.03-.08.04-.28.08-.39.08-.2.22-.25.22-.25-1.44-.39-4.1-.41-5.59.02"/><path d="M29.46 12.17c-1.08 0-2.04.13-2.74.34-.05.01-.1-.01-.11-.05-.01-.04.01-.09.06-.11.7-.22 1.69-.35 2.79-.35s2.1.14 2.8.35c.05.01.07.06.06.11-.01.04-.06.06-.11.05-.7-.21-1.67-.34-2.75-.34" fill="#e1c025"/><path d="M32.23 12.52l-.03-.01c-.72-.21-1.7-.33-2.74-.33-1.04 0-2.01.12-2.74.33-.07.01-.11-.02-.12-.05l.01-.07c.01-.02.03-.04.06-.05.73-.23 1.72-.35 2.8-.35 1.06 0 2.08.13 2.8.35l.06.05c.01.02.01.05.01.07-.03.03-.06.06-.11.06m-2.77-.36c1.04 0 2.02.12 2.75.34h.03c.03 0 .06-.02.07-.04l-.05-.1c-.72-.22-1.74-.35-2.79-.35-1.07 0-2.06.13-2.79.35l-.06.1h.01c.01.03.04.04.07.04.74-.22 1.72-.34 2.76-.34"/><path d="M29.46 11.34l.09.02c-.02.04-.02.08-.02.13 0 .2.17.36.38.36.17 0 .31-.11.36-.25.01 0 .04-.13.05-.13.01 0 .01.14.02.14.02.18.19.31.37.31.21 0 .37-.16.37-.36v-.05l.12-.12.06.15c-.03.05-.04.1-.04.16 0 .19.16.35.36.35.12 0 .23-.06.3-.15l.08-.1v.12c0 .12.05.23.16.25 0 0 .13.01.31-.13.17-.14.27-.26.27-.26l.02.14s-.14.23-.3.32c-.09.05-.22.1-.32.09-.11-.02-.19-.11-.23-.21a.523.523 0 0 1-.75-.22c-.1.11-.24.17-.4.17-.17 0-.33-.08-.42-.2a.549.549 0 0 1-.82-.1c-.11.13-.28.23-.47.23a.53.53 0 0 1-.37-.14c-.1.12-.26.2-.42.2-.16 0-.3-.07-.4-.17a.523.523 0 0 1-.75.22c-.04.1-.12.2-.23.21-.1.02-.24-.04-.32-.09-.16-.09-.3-.32-.3-.32l.01-.14s.1.12.27.26c.18.14.31.13.31.13.11-.02.17-.13.17-.25v-.12l.08.1c.07.09.17.15.3.15a.35.35 0 0 0 .32-.51l.07-.15.12.12v.05c0 .2.17.36.37.36.19 0 .35-.12.37-.31.01 0 0-.14.02-.14s.05.13.05.13c.05.14.19.25.36.25.21 0 .38-.16.38-.36 0-.04 0-.09-.02-.13l.06-.01z" fill="#e1c025"/><path d="M32.13 12.33h-.04c-.1-.02-.19-.1-.24-.22-.23.18-.64.04-.75-.22-.18.24-.62.22-.82-.02-.2.22-.65.17-.82-.09-.15.26-.59.31-.82.09-.17.24-.61.26-.82.02-.09.27-.48.39-.75.23-.04.11-.12.2-.22.21-.19 0-.28-.06-.33-.09-.16-.09-.3-.32-.3-.32l.01-.15c.01-.02.11.11.28.25.16.13.27.13.3.13.1-.02.16-.1.16-.24v-.12l.09.09c.07.09.18.15.29.15.19 0 .35-.15.35-.34 0-.06-.01-.11-.03-.15l.06-.16.13.12c0 .24.16.4.36.4.19 0 .34-.13.36-.3.01-.13.01-.14.03-.14.01 0 .02.02.05.09.14.43.73.28.73-.07 0-.04 0-.08-.02-.12l.11-.03.1.02c-.01.05-.01.1-.01.14 0 .19.16.35.36.35.16 0 .3-.1.35-.24.04-.12.05-.14.06-.14.01 0 .02.02.02.11.03.21.18.34.37.34.2 0 .36-.16.36-.35l.01-.02c0 .23-.17.39-.38.39-.2 0-.36-.13-.38-.32-.01-.07-.01-.13-.01-.13 0 .01-.01.06-.02.08-.15.45-.77.29-.77-.07 0-.04 0-.09.02-.13l-.09-.01-.09.02c.02.03.03.07.03.12 0 .2-.17.37-.39.37-.17 0-.31-.1-.36-.26-.02-.07-.04-.12-.05-.12v.09c-.03.22-.19.35-.38.35-.21 0-.38-.17-.38-.37l-.11-.16-.05.15c.02.04.04.09.04.15a.367.367 0 0 1-.67.2l-.08-.1.02.11c0 .14-.07.24-.17.26-.01 0-.15 0-.31-.13-.17-.14-.27-.26-.27-.26v.13s.14.23.3.32c.05.03.16.09.28.09.13-.02.22-.09.26-.21.31.14.64.03.75-.23.24.22.63.21.82-.03.25.21.65.16.82-.09.2.26.6.3.82.09.22.24.61.26.82.03.13.26.49.38.75.22.06.12.14.2.24.21h.04c.11 0 .24-.07.27-.09.15-.09.3-.32.3-.32l-.01-.13c-.01.03-.1.13-.26.26s-.28.14-.31.14c-.11-.02-.18-.12-.18-.26v-.12l-.06.1a.367.367 0 0 1-.67-.2c0-.06.01-.12.04-.16l-.06-.14-.03.04.03-.05.08.15c-.02.05-.04.1-.04.16 0 .19.16.34.35.34.12 0 .23-.06.29-.15l.08-.1.02.13c0 .13.06.22.16.24.03 0 .15-.01.3-.13.17-.14.27-.25.27-.25l.03.15c-.01.01-.15.24-.31.33-.06.02-.19.09-.31.09"/><path d="M26.82 11.78c0-.09.07-.16.16-.16s.16.07.16.16-.07.16-.16.16-.16-.07-.16-.16" fill="#e1e2e3"/><path d="M26.98 11.95c-.1 0-.17-.08-.17-.17 0-.19.34-.19.35 0 0 .09-.08.17-.18.17m0-.32c-.09 0-.15.07-.15.15 0 .17.3.17.3 0 .01-.09-.06-.15-.15-.15"/><path d="M31.78 11.78c0-.09.07-.16.16-.16s.16.07.16.16-.07.16-.16.16-.16-.07-.16-.16" fill="#e1e2e3"/><path d="M31.94 11.95c-.09 0-.17-.08-.17-.17 0-.19.34-.19.34 0 .01.09-.07.17-.17.17m0-.32c-.08 0-.15.07-.15.15 0 .17.3.17.3 0 .01-.09-.06-.15-.15-.15"/><path d="M28.46 11.49c0-.09.07-.16.16-.16s.16.07.16.16-.07.16-.16.16-.16-.07-.16-.16" fill="#e1e2e3"/><path d="M28.62 11.66c-.09 0-.17-.08-.17-.17 0-.19.34-.19.34 0 0 .09-.07.17-.17.17m0-.32c-.08 0-.15.07-.15.15 0 .17.3.17.3 0 0-.08-.06-.15-.15-.15"/><path d="M30.16 11.49c0-.09.07-.16.16-.16s.16.07.16.16-.07.16-.16.16-.16-.07-.16-.16" fill="#e1e2e3"/><path d="M30.32 11.66c-.1 0-.17-.08-.17-.17 0-.19.34-.19.35 0 0 .09-.08.17-.18.17m0-.32c-.09 0-.15.07-.15.15 0 .17.3.17.3 0 .01-.08-.06-.15-.15-.15"/><path d="M26.32 12.02c.05.02.06.03.14.03.08 0 .25-.05.25-.05s-.05-.03-.07-.06c-.02-.04-.02-.06-.06-.09-.04-.04-.11-.04-.11-.04l-.03-.05.05-.01s.03.05.09.07c.06.02.17-.05.17-.05s-.05-.11-.12-.13c-.06-.01-.08 0-.08 0l-.04-.04.03-.02s.08.03.12.01c.04-.02.03-.05.05-.11.01-.05.04-.11.04-.11s-.06 0-.11-.02-.08-.07-.14-.04c-.06.03-.05.06-.07.1-.02.03-.07.04-.07.04l-.01-.05s.05-.01.07-.07c.01-.06 0-.11 0-.11s-.08.01-.12.05-.02.05-.04.07c-.03.02-.06.02-.06.02s-.01-.04.01-.06c.02-.02.02-.02.05-.04.03-.02.08-.12.08-.12h-.07c-.03 0-.07.02-.08.01-.01-.01 0-.01-.02-.07-.02-.06-.06-.1-.06-.1-.04.01-.07.03-.12.06-.05.04-.04.03-.1.09a.356.356 0 0 0-.23 0c.17.15.17.15.25.32.01.02.03.04.04.06.01.02.03.04.04.06.03.05.05.1.08.15.02.05.04.09.06.13l.03.06c.02.02.03.04.05.06.03 0 .09.03.11.05" fill-rule="evenodd" clip-rule="evenodd" fill="#e1c025"/><path d="M26.47 12.06h-.01c-.08 0-.09 0-.15-.03l-.1-.07c-.02-.02-.03-.04-.05-.06l-.04-.06c-.02-.04-.04-.09-.06-.13a.638.638 0 0 0-.08-.14c-.01-.02-.03-.04-.04-.06l-.04-.06c-.08-.17-.08-.18-.25-.32.08-.06.17-.04.24-.01l.04-.05c.1-.07.13-.09.17-.1.01.01.04.05.07.1v.03l-.02-.02c-.02-.06-.05-.1-.06-.1-.01 0-.04.02-.09.06l-.1.09a.305.305 0 0 0-.23 0c.17.12.17.13.24.28.03.04.04.06.06.08.01.02.03.04.04.06.03.05.05.1.08.15.02.05.04.09.06.14.05.08.07.1.08.12l.09.07v-.01c.05.02.06.03.14.03l.01.01v-.01c.07 0 .18-.03.22-.04-.02 0-.05-.03-.06-.05-.02-.05-.03-.07-.06-.09-.04-.03-.1-.04-.1-.04l-.03-.07c.02 0 .03 0 .05.01-.01.05.05.05.1.09.03.03.04.05.05.07.03.05.08.09.08.09-.02-.01-.16.04-.25.04m.15-.23c-.08-.02-.12-.06-.13-.08.03.01.06.04.1.05.07 0 .15-.03.16-.04-.01 0-.06-.1-.11-.11h-.01l-.09-.02.01-.07c.01 0 .05.02.09.02.05-.02.06-.04.07-.07.02-.07.04-.13.04-.15-.01.01-.06 0-.1-.02l-.1-.05c-.06.02-.07.04-.08.07-.03.07-.09.08-.09.08v-.04c.02.01.05 0 .07-.02.01-.05.02-.08.07-.1.06-.01.08.01.11.02.08.04.15.05.15.05.01.01-.01.07-.03.13-.02.07-.02.1-.05.12-.07.01-.12-.01-.13-.01l.09.05v-.01c.06.01.12.12.12.13-.02.02-.1.07-.16.07m-.25-.43c.01-.03.03-.04.04-.08.01-.05 0-.09 0-.1 0 .01-.07.01-.1.05l-.07.07-.01-.02.04-.02c.06-.1.15-.1.15-.1.01.01.03.07.01.13-.01.04-.04.06-.06.07"/><path d="M26.18 11.9c.09-.04.11-.16.05-.29-.07-.13-.2-.2-.29-.17 0 0-.01 0-.01.01 0 .02 0 .02.01.04l.03.12a.3.3 0 0 0 .04.1c.02.02.04.05.06.07.02.03.05.05.08.07.01.03.02.03.03.05" fill="#e1c025"/><path d="M26.18 11.91v-.02a.12.12 0 0 0 .07-.07c.02-.06.01-.13-.03-.2-.05-.1-.15-.17-.24-.17-.04.09-.03.13-.01.17a.3.3 0 0 0 .04.1c.01.02.03.05.06.07.02.03.05.05.08.07l.03.05-.02-.01c-.06-.05-.09-.08-.11-.1-.02-.03-.05-.05-.06-.08-.01-.03-.03-.06-.04-.1l-.03-.12.06-.07c.09 0 .2.07.25.18.04.08.05.16.03.22-.01.03-.04.06-.08.08z"/><path d="M25.98 11.7c-.05-.09-.08-.17-.01-.2.07-.02.16.03.21.13.05.09.04.19-.03.21-.07.02-.12-.05-.17-.14" fill="#e1e2e3"/><path d="M26.12 11.86c-.06 0-.11-.08-.15-.16-.05-.09-.06-.14-.05-.17l.08-.04c.06 0 .14.06.18.14.03.06.04.12.02.17-.01.03-.03.05-.05.06h-.03zm-.12-.35c-.07.07-.04.14-.01.19.04.07.08.14.14.14v.01l.02-.01c.06-.09.05-.14.02-.2-.04-.08-.11-.13-.17-.13"/><path d="M32.6 12.02c-.05.02-.07.03-.14.03-.08 0-.25-.05-.25-.05s.05-.03.07-.06c.02-.04.02-.06.06-.09.04-.04.11-.04.11-.04l.03-.05-.05-.01s-.03.05-.09.07c-.06.02-.17-.05-.17-.05s.05-.11.12-.13c.06-.01.08 0 .08 0l.04-.04-.03-.02s-.08.03-.12.01c-.04-.02-.03-.05-.05-.11-.01-.05-.04-.11-.04-.11s.06 0 .11-.02.08-.07.14-.04c.05.03.05.06.06.1.02.03.07.04.07.04l.01-.05s-.05-.01-.07-.07c-.01-.06 0-.11 0-.11s.08.01.12.05c.03.04.02.05.04.07.03.02.05.02.05.02s.01-.04-.01-.06c-.02-.02-.02-.02-.05-.04-.03-.02-.08-.12-.08-.12h.07c.03 0 .07.02.08.01.01-.01 0-.01.02-.07.02-.06.06-.1.06-.1.04.01.07.03.12.06.05.04.03.03.1.09.05-.02.14-.03.23 0-.13.09-.17.13-.25.32-.01.02-.03.04-.04.06l-.04.06c-.03.05-.05.1-.08.15-.02.05-.05.09-.06.13a.21.21 0 0 1-.04.06c-.01.02-.03.04-.05.06 0 0-.06.03-.08.05" fill-rule="evenodd" clip-rule="evenodd" fill="#e1c025"/><path d="M32.45 12.06c-.08 0-.23-.05-.24-.05.01-.03.05-.05.06-.07.02-.05.03-.07.06-.1.04-.03.1-.04.11-.04-.03.02-.07.03-.1.06s-.03.04-.04.06c-.03.05-.07.08-.08.09.02-.02.15.03.22.03v.01l.01-.01c.08 0 .09-.01.14-.03l.1-.06-.01-.01c.02-.02.03-.04.05-.06.05-.1.07-.15.1-.19.02-.05.05-.1.08-.14l.04-.07c.02-.02.03-.04.05-.06.08-.2.13-.23.25-.32h-.1a.36.36 0 0 0-.11.02l-.06-.05c-.1-.07-.13-.09-.16-.09 0 0-.03.04-.05.09l-.03.07h.01-.02l.01-.01c.04-.12.08-.16.08-.17.05 0 .08.02.13.06l.1.09v-.01c.07-.03.16-.03.23 0-.12.11-.16.14-.24.33l-.05.05.01.01-.04.07c-.03.04-.05.09-.08.14-.02.05-.04.09-.06.13l-.04.06c-.01.02-.03.04-.05.06l-.1.07c-.05.03-.07.03-.15.03h-.03zm-.13-.24c-.09 0-.16-.04-.16-.05 0-.02.05-.13.12-.14l.09.01-.01-.01c.01-.05-.04-.03-.08-.03-.07-.03-.08-.05-.08-.09-.02-.09-.04-.15-.04-.15.01-.01.07-.01.12-.03.06-.03.08-.05.11-.05.08.03.09.06.1.08.01.04.04.05.06.06-.02.01-.05 0-.07-.03-.02-.06-.02-.08-.06-.09l-.09.02c-.08.04-.13.05-.15.05.01.01.03.06.04.1.02.08.02.09.04.1a.2.2 0 0 0 .11-.01h.01v.07l-.09.01c-.04.01-.09.09-.11.12.01 0 .08.04.13.04.08-.02.11-.07.11-.07l.07.02c-.01.02-.02.03-.04.04-.02-.04-.05.01-.11.03h-.02zm.23-.4c-.01-.02-.05-.04-.06-.09-.02-.06 0-.11 0-.12.01-.01.1 0 .13.05l.03.07-.02-.01c-.05-.08-.12-.09-.13-.09 0 .01-.01.05.01.1.01.05.06.07.06.07-.01 0-.01.01-.02.02"/><path d="M32.74 11.9c-.09-.04-.11-.16-.05-.29.07-.13.2-.2.29-.17 0 0 .01 0 .01.01 0 .02 0 .02-.01.04l-.03.12a.3.3 0 0 1-.04.1c-.02.02-.04.05-.06.07-.02.03-.05.05-.07.07-.02.03-.02.03-.04.05" fill="#e1c025"/><path d="M32.74 11.91a.109.109 0 0 1-.08-.08.298.298 0 0 1 .03-.22c.06-.11.16-.18.25-.18l.07.03c-.02.08-.03.13-.04.17s-.03.07-.04.1c-.02.03-.04.05-.06.08-.02.03-.05.05-.08.07l-.05.03zm.16-.44c-.09 0-.16.06-.2.14-.04.07-.05.15-.03.2.01.03.04.06.06.07l.01-.01c.06-.05.09-.08.11-.1.03-.03.05-.06.06-.07.01-.02.03-.06.04-.1l.03-.12c-.03 0-.06-.01-.08-.01"/><path d="M32.94 11.7c.05-.09.08-.17.01-.2-.07-.02-.16.03-.21.13-.05.09-.04.19.03.21.07.02.12-.05.17-.14" fill="#e1e2e3"/><path d="M32.8 11.86l-.03-.01c-.03-.01-.04-.03-.05-.05-.02-.05-.01-.11.02-.17.04-.08.12-.14.18-.14l.08.04c.01.03 0 .09-.05.17-.04.08-.09.16-.15.16m.12-.33c-.08 0-.13.05-.16.11-.03.05-.04.11-.02.15l.04.05.02-.01c.05 0 .1-.08.14-.14.02-.05.06-.12.04-.16h-.06"/><path d="M29.46 13.6c-.98 0-1.86-.12-2.49-.31a.104.104 0 0 1-.07-.1c0-.04.02-.08.07-.1.63-.19 1.51-.3 2.49-.31.98 0 1.86.12 2.49.31.04.01.07.05.07.1 0 .04-.02.08-.07.1-.63.19-1.51.31-2.49.31" fill="#e1c025"/><path d="M29.46 13.61c-.95 0-1.84-.11-2.49-.31-.05-.02-.08-.06-.07-.11 0-.05.03-.09.07-.1.65-.2 1.54-.3 2.49-.31.95 0 1.84.11 2.49.31.04.02.07.05.07.11 0 .05-.03.09-.07.11-.65.19-1.54.3-2.49.3m0-.81c-.95 0-1.84.11-2.49.31-.04.01-.06.05-.06.09 0 .04.02.08.06.09.65.2 1.54.31 2.49.31.95 0 1.83-.11 2.49-.31.04-.01.06-.05.06-.09 0-.04-.02-.07-.06-.09-.65-.2-1.54-.31-2.49-.31"/><path d="M29.46 13.48c-.84 0-1.65-.1-2.3-.26.63-.18 1.45-.27 2.3-.27.85 0 1.67.09 2.31.26-.65.18-1.47.27-2.31.27m0-.51c-.85 0-1.67.09-2.3.25 1.3.3 3.31.32 4.6-.02-.63-.14-1.45-.23-2.3-.23"/><path d="M29.46 12.68c-.23 0-.42-.09-.42-.19 0-.11.19-.19.42-.19.23 0 .42.09.42.19s-.19.19-.42.19" fill="#e1c025"/><path d="M29.46 12.69c-.24 0-.43-.09-.43-.2 0-.12.19-.2.43-.2s.43.09.43.2c0 .1-.19.2-.43.2m0-.39c-.22 0-.41.08-.41.19 0 .1.18.18.41.18.22 0 .41-.08.41-.18 0-.11-.18-.19-.41-.19"/><path d="M29.46 12.62c-.17 0-.31-.06-.31-.13s.14-.13.31-.13c.17 0 .31.06.31.13 0 .06-.14.13-.31.13" fill="#d90031"/><path d="M29.46 12.63c-.18 0-.32-.07-.32-.14 0-.16.64-.16.64 0 0 .07-.14.14-.32.14m0-.27c-.16 0-.3.06-.3.12 0 .13.6.13.6 0 0-.07-.14-.12-.3-.12"/><path d="M32.11 12.61c-.01 0-.02-.01-.02-.01-.22-.06-.42-.03-.46.07-.03.1.12.24.34.3.01-.01.02-.02.03-.04.01-.02.03-.04.04-.06.01-.02.02-.05.03-.07.01-.02.01-.04.02-.06 0-.02.01-.04.01-.06.01-.03.01-.05.01-.07" fill="#e1c025"/><path d="M31.98 12.98c-.23-.07-.38-.2-.35-.31.03-.1.24-.14.47-.08l.03.08-.03.13c-.01.02-.02.04-.03.07-.01.02-.03.04-.04.07l-.05.04zm-.11-.4c-.12 0-.21.04-.23.1-.03.1.12.22.33.29l.01-.01c.04-.04.05-.07.06-.09.01-.03.02-.05.03-.07l.03-.13a.31.31 0 0 0-.23-.09"/><path d="M32.11 12.68c-.01-.01-.03-.01-.04-.02-.17-.05-.31-.03-.33.04-.02.07.09.17.26.22.01 0 .02 0 .03.01.01-.01.03-.02.04-.03l.03-.03c.01-.01.02-.02.02-.04.01-.01.01-.03.01-.04v-.05c-.01-.03-.01-.04-.02-.06" fill="#d90031"/><path d="M32.01 12.93c-.14-.04-.24-.1-.27-.16 0-.02 0-.04.01-.06.04.11.14.17.25.2l.03.01-.02.01zm-.25-.24c.04-.09.18-.07.32-.03l.02.02c-.21-.06-.3-.04-.34.01"/><path d="M26.8 12.61c.01 0 .01-.01.02-.01.22-.06.42-.03.46.07.03.1-.12.24-.34.3a.138.138 0 0 1-.03-.04c-.01-.02-.03-.04-.04-.06-.01-.02-.02-.05-.03-.07-.01-.02-.01-.04-.02-.06 0-.02-.01-.04-.01-.06-.01-.03-.01-.05-.01-.07" fill="#e1c025"/><path d="M26.93 12.98v-.02c.21-.06.36-.19.34-.29-.03-.09-.23-.13-.44-.06l-.02.12-.01-.06h-.01l.01-.07c.26-.08.45-.03.48.07.04.11-.12.25-.35.31z"/><path d="M26.8 12.68c.01-.01.03-.01.04-.02.16-.05.31-.03.33.04.02.07-.1.17-.26.22-.01 0-.02 0-.03.01-.01-.01-.03-.02-.04-.03l-.03-.03c-.01-.01-.02-.02-.02-.04-.01-.01-.01-.03-.01-.04v-.05c.01-.03.01-.04.02-.06" fill="#d90031"/><path d="M26.88 12.93v-.02h.01c.17-.05.29-.14.27-.21-.02-.06-.17-.08-.32-.03l-.05.06h.01l.05.16.01-.01.02.05-.07-.07-.03-.09.01-.1c.3-.11.37-.05.39.02.02.08-.1.17-.27.23l-.03.01z"/><path d="M28.7 12.49c0-.04.04-.08.09-.08.05 0 .09.04.09.08 0 .05-.04.08-.09.08-.05.01-.09-.03-.09-.08" fill="#e1e2e3"/><path d="M28.78 12.59c-.05 0-.1-.04-.1-.09 0-.1.2-.1.2 0 0 .05-.04.09-.1.09"/><path d="M27.37 12.65c0-.05.04-.08.09-.08.05 0 .09.04.09.08 0 .05-.04.08-.09.08-.05 0-.09-.04-.09-.08" fill="#e1e2e3"/><path d="M27.46 12.74c-.05 0-.1-.04-.1-.09 0-.1.2-.1.2 0 0 .05-.04.09-.1.09"/><path d="M30.06 12.49c0-.04.04-.08.09-.08.05 0 .09.04.09.08 0 .05-.04.08-.09.08-.05.01-.09-.03-.09-.08" fill="#e1e2e3"/><path d="M30.15 12.59c-.06 0-.1-.04-.1-.09 0-.1.2-.1.2 0 0 .05-.05.09-.1.09"/><path d="M31.37 12.65c0-.05.04-.08.09-.08.05 0 .09.04.09.08 0 .05-.04.08-.09.08-.05 0-.09-.04-.09-.08" fill="#e1e2e3"/><path d="M31.46 12.74c-.05 0-.1-.04-.1-.09 0-.1.2-.1.2 0 0 .05-.05.09-.1.09"/><path fill-rule="evenodd" clip-rule="evenodd" fill="#e1c025" d="M28.08 12.31l.47.18-.42.3-.47-.18z"/><path d="M28.13 12.8l-.48-.18.42-.32.49.18-.43.32zm-.06-.48l-.41.3.47.16.41-.3-.47-.16z"/><path fill-rule="evenodd" clip-rule="evenodd" fill="#3b8f4e" d="M28.08 12.4l.32.12-.28.19-.31-.12z"/><path d="M28.12 12.72l-.32-.12.27-.21.32.12-.27.21zm-.04-.31l-.27.19.3.1.27-.19-.3-.1z"/><path fill-rule="evenodd" clip-rule="evenodd" fill="#e1c025" d="M30.85 12.31l-.48.18.42.3.48-.18z"/><path d="M30.79 12.8l-.42-.3.48-.2.43.3-.49.2zm.05-.48l-.47.18.42.28.47-.18-.42-.28z"/><path fill-rule="evenodd" clip-rule="evenodd" fill="#3b8f4e" d="M30.84 12.4l-.31.12.27.19.31-.12z"/><path d="M30.8 12.72l-.28-.2.32-.14.28.2-.32.14zm.03-.32l-.3.12.27.17.31-.12-.28-.17z"/><path d="M29.08 9.35c0 .07-.05.12-.12.12-.07 0-.12-.05-.12-.12 0-.07.05-.12.12-.12.06 0 .12.06.12.12" fill="#e1e2e3"/><path d="M28.96 9.48c-.07 0-.13-.06-.13-.13s.06-.13.13-.13.13.06.13.13c0 .08-.06.13-.13.13m0-.24c-.06 0-.11.05-.11.11s.05.11.11.11.11-.05.11-.11-.05-.11-.11-.11"/><path d="M28.73 9.4c0 .07-.06.13-.13.13s-.13-.06-.13-.13.06-.13.13-.13.13.06.13.13" fill="#e1e2e3"/><path d="M28.59 9.54c-.08 0-.14-.06-.14-.14s.07-.14.14-.14c.08 0 .14.06.14.14s-.06.14-.14.14m0-.26c-.07 0-.12.06-.12.12 0 .14.24.14.24 0 .01-.07-.05-.12-.12-.12"/><path d="M28.33 9.49c0 .08-.07.15-.15.15-.08 0-.15-.07-.15-.15 0-.08.07-.15.15-.15.08 0 .15.07.15.15" fill="#e1e2e3"/><path d="M28.18 9.65c-.09 0-.16-.07-.16-.16 0-.18.32-.18.32 0 0 .04-.02.08-.05.11s-.07.05-.11.05m0-.3c-.08 0-.14.06-.14.14 0 .12.16.18.24.1.03-.03.04-.06.04-.1 0-.08-.06-.14-.14-.14"/><path d="M27.88 9.61c0 .09-.07.17-.17.17-.09 0-.17-.07-.17-.17 0-.09.08-.17.17-.17.1 0 .17.08.17.17" fill="#e1e2e3"/><path d="M27.72 9.79a.18.18 0 0 1-.18-.18c0-.1.08-.18.18-.18.1 0 .18.08.18.18-.01.1-.09.18-.18.18m-.01-.34c-.09 0-.16.07-.16.16 0 .18.32.18.32 0 0-.09-.07-.16-.16-.16"/><path d="M27.34 9.7a.19.19 0 1 1-.38 0 .19.19 0 0 1 .38 0z" fill="#e1e2e3"/><path d="M27.15 9.9a.2.2 0 0 1-.2-.2c0-.11.09-.2.2-.2.11 0 .2.09.2.2a.2.2 0 0 1-.2.2m0-.37c-.1 0-.18.08-.18.18 0 .2.35.2.35 0 .01-.1-.07-.18-.17-.18"/><path d="M26.77 9.87a.2.2 0 0 1-.2.2.2.2 0 0 1-.2-.2c0-.11.09-.2.2-.2s.2.09.2.2" fill="#e1e2e3"/><path d="M26.57 10.08c-.12 0-.21-.09-.21-.21s.1-.21.21-.21c.12 0 .21.09.21.21s-.1.21-.21.21m0-.4a.19.19 0 0 0-.19.19c0 .21.39.21.39 0a.205.205 0 0 0-.2-.19"/><path d="M26.32 10.19a.2.2 0 0 1-.2.2.2.2 0 0 1-.2-.2c0-.11.09-.2.2-.2.11-.01.2.09.2.2z" fill="#e1e2e3"/><path d="M26.12 10.4c-.12 0-.21-.09-.21-.21 0-.17.24-.27.36-.15.04.04.06.09.06.15a.204.204 0 0 1-.21.21m0-.4a.19.19 0 0 0-.19.19c0 .16.22.25.33.13.04-.04.05-.08.05-.13a.19.19 0 0 0-.19-.19"/><path d="M26.08 10.77c0 .12-.1.22-.22.22s-.22-.1-.22-.22.1-.22.22-.22.22.09.22.22z" fill="#e1e2e3"/><path d="M25.86 10.99c-.13 0-.23-.1-.23-.23 0-.19.26-.29.39-.16a.226.226 0 0 1-.16.39m0-.43c-.12 0-.21.09-.21.21s.09.21.21.21c.11 0 .21-.09.21-.21s-.09-.21-.21-.21"/><path d="M29.17 9.3c0 .06.05.11.1.11.06 0 .11-.05.11-.11s-.05-.11-.11-.11-.1.05-.1.11z" fill="#e1e2e3"/><path d="M29.27 9.42c-.06 0-.12-.05-.12-.11 0-.13.23-.13.23 0 .01.06-.04.11-.11.11m.01-.21c-.06 0-.1.04-.1.1a.1.1 0 0 0 .2 0c-.01-.06-.05-.1-.1-.1"/><path d="M29.85 9.35c0 .07.05.12.12.12.07 0 .12-.05.12-.12 0-.07-.05-.12-.12-.12-.07 0-.12.06-.12.12" fill="#e1e2e3"/><path d="M29.97 9.48c-.07 0-.13-.06-.13-.13s.06-.13.13-.13.13.06.13.13c-.01.08-.06.13-.13.13m0-.24c-.06 0-.11.05-.11.11s.05.11.11.11.11-.05.11-.11-.05-.11-.11-.11"/><path d="M30.2 9.4c0 .07.06.13.13.13s.13-.06.13-.13-.06-.13-.13-.13-.13.06-.13.13" fill="#e1e2e3"/><path d="M30.33 9.54c-.08 0-.14-.06-.14-.14 0-.08.06-.14.14-.14.08 0 .14.07.14.14 0 .08-.06.14-.14.14m0-.26c-.07 0-.12.06-.12.12 0 .07.05.12.12.12.07 0 .12-.05.12-.12 0-.07-.05-.12-.12-.12"/><path d="M30.59 9.49c0 .08.07.15.15.15.08 0 .15-.07.15-.15 0-.08-.07-.15-.15-.15s-.15.07-.15.15" fill="#e1e2e3"/><path d="M30.74 9.65c-.09 0-.16-.08-.16-.16.01-.18.32-.18.32 0 0 .09-.07.16-.16.16m0-.3c-.08 0-.14.06-.14.14 0 .16.29.16.29 0-.01-.08-.07-.14-.15-.14"/><path d="M31.04 9.61c0 .09.07.17.17.17.09 0 .17-.07.17-.17 0-.09-.07-.17-.17-.17-.09 0-.17.08-.17.17" fill="#e1e2e3"/><path d="M31.21 9.79a.18.18 0 0 1-.18-.18c0-.1.08-.18.18-.18.1 0 .18.08.18.18-.01.1-.08.18-.18.18m0-.34c-.09 0-.16.07-.16.16 0 .17.31.17.31 0 .01-.09-.06-.16-.15-.16"/><path d="M31.59 9.7c0 .1.08.19.19.19s.19-.08.19-.19a.19.19 0 1 0-.38 0z" fill="#e1e2e3"/><path d="M31.77 9.9a.2.2 0 0 1-.2-.2c0-.11.09-.2.2-.2.11 0 .2.09.2.2a.2.2 0 0 1-.2.2m0-.37c-.1 0-.18.08-.18.18 0 .1.08.18.18.18.1 0 .18-.08.18-.18 0-.1-.08-.18-.18-.18"/><path d="M32.15 9.87c0 .11.09.2.2.2s.2-.09.2-.2a.2.2 0 0 0-.2-.2c-.1 0-.19.09-.2.2" fill="#e1e2e3"/><path d="M32.36 10.08c-.12 0-.21-.09-.21-.21s.1-.21.21-.21c.12 0 .21.1.21.21 0 .12-.1.21-.21.21m0-.4a.19.19 0 0 0-.19.19c0 .21.38.22.39 0a.205.205 0 0 0-.2-.19"/><path d="M32.6 10.19c0 .11.09.2.2.2a.2.2 0 0 0 .2-.2.2.2 0 0 0-.2-.2c-.11-.01-.2.09-.2.2z" fill="#e1e2e3"/><path d="M32.8 10.4a.204.204 0 0 1-.21-.21c0-.12.1-.21.21-.21.12 0 .21.1.21.21a.204.204 0 0 1-.21.21m0-.4c-.05 0-.1.02-.14.06-.04.04-.06.09-.06.14 0 .05.02.1.05.14.04.04.09.06.14.06.05 0 .1-.02.14-.05.04-.04.05-.08.05-.14.02-.13-.07-.21-.18-.21"/><path d="M32.84 10.77c0 .12.1.22.22.22s.22-.1.22-.22-.1-.22-.22-.22-.22.09-.22.22z" fill="#e1e2e3"/><path d="M33.06 10.99c-.13 0-.23-.1-.23-.23s.1-.23.23-.23.23.1.23.23-.1.23-.23.23m0-.43a.204.204 0 0 0-.21.21c0 .11.09.21.21.21.11 0 .21-.09.21-.21s-.09-.21-.21-.21"/><path d="M29.75 9.3c0 .06-.05.11-.11.11s-.11-.05-.11-.11.05-.11.11-.11c.06.01.11.05.11.11z" fill="#e1e2e3"/><path d="M29.65 9.42c-.06 0-.12-.05-.12-.11 0-.13.23-.13.23 0 0 .06-.05.11-.11.11m0-.21a.1.1 0 0 0 0 .2.1.1 0 0 0 .1-.1c-.01-.06-.05-.1-.1-.1"/><path d="M29.31 9.45c-.06.03-.11.07-.12.13-.02.08-.03.17-.03.27v.07c0 .21-.04.39-.09.5l.4.3.39-.3c-.05-.11-.09-.29-.09-.5v-.07c0-.1-.01-.19-.03-.27a.25.25 0 0 0-.12-.13c0 .04.01.07.01.11V10.04c0 .07.01.13.01.18.01.05.02.1.04.14l-.21.19-.21-.19c.01-.04.03-.08.04-.14.01-.05.01-.12.01-.18V9.56c-.01-.04 0-.08 0-.11" fill="#e1c025"/><path d="M29.46 10.72l-.4-.3c.05-.13.09-.31.09-.51 0-.16.02-.26.03-.34.02-.05.06-.1.13-.13.01.06 0 .09 0 .12v.48c0 .07-.01.13-.02.18-.01.05-.02.1-.03.14l.21.18.19-.19c-.02-.03-.03-.08-.04-.13a.99.99 0 0 1-.02-.18v-.46c0-.05 0-.08-.01-.11h.01c.01.03.02.06.02.09v.48c0 .07.01.13.01.18.01.05.02.1.04.14l-.21.2-.22-.19.03-.15c.01-.05.01-.12.02-.18v-.46c0-.05 0-.08.01-.11-.05.02-.09.06-.1.11-.02.08-.03.17-.03.27-.01.26-.04.45-.1.57l.39.29.39-.3c-.06-.11-.1-.3-.1-.49-.01-.17-.01-.26-.03-.34-.01-.04-.04-.07-.08-.1.05.01.09.05.1.1.02.08.03.18.03.28.01.26.04.45.1.56l-.41.3z"/><path d="M29.31 9.45c0 .04-.01.07-.01.11V10.04c0 .07-.01.13-.01.18-.01.05-.02.1-.04.14l.21.19.21-.19c-.01-.04-.03-.08-.04-.14-.01-.05-.01-.12-.01-.18V9.56c0-.04-.01-.07-.01-.11a.32.32 0 0 0-.14-.03.288.288 0 0 0-.16.03" fill="#e1c025"/><path d="M29.46 10.57l-.22-.2.03-.15c.01-.06.01-.12.02-.18v-.46c0-.05 0-.08.01-.11.12-.11.21-.08.31-.03.01.06.02.09.02.12v.48c0 .07.01.13.01.18.01.05.02.1.04.13l-.22.22zm0-1.15c-.05 0-.1.01-.15.03v.58c0 .07-.01.13-.02.18-.01.05-.02.1-.03.14l.2.18.2-.19c-.02-.03-.03-.08-.04-.13-.01-.05-.01-.12-.01-.18v-.46c0-.05 0-.08-.01-.11a.326.326 0 0 0-.14-.04"/><path d="M29.35 9.33c0 .06.05.11.11.11s.11-.05.11-.11-.05-.1-.11-.11c-.06 0-.11.05-.11.11" fill="#e1e2e3"/><path d="M29.46 9.44c-.06 0-.12-.05-.12-.11 0-.07.05-.12.12-.12.06 0 .12.05.12.12 0 .06-.06.11-.12.11m0-.21a.1.1 0 0 0-.1.1c0 .11.2.11.19 0 .01-.06-.03-.1-.09-.1"/><path d="M29.58 9.51c0 .07-.05.12-.12.12-.07 0-.12-.05-.12-.12 0-.07.05-.12.12-.12.07 0 .12.05.12.12" fill="#e1e2e3"/><path d="M29.46 9.64c-.07 0-.13-.06-.13-.13 0-.14.26-.14.26 0 0 .07-.06.13-.13.13m0-.24c-.06 0-.11.05-.11.11 0 .12.22.12.22 0 0-.06-.05-.11-.11-.11"/><path d="M29.6 9.68c0 .08-.06.15-.14.15-.08 0-.14-.07-.14-.15 0-.08.06-.14.14-.14.08 0 .14.06.14.14" fill="#e1e2e3"/><path d="M29.46 9.84c-.09 0-.15-.07-.15-.15s.07-.15.15-.15c.08 0 .15.07.15.15s-.06.15-.15.15m0-.29c-.08 0-.13.06-.13.14 0 .15.27.15.27 0 0-.08-.06-.14-.14-.14"/><path d="M29.63 9.91c0 .1-.08.17-.17.17-.1 0-.17-.08-.17-.17 0-.09.08-.17.17-.17.1-.01.17.07.17.17" fill="#e1e2e3"/><path d="M29.46 10.09a.18.18 0 0 1-.18-.18c0-.2.37-.2.37 0-.01.1-.09.18-.19.18m0-.35c-.09 0-.16.07-.16.16 0 .18.33.18.33 0-.01-.08-.08-.16-.17-.16"/><path d="M29.66 10.16a.2.2 0 0 1-.2.2.2.2 0 0 1-.2-.2c0-.11.09-.2.2-.2.11 0 .2.09.2.2" fill="#e1e2e3"/><path d="M29.46 10.36c-.11 0-.21-.09-.21-.21s.1-.21.21-.21c.11 0 .21.09.21.21s-.09.21-.21.21m0-.39c-.1 0-.19.08-.19.19 0 .21.38.21.38 0 0-.11-.08-.19-.19-.19"/><path d="M29.46 10.32c-.01 0-.07.04-.12.07-.06.04-.1.13-.1.13s-.06-.01-.1-.01c-.04 0-.1.01-.1.01s-.01.04.01.09c.02.05.03.09.04.09l-.06.02c-.02.01-.03.03-.03.03s.08.05.12.06c.04.01.05.01.08.01.03.01.05.06.05.06h-.07c-.04 0-.03-.03-.09-.06-.06-.02-.19 0-.19 0s.01.06.06.1c.05.04.1.03.1.03l.03.05s-.06.02-.09 0c-.04-.02-.05-.06-.12-.06-.07 0-.07.06-.11.1s-.1.07-.1.07.06.04.1.08c.05.04.06.07.11.07s.11-.06.11-.06h.04l-.01.05s-.03 0-.08.04-.04.16-.04.16.13.01.18-.03c.05-.04.05-.1.05-.1l.05-.02.01.06s-.06.03-.08.08c-.02.05-.01.06-.01.11 0 .03-.03.08-.03.08s.19-.03.26-.07c.2-.14.04-.12.23 0 .07.04.26.07.26.07s-.03-.05-.03-.08c0-.04.01-.06-.01-.11s-.08-.08-.08-.08l.01-.06.05.02s0 .06.05.1c.05.04.19.03.19.03s.01-.12-.04-.16c-.05-.04-.08-.04-.08-.04l-.01-.05h.04s.06.06.11.06.06-.03.11-.07c.04-.04.1-.08.1-.08s-.06-.03-.1-.07c-.03-.04-.04-.09-.11-.1-.07 0-.08.04-.12.06-.04.02-.09 0-.09 0l.02-.05s.06.01.1-.03c.05-.04.06-.1.06-.1s-.13-.02-.19 0c-.06.03-.06.05-.09.06h-.07s.02-.05.05-.06c.04-.01.04-.01.08-.01.04-.01.12-.06.12-.06s-.01-.03-.04-.04l-.06-.02c.02 0 .02-.04.04-.09.02-.05.01-.09.01-.09s-.06-.01-.1-.01c-.04 0-.1.01-.1.01s-.04-.09-.1-.13c0-.02-.04-.05-.08-.06" fill-rule="evenodd" clip-rule="evenodd" fill="#e1c025"/><path d="M29.86 11.64h-.02c-.01 0-.19-.03-.26-.07-.07-.05-.09-.08-.11-.09-.02.02-.05.04-.11.09-.07.04-.26.07-.27.07 0-.03.02-.07.02-.09-.01-.05-.01-.07.01-.11.02-.04.06-.08.08-.09-.02.04-.05.06-.06.09-.01.03-.01.05-.01.07 0 .06-.02.1-.03.12.03-.02.18-.04.25-.08.06-.04.09-.07.1-.08.05.01.07.04.14.08.06.03.19.05.24.07a.185.185 0 0 1-.02-.07c0-.05.01-.07-.01-.1-.02-.05-.07-.08-.07-.08l.01-.08c.02.01.03.02.04.03-.04.03.02.07.04.12.01.04.01.06.01.08 0 .05.02.09.03.11v.01zm-.92-.18c-.01 0-.01-.01-.01-.01.06-.01.13-.01.16-.04.05-.04.04-.1.04-.1l.07-.02c0 .02 0 .04-.01.05-.04-.02-.04.03-.1.08-.03.04-.1.04-.15.04m1.01 0c-.06 0-.1-.01-.13-.03a.175.175 0 0 1-.05-.1c.02.03.03.06.06.09s.12.03.15.03c.02 0 .03-.11-.02-.14-.05-.03-.08-.04-.08-.04l-.01-.07c.09 0 .16.08.23.02.06-.06.11-.1.12-.11-.02 0-.06-.03-.09-.06-.04-.07-.06-.09-.1-.09-.05 0-.06.02-.08.03l-.08.04h-.01l-.03-.06c.04 0 .08-.01.11-.03.04-.03.05-.08.06-.09-.01.01-.05 0-.1 0-.03 0-.05 0-.07.01l-.11.06-.06-.01.06-.07.08-.01c.03-.01.09-.04.11-.05l.02.01s-.05.03-.09.05c.06-.02.18 0 .18 0 .01.01-.01.07-.06.11a.14.14 0 0 1-.09.04h.08c.02-.02.04-.04.09-.04.06 0 .08.04.1.07.06.07.12.1.12.1 0 .02-.05.06-.1.1-.06.06-.08.08-.12.08-.05 0-.11-.06-.12-.07-.02.04.01.04.06.08.06.04.05.16.04.17-.02-.02-.04-.02-.07-.02m-1.04-.02c-.02-.04-.02-.12.03-.15s.08-.04.08-.04c-.03-.04-.09.03-.14.03-.04 0-.06-.02-.09-.05a.956.956 0 0 0-.13-.11c0-.02.06-.05.09-.08.04-.07.06-.1.12-.1.07 0 .07.02.1.04l.07.02c-.01-.03-.05-.04-.08-.07-.05-.04-.07-.1-.07-.1.01-.02.15-.03.2-.01l.09.07.07-.01-.05-.05h-.04c-.08-.01-.16-.07-.16-.07l.02-.01c.02.01.08.05.11.05l.08.01c.04.01.05.06.06.07v.01l-.17-.06c-.04-.02-.15-.01-.18 0 .01.01.02.05.06.08.03.03.06.03.08.03l.04.06h-.11c-.05-.04-.07-.06-.1-.06-.05 0-.07.03-.08.05-.05.07-.1.1-.12.11.02 0 .06.04.1.07.06.06.07.07.11.07.04 0 .1-.06.1-.06l.04.06c-.01.01-.04.01-.08.04-.04.04-.05.12-.05.16m.12-.7l.06-.04-.04-.09h-.01c-.02-.05-.01-.1-.01-.1.02-.01.2-.01.21-.01-.01 0 .03-.09.09-.13.05-.03.11-.07.12-.07.04.01.07.03.1.05.09.06.13.14.14.15.01-.01.19 0 .19 0 .01.01.02.05-.01.11l-.05.08v.01-.01h-.01l.03-.09c.02-.04.01-.08.01-.08-.01 0-.06-.01-.09 0-.04 0-.1.01-.1.01-.01-.01-.05-.09-.11-.13a.427.427 0 0 0-.12-.06c-.01 0-.06.03-.11.06a.29.29 0 0 0-.1.13c-.01.01-.07 0-.11 0-.03 0-.08.01-.09.01 0 0 0 .04.02.08l.03.01.01.1-.05.01z"/><path d="M29.27 11.11c0-.14.09-.25.19-.25.11 0 .2.11.2.25s-.09.25-.2.25c-.11 0-.19-.11-.19-.25" fill="#e1c025"/><path d="M29.46 11.37c-.11 0-.21-.12-.21-.26s.09-.26.21-.26c.11 0 .2.12.2.26.01.14-.09.26-.2.26m0-.5c-.1 0-.19.11-.19.24s.08.24.19.24c.1 0 .19-.11.19-.24s-.09-.24-.19-.24"/><path d="M29.33 11.11c0-.1.06-.19.13-.19s.14.08.14.19c0 .1-.06.19-.14.19-.07 0-.13-.09-.13-.19" fill="#e1e2e3"/><path d="M29.46 11.3c-.08 0-.14-.09-.14-.2 0-.21.29-.21.29 0 0 .12-.07.2-.15.2m0-.37c-.07 0-.12.08-.12.18 0 .2.25.2.25 0 0-.1-.06-.18-.13-.18"/><path d="M27.6 11.52c0-.09.07-.16.16-.16s.16.07.16.16-.07.16-.16.16-.16-.07-.16-.16" fill="#e1e2e3"/><path d="M27.76 11.69c-.1 0-.17-.08-.17-.17 0-.19.34-.19.34 0 0 .09-.08.17-.17.17m0-.32c-.09 0-.15.07-.15.15 0 .17.3.17.3 0 0-.09-.07-.15-.15-.15"/><path d="M31.34 11.55c0-.09-.07-.16-.16-.16s-.16.07-.16.16.07.16.16.16.16-.07.16-.16" fill="#e1e2e3"/><path d="M31.18 11.72c-.1 0-.17-.08-.17-.17 0-.19.34-.19.34 0 0 .09-.08.17-.17.17m0-.33c-.09 0-.15.07-.15.15 0 .17.3.17.3 0 0-.08-.07-.15-.15-.15"/><path d="M29.45 24.37c3.41-2.67 7.08-8.13 2.78-11-.8-.16-1.7-.11-2.13.24-.23-.14-.41-.12-.63.13-.16-.21-.32-.3-.65-.19-.66-.35-1.26-.43-2.05-.21-3.75 2.35-1.46 7.95 2.68 11.03" fill-rule="evenodd" clip-rule="evenodd" fill="#e1c025"/><path d="M29.45 24.45l-.04-.03c-2.85-2.12-4.7-5.26-4.6-7.82.05-1.42.72-2.57 1.92-3.33.84-.24 1.41-.17 2.12.21.05-.04.13-.05.21-.05.19 0 .32.09.41.2.21-.2.39-.23.63-.11.42-.31 1.29-.4 2.15-.23 1.29.85 1.95 1.96 2.01 3.32.11 2.73-2.31 5.89-4.76 7.81l-.05.03zm-1.87-11.17c-.25 0-.51.04-.8.12-1.14.73-1.79 1.84-1.84 3.21-.09 2.46 1.76 5.61 4.51 7.67 2.4-1.9 4.76-4.99 4.66-7.66-.05-1.31-.7-2.38-1.92-3.2-.26-.05-.55-.08-.83-.08-.54 0-.97.11-1.22.32l-.04.03-.04-.02c-.22-.13-.36-.1-.55.12l-.06.06-.05-.06c-.17-.22-.31-.26-.58-.17-.46-.24-.84-.34-1.24-.34" fill="#796d14"/><path d="M35.76 18.29s.38-.54.4-.54c.38-.24.42-.54.42-.54.38-.13.27-.46.29-.5.19-.21.12-.42.09-.49 0-.05.13-.57-.05-.64.01-.55-.31-.5-.57-.14-.27.08-.34.32-.24.58-.36 0-.37.54-.26.85-.48-.01-.21.54-.23.57-.16.09.12.88.15.85" fill-rule="evenodd" clip-rule="evenodd" fill="#6fd66c"/><path d="M35.76 18.36c-.03 0-.1 0-.22-.47-.07-.29-.05-.42 0-.47-.04-.15-.1-.36.01-.5.04-.06.11-.1.2-.11-.06-.23-.05-.53.07-.7.05-.07.12-.12.2-.14a.516.516 0 0 1 .02-.37c.05-.1.15-.18.29-.22.14-.24.41-.35.55-.2.07.07.11.2.11.37.15.11.09.44.06.62.06.23.02.43-.12.59.02.13.03.38-.28.51-.03.1-.12.35-.45.55l-.38.52-.06.02zm.07-1.41c-.1 0-.15.02-.18.06-.07.09-.01.28.01.36.01.02.02.09.01.11-.08.09.02.49.09.68.34-.48.34-.48.39-.48.31-.2.35-.47.36-.48 0-.03.02-.05.05-.06.25-.08.24-.25.24-.37l.01-.1c.14-.16.13-.32.09-.42 0-.04 0-.07.01-.11.07-.39.02-.47-.02-.49a.075.075 0 0 1-.05-.07c0-.21-.04-.28-.07-.31-.15-.03-.27.07-.37.21-.13.06-.2.11-.24.18-.04.09-.04.21.01.34.01.02.01.04-.01.06-.01.02-.03.03-.06.03-.07 0-.13.03-.17.09-.11.15-.1.46-.03.66.01.02 0 .05-.01.07-.01.03-.03.05-.06.04z" fill="#539d51"/><path d="M32.75 22.94l.24.15c.05.19.22.31.34.28.06.29.36.25.58.08.18.27.39.27.69.18.26.2.61.12.83-.1.24.21.4.05.53-.17.19.05.34.02.41-.18.37-.03.19-.4-.12-.55.24-.22.51-.68.13-.75-.12-.09-.34-.07-.52.02-.04-.21-.31-.26-.61-.03-.1-.23-.45-.12-.62.04-.21-.2-.46-.2-.83.03-.34.33-.69.67-1.05 1" fill-rule="evenodd" clip-rule="evenodd" fill="#6fd66c"/><path d="M34.94 23.82c-.14 0-.27-.05-.38-.13a.41.41 0 0 1-.25.07c-.17 0-.3-.07-.41-.21-.26.16-.54.12-.62-.11-.18-.02-.31-.15-.36-.33l-.2-.11a.055.055 0 0 1-.03-.05c0-.02 0-.04.02-.06l1.06-1c.39-.24.65-.25.88-.07.21-.16.52-.2.64-.05.26-.17.53-.15.63.03.19-.07.4-.06.52.03.13.02.18.1.2.17.05.19-.11.45-.27.62.17.11.31.3.28.45-.01.06-.05.15-.22.18-.08.17-.23.24-.43.2-.16.27-.36.32-.56.18-.14.12-.32.19-.5.19m-.35-.25c.37.19.58.13.81-.08.02-.02.07-.02.09 0 .17.14.28.1.42-.15.02-.03.05-.04.08-.03.17.04.27.01.33-.14.01-.03.03-.04.06-.05.06-.01.13-.02.14-.07.02-.09-.1-.25-.29-.35-.02-.01-.04-.03-.04-.05 0-.02.01-.05.02-.06.17-.16.33-.41.29-.54-.01-.02-.02-.07-.13-.09-.15-.1-.32-.07-.47.01-.02.01-.04.01-.06 0-.02-.01-.03-.03-.04-.05-.02-.1-.12-.12-.17-.12-.1 0-.21.05-.33.13-.02.01-.04.02-.06.01-.02 0-.04-.02-.05-.04-.01-.02-.04-.09-.16-.09-.11 0-.26.07-.35.15-.03.03-.07.03-.1 0-.2-.18-.41-.17-.75.04l-.98.93.16.1c.07.18.18.27.26.27.02 0 .05 0 .07.01.02.01.04.03.04.04.04.2.27.19.47.04.02-.01.04-.02.06-.01.02 0 .04.02.05.03.16.22.3.26.63.16" fill="#539d51"/><path d="M32.75 22.34c.04-.25-.13-.72.13-.76-.05-.42.02-.91.49-.86.08-.4.06-.77.5-.83 0 0 .36-1.3.73-.4.14.26.12.69-.17.61.06.32-.04.61-.39.6.15.23.1.54-.07.68-.4.32-.81.64-1.22.96" fill-rule="evenodd" clip-rule="evenodd" fill="#6fd66c"/><path d="M32.75 22.41c-.01 0-.02 0-.04-.01-.02-.02-.04-.05-.03-.07.01-.08.01-.18 0-.28-.02-.2-.04-.44.13-.52-.02-.25-.01-.55.16-.74.09-.1.2-.15.35-.15l.02-.11c.05-.31.1-.63.49-.71.06-.19.24-.73.51-.73.13 0 .24.12.34.36.11.19.12.46.04.6-.04.07-.11.12-.19.12.02.18-.02.34-.11.44-.06.07-.14.12-.24.14.1.23.04.52-.13.67l-1.25.98c-.01.01-.03.01-.05.01m.6-1.62c-.15 0-.22.03-.28.1-.11.12-.15.37-.12.68 0 .04-.02.07-.06.08-.1.02-.1.16-.08.39.01.05.01.1.01.15l1.11-.88c.13-.11.19-.38.05-.59a.048.048 0 0 1 0-.07c.01-.02.04-.03.06-.03.12 0 .19-.03.25-.09.07-.09.1-.24.07-.42-.01-.02 0-.05.02-.06.02-.02.04-.02.07-.02.08.01.11-.01.13-.04.06-.1.04-.31-.04-.46-.1-.26-.18-.28-.21-.28-.14 0-.31.4-.38.67-.01.03-.03.05-.06.05-.31.04-.36.24-.41.6l-.03.18c-.01.04-.04.06-.08.06h-.02z" fill="#539d51"/><path d="M34.91 20.72c.13-.03.26-.05.38-.08.4-.28.55-.39.75-.08.33-.07.65-.04.63.24.39.03.39.29.35.5.06.37-.09.84-.33.26-.77-.49-1.21-.43-2.42-.14l.64-.7" fill-rule="evenodd" clip-rule="evenodd" fill="#6fd66c"/><path d="M36.91 21.89c-.1 0-.18-.1-.27-.31-.72-.43-1.21-.36-2.34-.1-.03.01-.06-.01-.08-.03-.02-.02-.01-.06.01-.08l.63-.7.42-.11c.37-.27.59-.38.8-.09.27-.05.49-.02.6.09.04.04.07.1.07.16.13.02.23.07.29.15.1.13.08.31.05.43.03.16.02.42-.08.53 0 .02-.08.06-.1.06m-1.31-.77c.39 0 .72.11 1.13.37.1.22.16.25.17.26.04-.03.09-.23.05-.45.03-.17.02-.27-.02-.34-.05-.06-.13-.09-.26-.1-.04 0-.07-.04-.07-.07 0-.05-.01-.09-.04-.12-.08-.08-.28-.09-.51-.04-.03.01-.06-.01-.07-.03-.09-.13-.15-.15-.19-.15-.1 0-.25.11-.46.25l-.41.09-.44.5c.45-.1.81-.17 1.12-.17" fill="#539d51"/><path d="M35.11 20.32c.01-.02 1.14-.32 1.02-.68.32-.05.38-.39.4-.39.66-.22.62-.62.62-.62.19-.21.52-.43.45-.8.02-.43.06-.7-.49-.42-.41-.04-.56.21-.67.58-.19-.24-.51.14-.54.48 0 0-.5.51-.5.53 0 .01-.42.82-.42.82.03.16.08.33.13.5" fill-rule="evenodd" clip-rule="evenodd" fill="#6fd66c"/><path d="M35.13 20.39h-.02c-.02-.01-.06-.03-.07-.05l-.15-.5c.01-.05.4-.81.43-.86 0-.01 0-.02.52-.55.01-.25.22-.58.45-.58.03 0 .07.01.1.02.1-.3.27-.58.72-.53.22-.13.4-.15.49-.05.09.09.08.26.07.49.07.37-.16.59-.35.77-.04.04-.09.08-.12.13.02 0 .02.42-.65.65 0 .07-.09.3-.34.38 0 .04-.01.08-.03.12-.13.25-.62.43-.99.55-.01 0-.04.01-.06.01m.32-1.35s-.04.09-.42.81l.13.38c.65-.21.84-.38.9-.48.01-.03.02-.06.01-.09-.01-.02-.01-.04.01-.06.01-.02.03-.03.05-.03.23-.04.3-.24.33-.32.01-.03.05-.07.08-.07.57-.2.55-.53.55-.55.06-.1.1-.14.15-.19.17-.17.36-.34.3-.61.01-.24.02-.41-.03-.46-.12-.02-.22.02-.36.09h-.12c-.29 0-.41.2-.52.54-.01.02-.03.04-.06.05-.02.01-.05 0-.07-.03-.13-.17-.38.13-.42.45-.2.23-.49.53-.51.57" fill="#539d51"/><path d="M35.14 19.4c-.27-.21-.42-.47-.37-.72-.18-.25-.3-.4-.13-.63 0 0-.13-.5-.13-.51-.34-.14-.2-.44-.11-.55-.16-.24-.17-.48-.01-.71 0-.45.3-.28.54 0 0 0 .41.3.11.58.3.11.4.39.22.5.27.13.3.38.16.54.27.23.17.51.25.76-.18.25-.36.5-.53.74" fill-rule="evenodd" clip-rule="evenodd" fill="#6fd66c"/><path d="M35.14 19.47c-.02 0-.03-.01-.04-.02-.31-.24-.45-.52-.4-.79-.18-.21-.31-.4-.12-.65-.08-.25-.12-.37-.13-.42a.373.373 0 0 1-.22-.24c-.03-.13.02-.27.09-.37a.663.663 0 0 1 .01-.75c-.01-.1.01-.19.07-.25.15-.15.46.1.59.24 0 0 .23.17.24.39 0 .08-.02.15-.07.22.15.08.25.2.26.33.01.06-.01.13-.04.17.1.07.17.16.19.27.02.1 0 .2-.05.28.16.16.17.35.18.51.01.09.01.17.04.24l-.54.8c-.02.03-.03.04-.06.04m-.62-3.39c-.05.02-.07.07-.07.2-.15.24-.15.46 0 .67.02.03.02.06 0 .09-.04.05-.12.18-.09.28.02.07.07.12.17.16.03.01.04.04.04.07.01.03.13.5.13.5-.13.22-.08.32.1.57.01.02.04.07.04.09-.04.2.06.41.29.6l.48-.67c-.04-.03-.05-.12-.06-.21-.01-.17-.03-.32-.18-.46a.219.219 0 0 1-.03-.05c0-.02.01-.04.02-.05.06-.06.08-.14.06-.21-.02-.09-.09-.17-.2-.22a.068.068 0 0 1-.04-.06c0-.02.01-.05.03-.06.04-.03.06-.07.05-.11-.01-.09-.1-.2-.26-.26a.12.12 0 0 1-.05-.05c0-.02 0-.05.02-.07.06-.06.09-.12.09-.18-.01-.15-.19-.29-.19-.29-.13-.19-.27-.28-.35-.28" fill="#539d51"/><path d="M35.61 17.33c-.01-.01-.45-.6-.33-.64-.03-.18-.16-.38-.08-.55-.22-.23-.22-.5-.05-.71-.14-.21-.08-.48.12-.67-.06-.34.17-.42.37-.48.15-.55.39-.41.53.01.21.19.18.48.11.69.25.18.1.39-.02.49-.21.62-.43 1.24-.65 1.86" fill-rule="evenodd" clip-rule="evenodd" fill="#6fd66c"/><path d="M35.61 17.4c-.02 0-.04-.01-.05-.02 0 0-.41-.52-.37-.68 0-.01.01-.02.01-.02a.737.737 0 0 0-.04-.14c-.04-.12-.08-.25-.04-.38a.59.59 0 0 1-.06-.73c-.12-.22-.06-.51.16-.72-.1-.34.2-.44.4-.5.06-.45.44-.48.62.06.21.18.18.47.12.69.1.08.12.17.12.23.01.17-.13.29-.17.33l-.63 1.83a.12.12 0 0 1-.05.05h-.02zm.28-3.41c-.04 0-.12.08-.18.31-.27.12-.42.19-.37.46-.2.23-.25.47-.13.64.02.03.02.06 0 .09-.15.19-.13.42.05.61.02.02.03.05.01.08-.04.09-.01.21.03.32.02.06.04.13.05.19.01.03-.02.07-.05.08.02.04.18.27.29.42l.61-1.73c.08-.08.15-.17.14-.25 0-.05-.04-.11-.1-.15-.02-.02-.04-.05-.03-.08.06-.19.1-.45-.09-.62-.09-.27-.18-.37-.23-.37" fill="#539d51"/><path d="M35.55 14.41c-.12-.13-.25-.26-.37-.39.1-.21.17-.57-.11-.74-.15-.39-.92-.88-1.05.06-.12-.28-.36-.56-.54-.24-.4-.36-.62-.25-.41.21 0 0-.18.31.3.54.04.04-.16.56.42.57-.11.17.07.42.31.4-.17.22.11.45.29.36-.08.24-.07.36.25.39.12.15.24.29.36.43.1.14.19.28.29.42.09-.67.17-1.34.26-2.01" fill-rule="evenodd" clip-rule="evenodd" fill="#6fd66c"/><path d="M35.3 16.49c-.02 0-.05-.01-.06-.03l-.29-.42-.35-.43c-.13.01-.22-.03-.27-.11-.04-.07-.04-.15-.02-.24-.12 0-.24-.08-.29-.19-.03-.07-.04-.14-.01-.2a.393.393 0 0 1-.26-.19.319.319 0 0 1-.04-.21c-.13-.02-.23-.06-.29-.14-.12-.13-.11-.32-.1-.42-.16-.11-.29-.23-.33-.37-.05-.16.03-.28.03-.28-.1-.14-.11-.29-.06-.38.09-.14.34-.04.51.1.16-.19.39-.09.53.13.1-.34.31-.4.44-.4.29 0 .6.28.7.53.26.14.23.48.12.75l.34.35-.23 2.07c0 .03-.03.05-.05.06-.01.02-.02.02-.02.02m-.94-1.37c.02 0 .04 0 .05.01.02.02.06.04.05.07-.03.09-.05.18-.02.23.02.04.1.06.21.07l.6.73.23-1.83-.07-.04-.28-.29c-.02-.02-.03-.05-.01-.08.02-.05.21-.47-.08-.64-.11-.24-.37-.47-.6-.47-.23 0-.31.26-.34.48 0 .03-.03.06-.06.06s-.06-.01-.08-.05c-.08-.19-.2-.34-.29-.34-.05 0-.1.06-.13.11-.01.02-.03.03-.05.03-.02 0-.04 0-.06-.02-.2-.18-.3-.2-.33-.2-.03.02-.07.09.03.32 0 .07-.05.14-.02.24.03.1.13.19.29.27.05.05.05.09.04.15-.01.09-.02.22.06.31.06.06.15.1.29.1.02 0 .05.01.06.04.01.02.01.05 0 .07-.03.05-.03.11 0 .17.04.08.13.13.22.13.03 0 .06.01.08.04.01.02.02.05 0 .07-.04.05-.05.1-.02.16.03.06.1.11.17.11.02 0 .04-.01.06-.01" fill="#539d51"/><path d="M35.25 23.14c-.55-.01-2.37-.07-2.54-.26-.03-.03-.03-.07 0-.1s.07-.02.1 0c.11.1 1.33.19 2.44.21.04 0 .07.04.07.07 0 .05-.03.08-.07.08m-2.38-.43c-.04 0-.07-.03-.07-.07.03-.58.87-2.11 1.15-2.62.04-.07.06-.12.07-.13 0-.08.14-.05.14.03 0 .02 0 .02-.08.17-.73 1.33-1.11 2.2-1.13 2.56-.01.03-.04.06-.08.06m.3-.12c-.04 0-.07-.03-.07-.07 0-.04.03-.07.07-.07.81-.02 2.67-.29 2.69-.29.04-.01.07.02.08.06s-.02.08-.06.08c-.02 0-1.89.27-2.71.29zm1.93-2.33c-.01 0-.03 0-.04-.01a.078.078 0 0 1-.02-.1c.69-1.09 2.11-2.36 2.13-2.37.03-.03.07-.02.1.01s.02.07-.01.1c-.01.01-1.42 1.26-2.1 2.34-.02.01-.04.03-.06.03m.67-2.14c-.02 0-.04-.01-.05-.02-.02-.02-.03-.06-.01-.09.04-.08.7-1.68.79-2.17.01-.04.04-.06.08-.06.04.01.06.04.06.08-.08.46-.77 2.18-.82 2.23-.01.02-.03.03-.05.03m-.13-.61h-.02c-.04-.01-.06-.05-.05-.09.31-.98.2-2.31.2-2.33 0-.04.02-.07.07-.08.03 0 .07.02.08.07 0 .05.11 1.38-.21 2.38-.01.03-.04.05-.07.05m-.45-1.55c-.03 0-.06-.02-.07-.05-.08-.23-.15-.46-.2-.68-.44-.64-1.25-1.46-1.26-1.47-.03-.03-.03-.07 0-.1s.07-.03.1 0c.04.04.63.64 1.08 1.22-.16-.74-.21-1.31-.21-1.32 0-.04.03-.07.07-.08.04 0 .07.03.08.07 0 .01.06.75.28 1.62.14.21.25.4.28.55.01.04-.02.08-.05.08-.02.01-.03 0-.05 0l.02.07c.01.04-.01.08-.04.09h-.03" fill="#539d51"/><path d="M29.44 23.97c-2.46-2.43-4.97-6.99-2.47-9.29.44.26.97.03 1.69-.27.22.25.5.31.78.13.31.14.54.03.7-.15.71.43 1.62.65 1.83.23 2.46 2.45-.04 7.03-2.53 9.35" fill-rule="evenodd" clip-rule="evenodd" fill="#3e7fcd"/><path d="M29.44 24.07l-.05-.05c-1.78-1.76-3.57-4.59-3.52-6.93.02-1 .37-1.83 1.06-2.46l.04-.04.03.03c.37.22.86.04 1.54-.24l.13-.05.03.04c.2.23.45.27.69.11.15.03.23.05.31.05.14 0 .27-.06.38-.18l.04-.04.05.03c.74.45 1.57.59 1.73.26l.04-.09.07.07c.7.7 1.05 1.6 1.03 2.7-.04 2.4-1.88 5.19-3.56 6.76l-.04.03zm-2.46-9.3c-.63.6-.96 1.38-.98 2.33-.04 2.28 1.69 5.04 3.43 6.78 1.65-1.56 3.43-4.28 3.47-6.61.02-1.02-.3-1.87-.93-2.53-.08.1-.23.18-.5.18-.37 0-.87-.17-1.33-.44-.2.2-.47.24-.74.12-.12.18-.52.15-.77-.1l-.04.02c-.68.28-1.2.46-1.61.25" fill="#796d14"/><path d="M27.57 19.17c-.13.04-.37.14-.37.14l-.23.39s-.22.16-.32.32c.52 1.13 1.26 2.23 2.05 3.15.1-.12.19-.25.27-.38.24-.36.4-.75.51-1.16-.15-.29-.2-.41-.31-.88-.07-.18-.33-.63-.33-.63l-.27-.42-.3-.25-.43-.28h-.27z" fill-rule="evenodd" clip-rule="evenodd" fill="#348110"/><path d="M28.69 23.19l-.01-.02c-.85-.99-1.56-2.08-2.05-3.15.1-.17.31-.33.32-.34l.23-.38c.01-.01.25-.11.38-.15h.27l.43.28.3.25.27.43c.01.02.27.46.34.64.11.46.15.58.31.87-.11.44-.28.84-.51 1.18-.08.13-.17.26-.27.38l-.01.01zm-.86-4.01h-.26c-.13.03-.36.14-.36.14l-.23.38c-.01.01-.22.17-.32.32.49 1.05 1.19 2.13 2.03 3.12.09-.12.18-.24.26-.36.23-.34.4-.73.51-1.16-.15-.28-.2-.4-.31-.87-.06-.17-.33-.62-.33-.63l-.27-.42-.3-.24-.42-.28z"/><path d="M28.06 22.3l.06-.05.2-.49.2-.25.01.01-.2.25-.07.21-.14.28-.06.04zm1.14-.36l-.25-.3-.4-.14s-.04-.04-.1-.25l-.1-.32-.2-.1s-.27-.46-.41-.67l.01-.01c.13.21.4.67.4.67l.2.1.11.32c.07.21.1.24.1.24l.4.14.24.32zm-1.78-.45l.15-.32-.1-.02-.17-.25.01-.01.17.24.1.03-.16.33zm1.65-.57l-.12-.2-.09-.03-.14-.21-.23-.1-.14-.32-.13-.1-.26-.03v-.01l.27.03.14.11.14.32.23.1.14.21.1.03.09.2zm-1.89-.02l.13-.08s.16-.42.3-.66c.07-.11.09-.12.11-.12l.04.06c.02 0 .05-.03.15-.19 0 0-.07-.38-.07-.66h.02c0 .28.07.66.07.67-.11.18-.14.2-.16.2l-.05-.06c-.01 0-.04.02-.1.1-.13.25-.3.67-.3.67l-.14.07zm-.3-.53l.19-.19-.07-.48h.02l.07.49c-.01.01-.07.08-.21.18"/><path d="M28.39 26.2c.46-.78 3.66-2.35 6.66-5.74-3.06 3.09-4.96 3.84-7.47 5.73.27-.01.54 0 .81.01" fill-rule="evenodd" clip-rule="evenodd" fill="#a2871a"/><path d="M28.43 26.27l-1.05-.02.16-.12c.8-.6 1.55-1.1 2.27-1.57 1.6-1.05 3.11-2.05 5.18-4.14l.1.1c-1.87 2.11-3.84 3.53-5.13 4.47-.78.57-1.35.98-1.52 1.26l-.01.02zm-.64-.16l.56.01c.2-.3.74-.69 1.53-1.27.76-.55 1.75-1.27 2.82-2.19-1.01.81-1.92 1.41-2.81 2-.67.45-1.36.91-2.1 1.45" fill="#7b6714"/><path d="M31.54 19.2c-.13.04-.37.14-.37.14l-.24.39s-.37.28-.37.46-.23.45-.23.45-.23.28-.23.49-.3.42-.3.42c.18.49.36.89.71 1.29.78-.94 1.49-2.05 1.94-3.19l-.21-.17-.42-.28h-.28z" fill-rule="evenodd" clip-rule="evenodd" fill="#348110"/><path d="M30.5 22.86l-.01-.01c-.36-.41-.53-.83-.71-1.29.01-.02.3-.23.3-.43 0-.21.23-.49.24-.5 0 0 .23-.28.23-.44 0-.18.36-.46.37-.47l.23-.38c.01-.01.24-.11.38-.15h.27l.64.45c-.43 1.09-1.1 2.2-1.94 3.21v.01zm1.3-3.65h-.26c-.13.04-.36.14-.36.14l-.23.38c-.01.01-.36.28-.36.45 0 .18-.23.45-.24.46 0 0-.23.28-.23.48 0 .22-.3.43-.31.43.18.44.35.85.7 1.25.83-1.01 1.5-2.1 1.93-3.17l-.64-.42z"/><path d="M30.12 22.68l.16-.25.2-.18s-.04-.31-.04-.52c0-.22.14-.22.14-.22l.19-.31-.07-.24v-.18c0-.01 0-.28.14-.39.13-.1.2-.17.2-.17l-.07-.49h.01l.07.49c0 .01-.07.08-.21.18-.13.1-.13.38-.13.38v.18l.07.24-.2.32c-.01 0-.13.01-.13.21 0 .21.03.53.03.53l-.2.18-.16.24zm-.13-.42l.19-.33-.14-.17.07-.36.2-.35s.14-.14.27-.21c.13-.07-.04-.44-.04-.45l.01-.01c.01.02.17.39.03.47-.13.07-.27.21-.27.21l-.2.35-.06.35.13.17-.19.33zm1.24-.29l.15-.46.17-.32-.1-.02-.17-.25.01-.01.17.25.1.03-.16.33-.17.45zm-.44-.73l.05-.18.44-.21s.17-.42.3-.66c.07-.1.08-.11.11-.11l.04.06c.02 0 .05-.03.15-.19 0 0-.07-.38-.07-.66h.02c0 .28.07.66.07.67-.11.18-.13.21-.16.2l-.04-.06c-.01 0-.04.02-.09.11-.13.24-.3.67-.3.67l-.44.21-.08.15zm1.22-.61c-.1-.14-.22-.33-.29-.45l.01-.01c.08.12.19.31.28.46m.32-.56l-.14-.09-.26-.03v-.02l.27.04.13.1z"/><path d="M32.79 22.59c0 .14-.1.24-.23.24s-.23-.11-.23-.24.11-.24.23-.24c.12 0 .23.11.23.24" fill-rule="evenodd" clip-rule="evenodd" fill="#914822"/><path d="M32.56 22.87c-.15 0-.27-.13-.27-.28s.12-.28.27-.28c.15 0 .27.12.27.28s-.13.28-.27.28m0-.49c-.11 0-.2.09-.2.21s.09.21.2.21c.11 0 .2-.09.2-.21s-.1-.21-.2-.21" fill="#613219"/><path d="M29.42 19.3c-.13.04-.37.14-.37.14l-.23.39s-.37.28-.37.46-.23.46-.23.46-.23.28-.23.49c0 .21-.3.42-.3.42-.2.13.18.47.42.76.45.61.83 1.06 1.31 1.53.67-.65 1.33-1.19 1.93-2.19-.15-.29-.2-.41-.31-.88-.07-.18-.33-.63-.33-.63l-.27-.42-.3-.25-.42-.28h-.3z" fill-rule="evenodd" clip-rule="evenodd" fill="#348110"/><path d="M29.4 23.96l-.01-.01c-.46-.45-.84-.9-1.31-1.53l-.15-.18c-.17-.2-.34-.38-.32-.51.01-.04.02-.07.06-.09 0 0 .3-.21.3-.41 0-.22.23-.49.24-.5 0 0 .23-.28.23-.45 0-.18.36-.46.38-.47l.23-.38c.01-.01.24-.11.38-.15h.27l.43.28.3.25.27.42c.01.02.27.46.34.64.11.46.15.58.31.88-.49.83-1.01 1.33-1.57 1.86-.12.11-.24.23-.36.34l-.02.01zm.28-4.65h-.26c-.13.03-.36.14-.36.14l-.23.38c-.01.01-.37.28-.37.45 0 .18-.23.45-.24.47 0 0-.23.28-.23.48 0 .22-.3.42-.31.43-.03.02-.05.04-.05.07-.02.11.15.3.32.48.05.06.11.12.15.18.47.63.84 1.07 1.3 1.52.12-.11.23-.22.35-.33.55-.53 1.08-1.02 1.57-1.84-.15-.28-.2-.4-.31-.86-.06-.17-.33-.62-.33-.63l-.27-.42-.3-.24-.43-.28z"/><path d="M28.6 23.13l.02-.11c0-.01.21-.22.37-.32.11-.07.1-.09.08-.13a.309.309 0 0 1-.02-.11c0-.06.01-.1.04-.11v-.28l.17-.46.17-.32-.1-.02-.17-.25.01-.01.17.25.1.03-.16.33-.17.46v.24c-.02.05-.03.07-.03.14 0 .04.01.08.02.1.02.06.02.08-.09.15-.16.1-.37.31-.37.31l-.04.11zm.87-.03l.26-.26.17-.42.07-.04.2-.49.2-.25.01.01-.2.25-.07.21-.13.28-.07.04-.17.42-.27.25zm-1.3-.57l.19-.19s-.04-.31-.04-.52c0-.22.14-.22.14-.22l.2-.31-.07-.24v-.18c0-.01 0-.28.14-.39.13-.1.2-.17.2-.17l-.07-.49h.01l.07.49c0 .01-.07.08-.2.18-.13.1-.13.38-.13.38v.18l.07.24-.2.32c-.01 0-.13.01-.13.21 0 .21.03.53.03.53l-.21.18zm-.2-.33l.09-.17-.14-.17.07-.36.2-.35s.14-.14.27-.21c.13-.07-.04-.44-.04-.45l.01-.01c.01.02.17.4.03.47-.13.07-.27.21-.27.21l-.19.35-.07.35.13.17-.09.17zm3.08-.13l-.25-.31-.4-.14s-.04-.04-.1-.25l-.1-.32-.2-.1s-.27-.46-.4-.67l.01-.01c.14.21.4.67.4.67l.2.1.1.32c.07.2.1.24.1.24l.4.14.24.33zm-2.38-.73l.05-.18.44-.21s.16-.42.3-.66c.07-.1.08-.11.11-.11l.04.06c.02 0 .07-.06.15-.19 0 0-.07-.38-.07-.66h.02c0 .28.07.66.07.67-.11.18-.15.21-.16.2l-.05-.06c-.01 0-.04.02-.09.1-.13.24-.3.67-.3.67l-.44.21-.07.16zm2.25-.29l-.12-.2-.1-.03-.14-.21-.23-.1-.14-.32-.13-.1-.26-.03v-.02l.27.04.14.11.14.32.23.1.14.22.1.03.1.19z"/><path d="M35.02 20.22c0 .15-.12.28-.27.28-.14 0-.26-.13-.26-.28 0-.15.12-.28.26-.28.16 0 .27.12.27.28" fill-rule="evenodd" clip-rule="evenodd" fill="#914822"/><path d="M34.76 20.53c-.16 0-.3-.14-.3-.31s.13-.31.3-.31c.17 0 .3.14.3.31s-.13.31-.3.31m0-.56c-.13 0-.23.11-.23.24s.1.24.23.24.23-.11.23-.24-.1-.24-.23-.24" fill="#613219"/><path d="M35.77 18.2c0 .14-.1.24-.23.24s-.23-.11-.23-.24.11-.24.23-.24c.13-.01.23.1.23.24" fill-rule="evenodd" clip-rule="evenodd" fill="#914822"/><path d="M35.54 18.48c-.15 0-.27-.13-.27-.28s.12-.28.27-.28c.15 0 .27.13.27.28s-.13.28-.27.28m0-.49c-.11 0-.2.09-.2.21 0 .11.09.21.2.21.11 0 .2-.1.2-.21-.01-.12-.09-.21-.2-.21" fill="#613219"/><path d="M35.04 15.58c0 .14-.1.24-.23.24s-.23-.11-.23-.24.11-.24.23-.24c.13-.01.23.1.23.24" fill-rule="evenodd" clip-rule="evenodd" fill="#914822"/><path d="M34.81 15.86c-.15 0-.27-.13-.27-.28s.12-.28.27-.28c.15 0 .27.13.27.28s-.13.28-.27.28m0-.49c-.11 0-.2.09-.2.21 0 .11.09.21.2.21.11 0 .2-.1.2-.21-.01-.12-.09-.21-.2-.21" fill="#613219"/><path d="M26.98 19.62v-1.03l-.1-.09v-.25l.18-.02.03-1.16-.12-.07-.02-.19s.13.05.13.02c0-.04.03-.23.03-.23s-.08-.02-.08-.05c0-.03.1-.12.1-.12s-.05-.05-.07-.09c-.02-.04-.05-.19-.05-.19l.05-.19-.04-.1-.08-.16.12-.12s-.04-.16-.04-.19c0-.04.08-.18.1-.19.02-.02.15-.21.15-.21l.29-.07.33.05.18.12.03.31s-.03.19-.05.19c-.02 0-.15.07-.15.07s-.17.02-.18 0c-.02-.02.05.21.05.21v.21l-.02.26s0 .12-.02.14c-.02.02-.05.07-.05.07l-.02.26.27.07-.02.16-.18.02.03 1.07.27.05v.3l-.12.07-.03 1.07h-.9z" fill-rule="evenodd" clip-rule="evenodd" fill="#fff"/><path d="M27.95 19.65h-.97l-.04-1.07-.09-.06-.01-.27.21-.05v-1.12l-.1-.04-.03-.22c.08-.03.13-.01.15-.01a.75.75 0 0 1 .02-.2c-.01.02-.08 0-.08-.05 0-.04.05-.09.09-.13-.02-.01-.04-.04-.06-.06a.734.734 0 0 1-.05-.2l.05-.21-.11-.24.12-.16c-.01 0-.04-.13-.04-.17 0-.05.09-.2.11-.22.02-.02.15-.21.15-.21l.3-.09.35.05.2.13.05.34c-.04.23-.06.23-.08.23-.01 0-.08.04-.14.07-.01 0-.09.01-.14.01l-.05-.01c.04.03.06.1.08.17v.22l-.02.27c0 .13-.02.15-.02.16-.01.01-.03.05-.05.07l-.01.25.24.04.01.19-.21.05.06 1.03.24.02.03.33-.13.1-.03 1.06zm-1-2.8l.06.16.1.05-.02 1.19-.21.05.03.21.09.06.01 1.06.87-.03.03-1.03.13-.1-.02-.27-.24-.02-.06-1.1.21-.05-.02-.13-.24-.04-.01-.3a.47.47 0 0 1 .06-.09c0-.01.01-.06.01-.11l.02-.47c-.06-.21-.06-.22-.04-.23l.04.03.05-.03c.05 0 .12-.01.13-.01.13-.07.15-.07.15-.07-.02 0 0-.09.01-.16l-.03-.31-.17-.1-.32-.05-.27.07c0 .01-.12.18-.13.2a.7.7 0 0 0-.09.17c0 .02.02.12.03.18l-.13.15.09.12.04.11-.05.21c.01.05.04.15.05.17.01.03.05.07.06.08-.05.09-.09.13-.09.15l.03.01.05.05s-.03.19-.03.22v.03l-.06.01c-.03-.01-.11-.03-.12-.04" fill="#a6a6a6"/><path d="M31.04 19.64v-1.03l-.1-.09v-.25l.18-.02.03-1.15-.12-.07-.02-.19s.13.05.13.02c0-.04.03-.23.03-.23s-.08-.02-.08-.05c0-.03.1-.12.1-.12s-.05-.05-.07-.09c-.02-.03-.05-.19-.05-.19l.05-.19-.03-.1-.08-.16.12-.12s-.03-.16-.03-.19c0-.04.08-.18.1-.19.02-.02.15-.21.15-.21l.29-.07.33.05.18.12.03.32s-.03.19-.05.19c-.02 0-.15.07-.15.07s-.17.02-.18 0c-.02-.02.05.21.05.21v.21l-.02.26s0 .12-.02.14c-.02.02-.05.07-.05.07l-.02.26.27.07-.02.16-.18.02.03 1.07.27.05v.3l-.12.07-.03 1.07h-.92z" fill-rule="evenodd" clip-rule="evenodd" fill="#fff"/><path d="M32.01 19.67h-.97L31 18.61l-.09-.06-.01-.27.21-.05v-1.12l-.1-.04-.03-.22c.07-.02.13-.01.15-.01a.75.75 0 0 1 .02-.2c-.01.02-.08 0-.08-.05 0-.04.05-.09.09-.13-.02 0-.04-.03-.06-.06a.835.835 0 0 1-.05-.2l.05-.21-.12-.24.12-.16c-.01 0-.04-.13-.04-.17 0-.05.09-.2.11-.22.02-.02.15-.21.15-.21l.3-.08.35.05.2.13.05.34c-.04.23-.06.23-.08.23-.01 0-.08.04-.14.07-.01 0-.09.01-.14.01l-.05-.01c.04.03.06.1.08.17v.22l-.02.26c0 .14-.02.16-.03.16-.01.01-.03.04-.04.07l-.01.25.24.03.01.2-.22.05.07 1.03.24.02.03.33-.13.1-.02 1.05zm-1-2.8l.06.16.1.04-.02 1.19-.21.05.03.21.09.06.01 1.06.87-.03.03-1.03.14-.1-.02-.27-.24-.02-.06-1.1.21-.06-.02-.13-.24-.03-.01-.3a.47.47 0 0 1 .06-.09c0-.01.01-.06.01-.12l.02-.47c-.06-.21-.06-.22-.05-.23l.04.03.05-.03c.05 0 .12-.01.13-.01.13-.07.14-.07.15-.07-.02 0 0-.09.01-.16l-.03-.3-.17-.1-.32-.05-.27.07c0 .01-.12.18-.14.2a.7.7 0 0 0-.09.17c0 .02.02.13.03.19l-.13.15.09.12.04.11-.05.21c.01.04.04.14.05.17.01.02.05.07.06.08-.05.09-.09.13-.09.15l.03.01.05.05s-.03.19-.03.22v.03l-.06.01c-.03-.01-.1-.04-.11-.04" fill="#a6a6a6"/><path d="M28.99 19.67v-1.03l-.1-.09v-.25l.18-.02.04-1.15-.12-.07-.02-.19s.14.05.14.02c0-.04.03-.23.03-.23s-.08-.02-.08-.05c0-.03.1-.12.1-.12s-.05-.05-.07-.09c-.02-.04-.05-.19-.05-.19l.05-.19-.03-.11-.08-.16.12-.12s-.03-.16-.03-.19c0-.04.08-.18.1-.19.02-.02.15-.21.15-.21l.28-.07.33.05.18.12.03.32s-.03.19-.05.19-.15.07-.15.07-.17.02-.18 0c-.02-.02.05.21.05.21v.21l-.02.26s0 .12-.02.14c-.02.02-.05.07-.05.07l-.02.26.27.07-.02.16-.18.02.03 1.07.27.05v.3l-.12.07-.03 1.07h-.93z" fill-rule="evenodd" clip-rule="evenodd" fill="#fff"/><path d="M29.96 19.71h-.97l-.03-1.07-.09-.06-.01-.27.21-.05v-1.12l-.1-.04-.03-.22c.08-.03.13-.01.15-.01-.01-.01.02-.21.02-.21-.01.03-.08.01-.08-.05 0-.04.05-.09.09-.13-.02 0-.04-.03-.06-.06a.969.969 0 0 1-.05-.2l.05-.21-.11-.24.12-.16c-.01 0-.04-.13-.04-.17 0-.05.1-.2.11-.22.02-.02.15-.21.15-.21l.3-.09.35.05.2.13.05.34c-.04.23-.06.23-.09.23-.01 0-.08.04-.13.07-.01.01-.09.01-.14.01l-.05-.01c.04.03.06.1.08.17v.22l-.02.27c0 .13-.02.15-.02.16-.01.01-.03.05-.05.07l-.01.24.24.03.01.2-.21.05.07 1.03.24.02.03.33-.13.1-.05 1.08zm-1-2.81l.06.16.1.05-.02 1.19-.21.05.03.21.09.06.01 1.06.87-.03.03-1.03.13-.1-.02-.27-.24-.02-.06-1.1.21-.05-.02-.13-.22-.05-.01-.3a.47.47 0 0 1 .06-.09c0-.01.01-.06.01-.12l.02-.47c-.06-.21-.06-.22-.04-.23l.04.03.05-.03c.05 0 .13-.01.13-.01.13-.07.14-.07.15-.07-.02 0 .01-.09.02-.16l-.03-.3-.17-.1-.35-.05-.27.07c0 .01-.12.18-.13.2-.02.02-.09.14-.09.17 0 .02.02.13.03.19l-.12.15.09.12.03.1-.05.21c.01.04.04.14.05.17.01.02.05.07.06.08-.05.09-.09.13-.09.15l.03.01.05.05s-.03.19-.03.22v.03l-.06.01c-.04.01-.11-.02-.12-.03" fill="#a6a6a6"/><path fill-rule="evenodd" clip-rule="evenodd" d="M27.23 19.61v-.81h.44v.84zM29.28 19.68l.02-.83h.38v.81zM31.3 19.66l-.03-.78.42-.02v.82zM27.34 17.2h.25v.42h-.25zM29.31 17.22h.34v.41h-.34zM31.33 17.25h.3v.39h-.3z"/><path d="M29.65 15.67c-.09 0-.15-.14-.2-.25l.04-.09.03.06c.04.09.11.26.18.27-.02.01-.03.01-.05.01m-1.92 0c-.03 0-.1-.07-.29-.3l.05-.04c.23.27.27.3.28.31-.01.01-.02.03-.04.03m4.05-.02c-.14 0-.21-.21-.22-.24l.07-.02c.03.09.1.24.18.26h-.03" fill="#a5a5a5"/><path d="M27.18 14.47c.78-.26-.18-.79-.34 0-.25.04-.29.24-.83.15-1.32 2.26-.34 5.9 3.52 9.67-6.92-6.18-4.11-10.74-2.19-10.57 1.04.07.52 1.43-.16.75" fill-rule="evenodd" clip-rule="evenodd" fill="#ad761b"/><path d="M30.55 14.68c-.09-.04-.31-.38-.26-.79l.14.02c-.04.34.14.62.19.65l-.07.12zm-1.14-.16l-.02-.74h.14l.02.74h-.14zm-.78-.06c-.02-.07-.03-.14-.04-.21-.04.14-.1.21-.11.21l-.11-.09s.13-.17.13-.47h.09c.02-.21.08-.37.08-.38l.13.04s-.16.47-.05.86l-.12.04zm1.39-.05l.02-.09c.04-.14.13-.47-.02-.64l.1-.1c.21.22.1.6.06.77l-.16.06zm-.37-.18l-.1-.1c.13-.14.41-.22.42-.22l.04.13c0 .01-.25.08-.36.19m-.48-.04c-.07-.12-.27-.09-.29-.08l-.11-.05.08-.08c.12-.03.34-.02.44.15l-.12.06zm-1.06-.42h-.14c0-.19-.43-.35-.59-.4l.04-.13c.07.02.69.21.69.53m2.18 0c-.01-.03-.04-.12.31-.43l.09.1c-.14.12-.26.26-.27.3l-.13.03zm-1.78-.09c-.07-.13-.39-.3-.51-.36l.06-.13c.05.02.46.22.57.41l-.12.08zm2.37-.05l-.12-.08c.14-.2.67-.28.73-.29l.02.14c-.2.03-.55.12-.63.23" fill="#796d14"/><path d="M30.12 14.3l-.04.04c-.07.08-.15.14-.26.17-.1.03-.22.02-.36-.04l-.03-.02-.03.02c-.13.09-.25.11-.36.09-.11-.02-.22-.09-.33-.21l-.03-.04-.05.02c-.36.15-.67.28-.94.35-.27.06-.49.05-.69-.07l-.04-.03-.04.03c-.64.59-.96 1.32-1.04 2.13s.08 1.67.39 2.55c.63 1.74 1.88 3.5 3.11 4.72l.05.05.05-.04c1.26-1.17 2.51-2.9 3.14-4.66.63-1.76.64-3.55-.61-4.8l-.07-.07-.04.09c-.04.09-.12.14-.23.17-.11.03-.26.03-.42 0-.33-.05-.73-.22-1.08-.43l-.05-.02zm.03.17c.35.21.74.37 1.08.42.18.03.34.03.48 0 .11-.03.19-.09.26-.17 1.16 1.2 1.15 2.89.53 4.59-.62 1.71-1.83 3.4-3.06 4.55-1.21-1.2-2.42-2.92-3.03-4.62-.31-.86-.46-1.71-.39-2.49.07-.76.37-1.45.96-2.01.23.11.47.12.74.06.28-.07.58-.19.92-.34.11.11.23.19.37.22.14.03.29-.01.43-.1.15.06.3.07.42.04.12 0 .21-.07.29-.15" fill-rule="evenodd" clip-rule="evenodd" fill="#796d14"/><path d="M31.8 14.41c-.78-.26.18-.79.34 0 .25.04.29.24.83.15 1.32 2.26.34 5.9-3.52 9.67 6.92-6.18 4.11-10.74 2.19-10.57-1.04.07-.52 1.44.16.75" fill-rule="evenodd" clip-rule="evenodd" fill="#ad761b"/><path d="M26.15 22.88c-.96-.88-2.26-1.36-4.08-.7.49.22 1.02.3 1.46.54.88.05 1.75.1 2.62.16" fill-rule="evenodd" clip-rule="evenodd" fill="#2b6a0c"/><path d="M26.15 22.95l-2.62-.17c-.27-.14-.53-.22-.81-.3-.23-.07-.46-.14-.68-.24-.02-.02-.04-.04-.04-.07 0-.03.02-.05.05-.06 1.6-.58 2.99-.34 4.15.72.02.02.03.05.02.08-.01.02-.04.04-.07.04m-3.88-.77c.17.06.33.12.5.17.27.08.55.17.8.3l2.38.15c-1.05-.88-2.26-1.09-3.68-.62" fill="#1c4404"/><path d="M25.73 22.79c-.01 0-.03 0-.04-.01-.11-.07-.76-.42-2.33-.45-.04 0-.07-.03-.07-.07 0-.04.03-.07.07-.07 1.51.03 2.18.35 2.38.46.01 0 .02.01.02.01.03.02.04.07.02.1-.01.02-.03.03-.05.03" fill="#43a514"/><path d="M26.19 22.98c-.57.12-1.35.69-1.58.66-.62-.08-1.2-.34-1.8-.54-.25-.08-.5 0-.75 0 2.13-1.05 2.85-.91 4.13-.12" fill-rule="evenodd" clip-rule="evenodd" fill="#2b6a0c"/><path d="M24.63 23.72h-.02c-.47-.06-.92-.22-1.35-.38-.15-.06-.31-.11-.46-.16-.13-.04-.3-.03-.47-.02-.09.01-.17.02-.26.02-.03 0-.06-.02-.07-.06-.01-.03.01-.06.04-.08 2.18-1.08 2.94-.9 4.21-.12.02.02.04.04.03.07-.01.03-.03.05-.05.05-.29.06-.63.24-.94.4-.31.16-.53.28-.66.28M22.56 23c.1 0 .19.01.27.04.16.05.31.11.47.16.45.16.87.32 1.32.37h.01c.1 0 .33-.12.58-.25.26-.14.55-.29.82-.37-1.11-.66-1.8-.79-3.6.05h.13" fill="#1c4404"/><path d="M24.79 21.43s-.71.1-1.03.12c-.32-.02-.78-.33-1.29-.89-.27-.3-.87-.27-.87-.27 1.34-.3 2.38-.02 3.19 1.04" fill-rule="evenodd" clip-rule="evenodd" fill="#2b6a0c"/><path d="M23.76 21.62c-.35-.02-.82-.35-1.34-.92-.2-.23-.63-.25-.76-.25h-.05v-.01c-.03-.01-.05-.03-.05-.05 0-.04-.01-.07.02-.07 1.43-.32 2.46.03 3.26 1.06.02.02.02.05.01.07-.01.02-.03.04-.05.04 0 0-.72.11-1.04.13zm-1.66-1.25c.16.04.32.11.43.24.48.53.93.85 1.23.87.24-.02.69-.08.9-.11-.66-.8-1.48-1.13-2.56-1" fill="#1c4404"/><path d="M23.82 19.97c-.97-.06-2.18-.98-2.46-2.05 0 .01.36.24.3.29 1.59.42 1.7.76 2.16 1.76" fill-rule="evenodd" clip-rule="evenodd" fill="#2b6a0c"/><path d="M23.82 20.04c-.95-.06-2.22-.94-2.52-2.11-.01-.03.01-.07.04-.08.04-.01.07 0 .09.04.19.13.28.2.3.26 1.52.41 1.68.76 2.11 1.69l.05.1c.01.02.01.05-.01.07-.02.02-.04.03-.06.03m-2.33-1.94c.35.94 1.38 1.68 2.21 1.79-.42-.91-.56-1.22-2.06-1.61a.12.12 0 0 1-.05-.05c-.01-.02 0-.05.02-.07-.02 0-.07-.03-.12-.06" fill="#1c4404"/><path d="M25.44 21.72c.14-.92.18-1.53-.24-2.07-.34-.42-.43-.66-.67-1.25-.07 1.21-.32 2.21.91 3.32" fill-rule="evenodd" clip-rule="evenodd" fill="#2b6a0c"/><path d="M25.44 21.79c-.02 0-.03-.01-.05-.02-1.12-1-1.04-1.91-.96-2.97l.03-.41c0-.03.02-.06.06-.06.03 0 .06.01.08.04l.07.16c.19.47.29.7.6 1.07.44.58.39 1.25.25 2.13 0 .02-.02.04-.05.05-.01 0-.02.01-.03.01m-.86-3.1c0 .04-.01.08-.01.12-.08.99-.15 1.84.82 2.77.12-.8.15-1.38-.24-1.89-.29-.36-.4-.59-.57-1" fill="#1c4404"/><path d="M23.92 19.16c.72-1.1.84-1.93.73-3.24-.02.1-.26.75-.28.75-1.07.71-.59 1.81-.45 2.49" fill-rule="evenodd" clip-rule="evenodd" fill="#2b6a0c"/><path d="M23.92 19.23h-.01c-.03 0-.05-.03-.06-.05-.02-.1-.04-.2-.07-.3-.17-.69-.4-1.62.56-2.26.02-.04.23-.61.25-.7.01-.04.03-.06.07-.06.03 0 .06.03.07.07.11 1.23.02 2.11-.74 3.28-.03.01-.05.02-.07.02m.69-2.94c-.08.22-.17.45-.23.45-.84.57-.63 1.42-.46 2.1.01.05.02.1.04.14.58-.95.7-1.7.65-2.69" fill="#1c4404"/><path d="M23.28 13.85c.72 1.1.61 2.14.49 3.45-.02-.1-.26-.75-.28-.75-1.06-.71-.35-2.01-.21-2.7" fill-rule="evenodd" clip-rule="evenodd" fill="#2b6a0c"/><path d="M23.78 17.37c-.03 0-.06-.02-.07-.06-.02-.1-.23-.66-.26-.72-.89-.58-.58-1.58-.36-2.3.05-.17.1-.32.13-.45.01-.03.03-.05.05-.05.03-.01.05.01.07.03.71 1.09.63 2.1.52 3.39l-.01.11c-.01.02-.03.04-.07.05zm-.24-.88c.04 0 .13.23.2.45.09-1.09.12-1.98-.43-2.91-.02.09-.06.19-.09.3-.22.72-.5 1.62.32 2.16z" fill="#1c4404"/><path d="M23.88 15.55c1.74-.92 1.07-2.09 1.38-2.99-1.21.94-1.36 1.95-1.38 2.99" fill-rule="evenodd" clip-rule="evenodd" fill="#2b6a0c"/><path d="M23.88 15.62c-.01 0-.02 0-.04-.01s-.03-.04-.03-.06c.02-1 .14-2.06 1.41-3.04.03-.02.06-.02.08 0 .03.02.04.05.03.08-.09.25-.1.53-.11.82-.02.72-.04 1.53-1.31 2.2-.01.01-.02.01-.03.01m1.26-2.87c-1.02.87-1.16 1.8-1.19 2.68 1.09-.62 1.12-1.34 1.13-2.03.01-.22.02-.44.06-.65" fill="#1c4404"/><path d="M23.6 16.74c-.04 0-.07-.03-.07-.07-.03-.37-.18-1.26-.25-1.63l-.03-.17c-.01-.04.02-.07.06-.08.04-.01.07.02.08.06l.03.17c.06.38.22 1.27.25 1.65 0 .03-.03.07-.07.07zm.51-1.35h-.02c-.04-.01-.06-.05-.04-.09 0-.02.62-1.79.76-1.79.04 0 .07.03.07.07 0 .04-.03.07-.07.07-.01.06-.41 1.07-.63 1.7-.01.02-.04.04-.07.04" fill="#43a514"/><path d="M23.68 18.73c-.97-.06-2.02-1.45-2.3-2.53 0 .01.36.23.3.29 1.39.65 1.54 1.23 2 2.24" fill-rule="evenodd" clip-rule="evenodd" fill="#2b6a0c"/><path d="M23.68 18.8c-.98-.06-2.07-1.44-2.36-2.58-.01-.03.01-.07.04-.08.03-.01.07 0 .09.04.2.14.29.21.3.27 1.24.59 1.49 1.14 1.86 1.98l.13.28c.01.02.01.05-.01.07-.01.01-.03.02-.05.02m-2.17-2.43c.33 1.01 1.23 2.12 2.06 2.27l-.08-.17c-.38-.84-.6-1.35-1.84-1.93-.02-.01-.04-.03-.04-.05 0-.02 0-.05.02-.06-.02.01-.07-.02-.12-.06" fill="#1c4404"/><path d="M23.39 17.77c-.72-1.1-.84-1.93-.73-3.24.02.1.26.75.28.75 1.06.71.59 1.81.45 2.49" fill-rule="evenodd" clip-rule="evenodd" fill="#2b6a0c"/><path d="M23.39 17.84c-.02 0-.04-.01-.06-.03-.76-1.16-.85-2.05-.74-3.28 0-.03.03-.06.07-.06.04 0 .07.02.07.06.02.1.23.67.26.72.94.62.71 1.56.54 2.24-.03.11-.05.21-.07.31-.01.03-.03.05-.05.05-.01-.01-.02-.01-.02-.01m-.69-2.93c-.05.99.07 1.74.66 2.69.01-.05.02-.1.04-.15.17-.68.38-1.53-.5-2.11-.05 0-.13-.22-.2-.43" fill="#1c4404"/><path d="M24.04 15.84c1.8-.84 1.25-1.71 1.78-2.63-1.21.94-1.77 1.59-1.78 2.63" fill-rule="evenodd" clip-rule="evenodd" fill="#2b6a0c"/><path d="M24.04 15.91c-.01 0-.03 0-.04-.01-.02-.01-.03-.03-.03-.06.02-1.1.63-1.77 1.81-2.69.03-.02.06-.02.09 0s.03.06.02.09c-.16.28-.22.56-.28.83-.13.61-.26 1.24-1.53 1.83-.02.01-.03.01-.04.01m1.58-2.46c-.95.77-1.46 1.38-1.52 2.28 1.11-.54 1.23-1.1 1.35-1.68.05-.2.1-.4.17-.6" fill="#1c4404"/><path d="M24.11 15.72c-.02 0-.03-.01-.05-.02-.03-.03-.03-.07 0-.1.71-.75.97-1.38.98-1.39.01-.03.05-.05.09-.04.04.01.05.05.04.09-.01.03-.27.66-1.01 1.43-.01.03-.03.03-.05.03" fill="#43a514"/><path d="M30.52 26.22c.29.01.58.01.88.02-2.91-2.86-8.49-4.1-7.72-9.37-.8 5.7 4.56 6.23 6.84 9.35" fill-rule="evenodd" clip-rule="evenodd" fill="#a2871a"/><path d="M31.58 26.31l-1.06-.02c-.81-1.06-1.92-1.82-3-2.55-2.08-1.42-4.23-2.88-3.96-6.34.01-.17.03-.35.06-.53l.14.02-.06.52c-.23 3.33 2.3 4.96 4.74 6.55 1.06.69 2.16 1.4 3.01 2.24l.13.11zm-7.31-5.81c.72 1.34 2 2.21 3.33 3.12 1.09.74 2.21 1.51 2.98 2.56l.38-.02.26.01c-.82-.77-1.86-1.44-2.86-2.09-1.58-1.03-3.19-2.08-4.09-3.58" fill="#7b6714"/><path d="M24.14 15.74c0 .16-.12.29-.28.29-.15 0-.28-.13-.28-.29 0-.16.13-.29.28-.29.16 0 .28.13.28.29" fill-rule="evenodd" clip-rule="evenodd" fill="#914822"/><path d="M23.86 16.07c-.17 0-.31-.15-.31-.33 0-.18.14-.33.31-.33.17 0 .31.15.31.33 0 .18-.14.33-.31.33m0-.59c-.13 0-.24.12-.24.26s.11.26.24.26.24-.12.24-.26-.1-.26-.24-.26" fill="#613219"/><path d="M23.97 17.35c0 .15-.12.28-.27.28-.14 0-.26-.13-.26-.28 0-.15.12-.28.26-.28.15 0 .27.13.27.28" fill-rule="evenodd" clip-rule="evenodd" fill="#914822"/><path d="M23.71 17.66c-.17 0-.3-.14-.3-.31s.13-.31.3-.31c.17 0 .3.14.3.31s-.14.31-.3.31m0-.55c-.13 0-.23.11-.23.24s.1.24.23.24.23-.11.23-.24-.11-.24-.23-.24" fill="#613219"/><path d="M24.22 19.64c0 .14-.11.24-.23.24-.13 0-.23-.11-.23-.24s.1-.24.23-.24c.12 0 .23.11.23.24" fill-rule="evenodd" clip-rule="evenodd" fill="#914822"/><path d="M23.99 19.92c-.15 0-.27-.13-.27-.28s.12-.28.27-.28c.15 0 .27.13.27.28s-.13.28-.27.28m0-.48c-.11 0-.2.09-.2.21s.09.21.2.21c.11 0 .2-.09.2-.21s-.1-.21-.2-.21" fill="#613219"/><path d="M26.25 22.19c0 .14-.11.24-.23.24s-.23-.11-.23-.24c0-.14.1-.25.23-.25s.23.11.23.25" fill-rule="evenodd" clip-rule="evenodd" fill="#914822"/><path d="M26.02 22.46c-.15 0-.27-.13-.27-.28 0-.15.12-.28.27-.28.15 0 .27.13.27.28 0 .16-.12.28-.27.28m0-.48c-.11 0-.2.09-.2.21 0 .11.09.21.2.21.11 0 .2-.09.2-.21s-.09-.21-.2-.21" fill="#613219"/><path d="M26.55 22.91c0 .14-.1.24-.23.24s-.23-.11-.23-.24.11-.24.23-.24c.12 0 .23.11.23.24" fill-rule="evenodd" clip-rule="evenodd" fill="#914822"/><path d="M26.31 23.19c-.15 0-.27-.13-.27-.28s.12-.28.27-.28c.15 0 .27.13.27.28s-.12.28-.27.28m0-.49c-.11 0-.2.09-.2.21s.09.21.2.21c.11 0 .2-.09.2-.21s-.09-.21-.2-.21" fill="#613219"/><path d="M27.57 25.04c-.15-.15-.25-.24-.31-.4-.3-.03-.61-.07-.91-.1 0 .18-.01.36-.01.55.41-.03.82-.04 1.23-.05" fill-rule="evenodd" clip-rule="evenodd" fill="#fff"/><path d="M26.3 25.12l.01-.58.5.02.46.05c.09.17.18.26.33.41l-1.3.1zm.05-.55l.02.48 1.2-.04c-.18-.09-.28-.19-.34-.35l-.88-.09z"/><path d="M20.88 24.39c.53.1 1.33-.05 1.59.31.31.37-.98.95-.8 1.27.4.45.81.26 1.26.02.1-.24.19-.67.24-.8-.16-.39-.6-.59-.49-1.18.74-.29 2.16-.26 2.31-.15.12.25.01.36.04.56-.12.25-.44.67-.44.89.78.29.98-.05 1.68-.02.82.01 1.32.24 1.49-.1-.12-.3-.87-.05-1.16-.24-.14-.05-.23-.17-.36-.3-.12-.13-.47-.14-.52-.46.14-.7 1.1-.59 1.26-.7l2.5.18c.45-.02.71.84.1 1.1-.61.26-2.42-.38-3.2.06-.04-.18-.6-.45-.64-.46-.24.07-.71.05-.71.05-.11.22-.24.39-.36.61-.52-.24-1.01.19-1.57.06 0 0-.86.1-.88.1-.03 0-.56-.05-.56-.05-.29.09-.57.17-.86.26.2-.19.41-.38.61-.57-.17-.17-.35-.3-.53-.44" fill-rule="evenodd" clip-rule="evenodd" fill="#fff"/><path d="M22.22 26.27c-.21 0-.4-.09-.57-.28-.11-.18.14-.39.39-.62.07-.06.14-.12.2-.18h-.01c-.03 0-.57-.05-.57-.05l-.85.26c-.02.01-.03 0-.04-.02-.01-.01 0-.03.01-.04l.61-.57-.54-.36c.2-.03.41-.02.61-.02.42.01.84.02 1.03.28.12.14.03.3-.08.43l.64-.08c-.05-.06-.09-.12-.13-.17-.17-.22-.35-.45-.27-.86.58-.24 1.4-.26 1.64-.26.3 0 .64.02.73.08.09.18.08.29.06.39-.01.05-.02.1-.01.15.04-.01.1 0 .16 0 .16 0 .37-.01.5-.05h.02a.578.578 0 0 1-.05-.14c.11-.55.69-.63 1.03-.68.11-.02.21-.03.24-.05l2.52.17c.23 0 .42.19.48.46.05.23-.02.56-.37.7-.25.1-.76.06-1.33-.01-.7-.08-1.45-.14-1.82.04.07.04.12.07.17.09.11.07.3.08.49.08h.12c.27 0 .5.01.57.18-.1.21-.27.24-.43.24-.11 0-.25-.02-.41-.03-.2-.02-.43-.05-.69-.05h-.01c-.29 0-.46.04-.63.08-.32.07-.63.1-1.06-.05-.01-.1.02-.21.08-.33-.31-.06-.53-.04-.81.03-.22.05-.46.1-.68.07.01.02.02.05.03.07-.02.08-.05.19-.09.32-.04.17-.1.37-.16.51-.22.14-.48.27-.72.27m.87-1.19l-.75.11c-.06.07-.16.16-.25.24-.22.2-.45.4-.38.52.34.37.79.23 1.21 0 .04-.12.1-.31.14-.48.04-.13.07-.25.09-.3-.02-.01-.04-.05-.06-.09m1.94-.59c-.02.06-.06.13-.11.21-.13.21-.28.46-.28.6.36.09.68.09.99.02.17-.04.35-.08.59-.08.33 0 .56.03.76.05.42.05.67.05.76-.13-.05-.1-.27-.11-.5-.11l-.12-.04v.04c-.2 0-.4-.01-.52-.09a.552.552 0 0 1-.21-.14c-.02.01-.04-.04-.05-.05l-.05-.05c-.06-.05-.12-.1-.18-.14-.11-.05-.19-.09-.26-.15-.06-.03-.1-.04-.1-.04-.19.07-.59.05-.68.05-.02.01-.03.03-.04.05m-4.15-.07l.57.35-.5.52.71-.21c.03 0 .54.05.57.05.01 0 .05 0 .11-.01.15-.17.19-.29.11-.39-.17-.23-.58-.24-.97-.25-.21-.02-.42-.02-.6-.06m2.29.62c.16 0 .45-.02.68-.08.29-.07.59-.11.85-.01.01-.01.01-.03.02-.04a.75.75 0 0 1 .13-.25c.06-.1.12-.19.18-.3-.01-.05 0-.11.01-.17.01-.1.03-.2-.04-.34-.04-.02-.29-.06-.67-.06-.49 0-1.16.06-1.6.23-.05.35.11.56.28.78.06.07.11.15.16.23zm4.04-.43c.34 0 .71.05 1.07.09.56.07 1.07.11 1.3.02.31-.13.37-.41.33-.62-.04-.2-.19-.4-.4-.4L27 23.5c-.02.03-.12.04-.25.06-.35.05-.87.12-.97.61.01.07.05.14.11.2.07.03.16.08.25.14.06.03.11.06.15.09.07.07.09.1.11.12.19-.06.46-.11.81-.11"/><path d="M20.85 24.28c0 .14-.11.25-.24.25s-.24-.11-.24-.25.11-.25.24-.25.24.11.24.25" fill-rule="evenodd" clip-rule="evenodd" fill="#fff"/><path d="M20.61 24.56c-.15 0-.27-.13-.27-.28s.12-.28.27-.28c.15 0 .27.13.27.28s-.12.28-.27.28m0-.49c-.11 0-.2.1-.2.21s.09.21.2.21c.11 0 .2-.1.2-.21s-.09-.21-.2-.21"/><path d="M20.78 25.5c0 .14-.11.25-.24.25s-.24-.11-.24-.25.11-.25.24-.25.24.12.24.25" fill-rule="evenodd" clip-rule="evenodd" fill="#fff"/><path d="M20.55 25.79c-.15 0-.27-.13-.27-.28s.12-.28.27-.28c.15 0 .27.13.27.28s-.12.28-.27.28m0-.5c-.11 0-.2.1-.2.21s.09.21.2.21c.11 0 .2-.1.2-.21s-.09-.21-.2-.21"/><path d="M31.35 25.04c.15-.15.25-.24.31-.4.3-.04.61-.07.91-.11 0 .18.01.36.01.55l-1.23-.04z" fill-rule="evenodd" clip-rule="evenodd" fill="#fff"/><path d="M32.62 25.12l-1.27-.05c.13-.21.22-.29.28-.44l.94-.13.05.62zm-.08-.58l-.87.14c-.03.14-.14.24-.29.38l.59-.04.58.02-.01-.5z"/><path d="M38.04 24.39c-.53.1-1.33-.05-1.59.31-.31.37.98.95.79 1.27-.4.44-.81.26-1.26.01-.1-.24-.19-.67-.24-.8.16-.39.6-.59.49-1.18-.74-.29-2.16-.26-2.31-.15-.12.25-.01.36-.04.56.12.25.44.67.44.89-.77.29-.98-.04-1.68-.02-.82.01-1.32.24-1.49-.1.12-.29.87-.05 1.16-.24.14-.05.23-.17.36-.3.12-.13.47-.14.52-.46-.14-.7-1.1-.59-1.26-.7l-2.5.18c-.45-.01-.71.84-.1 1.1.61.26 2.42-.38 3.2.06.04-.18.6-.45.64-.46.24.08.71.05.71.05.11.22.24.39.36.61.52-.24 1.01.19 1.57.06 0 0 .86.1.88.1.03 0 .56-.05.56-.05.29.08.57.17.86.26-.2-.19-.41-.38-.61-.57.18-.15.36-.29.54-.43" fill-rule="evenodd" clip-rule="evenodd" fill="#fff"/><path d="M36.7 26.28c-.25 0-.5-.13-.74-.26-.08-.15-.13-.35-.17-.52-.03-.13-.06-.24-.09-.29.01-.04.02-.07.03-.1-.25.05-.46-.02-.68-.07-.28-.07-.56-.11-.79-.01.05.1.08.2.08.27-.47.22-.76.16-1.08.09-.17-.04-.34-.08-.58-.08-.32 0-.55.03-.75.05-.16.02-.29.03-.41.03-.16 0-.33-.02-.43-.2.07-.2.3-.21.57-.21h.12c.19 0 .38-.01.48-.08.07-.02.12-.06.18-.11-.44-.15-1.14-.11-1.82-.02-.57.07-1.09.11-1.33.01-.35-.15-.41-.47-.37-.7.05-.27.25-.46.47-.46l2.51-.18c.06.03.15.04.27.06.34.05.92.13 1.03.67-.01.06-.02.11-.05.15.23.06.58.05.68.05 0-.05-.01-.09-.01-.14-.02-.1-.03-.21.05-.38.1-.08.44-.1.74-.1.24 0 1.07.02 1.62.23.1.44-.08.67-.25.89-.05.06-.1.12-.14.19l.65.06c-.12-.13-.2-.29-.08-.43.18-.25.61-.26 1.03-.27.2-.01.41-.01.58-.05l-.51.47.61.51c.01.01.01.03.01.04-.01.02-.03.02-.04.02l-.86-.26s-.53.05-.55.05h-.02c.07.06.14.12.2.18.26.23.5.44.4.61-.16.19-.35.29-.56.29m-.89-1.18c0 .02-.02.07-.04.11.02.03.06.14.09.27.04.17.1.36.15.49.39.2.86.36 1.2-.02.07-.12-.16-.32-.39-.52-.1-.09-.2-.17-.27-.26l-.74-.07zm-3.16.14c.29 0 .47.04.64.08.31.07.61.1 1.02-.05-.02-.11-.17-.35-.3-.56-.06-.1-.12-.2-.16-.28-.06.01-.47.02-.69-.05.01 0-.03.02-.09.05-.06.06-.14.09-.22.13-.1.06-.16.1-.21.15l-.06.07c0 .01-.02.04-.03.05-.01.01-.03.02-.04.02-.03.04-.1.1-.2.13-.12.08-.31.09-.52.09h-.12c-.24 0-.45.01-.5.14.09.14.34.15.76.1.2-.02.43-.05.7-.05h.02zm4.6-.16l.72.21-.5-.46.54-.47c-.15.1-.36.1-.57.11-.4.01-.81.02-.97.25-.08.1-.04.22.13.4h.09c.03.01.56-.04.56-.04m-2.66-.19c.16 0 .33.04.49.08.23.06.49.11.72.06.02-.07.08-.14.14-.21.17-.22.33-.42.26-.8-.41-.14-1.09-.2-1.58-.2-.39 0-.64.04-.68.07-.06.13-.05.23-.03.33.01.06.02.12.01.19.05.09.11.18.17.28.06.1.12.19.18.3.07-.07.18-.1.32-.1m-5.17-1.2c-.22 0-.37.2-.41.4-.04.22.02.49.33.63.23.1.74.05 1.3-.02.72-.09 1.48-.14 1.87.05l.06-.06c.01-.01.02-.03.04-.04.07-.08.12-.11.18-.14.09-.06.18-.11.26-.14.06-.05.09-.12.11-.21-.1-.48-.62-.55-.97-.6-.13-.02-.23-.03-.27-.06l-2.5.19z"/><path d="M38.08 24.28c0 .14.11.25.24.25s.24-.11.24-.25-.11-.25-.24-.25c-.14.01-.24.12-.24.25" fill-rule="evenodd" clip-rule="evenodd" fill="#fff"/><path d="M38.31 24.57c-.15 0-.27-.13-.27-.28 0-.16.12-.28.27-.28.15 0 .27.13.27.28 0 .15-.12.28-.27.28m0-.5c-.11 0-.2.1-.2.21 0 .12.09.21.2.21.11 0 .2-.1.2-.21 0-.11-.09-.21-.2-.21"/><path d="M38.14 25.51c0 .14.11.25.24.25s.24-.11.24-.25-.11-.25-.24-.25-.24.11-.24.25" fill-rule="evenodd" clip-rule="evenodd" fill="#fff"/><path d="M38.38 25.79c-.15 0-.27-.13-.27-.28 0-.16.12-.28.27-.28.15 0 .27.13.27.28 0 .15-.12.28-.27.28m0-.49c-.11 0-.2.1-.2.21 0 .12.09.21.2.21.11 0 .2-.1.2-.21 0-.12-.09-.21-.2-.21"/><path d="M29.45 23.69c-.21-.04-.29-.03-.43-.04l-.33 1.08c.52.05.99.05.99.04-.31-.06-.24-1.07-.23-1.08" fill-rule="evenodd" clip-rule="evenodd" fill="#fff"/><path d="M27.26 24.43v-.73h.13v.62h.31v.11zM27.81 23.74h.12v.73h-.12zM28.35 24.52h-.21v-.73c.09 0 .16-.01.2-.01.07 0 .13.02.17.05.04.03.06.08.06.14 0 .06-.03.1-.09.14.09.03.13.1.13.2 0 .07-.02.12-.07.16-.05.03-.11.05-.19.05m-.09-.63v.17h.06c.08 0 .12-.03.12-.1 0-.06-.04-.08-.11-.08-.02.01-.04.01-.07.01m0 .28v.24h.06c.06 0 .1-.01.12-.03.02-.02.04-.05.04-.1 0-.04-.01-.07-.04-.09-.02-.02-.06-.03-.12-.03-.01.01-.03.01-.06.01M28.9 23.95v.18h.23v.1h-.23v.23h.32v.11h-.44v-.73h.44v.11zM29.79 24.58l-.19-.3h-.08v.31h-.12v-.73h.19c.18 0 .27.07.27.22 0 .04-.01.08-.04.12-.02.04-.06.06-.09.08l.21.33h-.15zm-.26-.62v.2h.05c.05 0 .09-.01.11-.02.02-.02.04-.05.04-.09 0-.04-.02-.06-.04-.08a.373.373 0 0 0-.12-.02c-.02.01-.03.01-.04.01M30.29 23.94v.62h-.12v-.62h-.22v-.11h.57v.11zM30.99 24.46l-.05-.15h-.24l-.05.15h-.14l.28-.74h.05l.28.74h-.13zm-.17-.52l-.08.27h.17l-.09-.27zM31.22 24.39l.05-.12c.05.04.1.05.14.05.07 0 .11-.03.11-.08 0-.02-.01-.05-.02-.07a.385.385 0 0 0-.11-.08c-.05-.03-.09-.05-.11-.07a.161.161 0 0 1-.04-.07.188.188 0 0 1-.02-.08c0-.06.02-.1.06-.14.04-.04.09-.06.15-.06.08 0 .14.02.18.05l-.04.11a.239.239 0 0 0-.14-.05.09.09 0 0 0-.07.03c-.01.02-.02.04-.02.06 0 .04.05.09.13.13.05.02.08.05.1.07.02.02.04.04.05.07.01.03.02.06.02.09 0 .06-.02.11-.07.15-.04.04-.1.06-.18.06-.05 0-.11-.01-.17-.05"/><path d="M24.68 23.07c-.28 0-.57-.01-.82-.04-.04-.01-.07-.04-.06-.08.01-.04.03-.07.08-.06.59.08 1.39.03 1.83.01l.12-.01c.04 0 .07.03.07.07 0 .04-.03.07-.07.07l-.12.01c-.24.01-.63.03-1.03.03m.64-1.53c-.03 0-.06-.02-.07-.06a5.45 5.45 0 0 0-.34-1.18 5.06 5.06 0 0 1-.2-.59c-.01-.04.01-.07.05-.08.04-.01.07.01.08.05.06.23.13.4.19.58.11.3.23.61.34 1.21.01.04-.02.07-.05.08zm-.71-.13c-.83-.21-1.44-.47-1.77-.74-.03-.02-.03-.07-.01-.1.02-.03.07-.04.1-.01.31.25.91.5 1.68.7.03.01.1.05.09.09l-.14-.02.07.01-.02.07zm-.99-1.58c-.02 0-.03 0-.04-.01-.19-.14-.33-.26-.47-.38-.3-.26-.55-.48-1.18-.77-.03-.02-.05-.06-.03-.09.02-.03.06-.05.09-.03.64.3.92.54 1.21.79.14.12.28.24.46.38.03.02.04.07.02.1-.02 0-.04.01-.06.01m.34-.95c-.04 0-.07-.04-.07-.07.08-1.17.23-1.52.54-1.81.03-.03.07-.03.1 0s.03.07 0 .1c-.24.23-.41.49-.49 1.72-.02.03-.05.06-.08.06m-.61-.31s-1.11-1.22-1.44-1.62c-.03-.03-.02-.07.01-.1s.07-.02.1.01c.34.4 1.44 1.62 1.44 1.62l-.11.09zm.01-1.25c-.04 0-.07-.03-.07-.07 0-.01-.01-1.09-.39-1.38-.03-.02-.04-.07-.01-.1.02-.03.07-.04.1-.01.44.33.44 1.44.44 1.49 0 .04-.03.07-.07.07" fill="#43a514"/></svg>